*
G04 Mass Parameters ***
*
G04 Image ***
*
%IND:\MICA AND BOARD\DANH\DANH\ORCAD PROJECTS\COMERCIAL PROJECTS\COM_PRJ46\COM_PRJ46_VER1.GND*%
%ICAS*%
%MOIN*%
%IPPOS*%
%ASAXBY*%
G74*%FSLAN2X34Y34*%
*
G04 Aperture Definitions ***
*
%ADD10C,0.1039*%
%ADD11C,0.0900*%
%ADD12C,0.0790*%
%ADD13C,0.0799*%
%ADD14R,0.0799X0.0799*%
%ADD15C,0.0620*%
%ADD16C,0.0100*%
%ADD17C,0.0827*%
%ADD18C,0.0039*%
%ADD19C,0.0120*%
%ADD20C,0.0787*%
%ADD21C,0.1181*%
%ADD22C,0.0984*%
%ADD23R,0.0984X0.0984*%
%ADD24C,0.0709*%
%ADD25C,0.0700*%
*
G04 Plot Data ***
*
G54D11*
X-0037642Y0024424D03*
G54D12*
Y0026078D03*
G54D20*
X-0035203Y0025999D03*
X-0031895D03*
X-0056679Y0025921D03*
X-0053371D03*
X-0025134Y0024033D03*
X-0024095D03*
X-0023095D03*
X-0022095D03*
Y0027033D03*
X-0023095D03*
X-0024095D03*
X-0025095D03*
X-0030208Y0025331D03*
Y0026331D03*
X-0027809Y0025644D03*
Y0026589D03*
X-0057977Y0025921D03*
X-0051999Y0025960D03*
G54D21*
X-0049757Y0024190D03*
X-0046093D03*
X-0043975Y0024151D03*
X-0040311D03*
X-0049717Y0026078D03*
X-0046054D03*
X-0043975Y0026039D03*
X-0040311D03*
G54D22*
X-0032023Y0024285D03*
G54D23*
X-0035023D03*
G54D24*
X-0056027Y0023971D03*
X-0054027D03*
G54D25*
X-0013216Y0024544D03*
X-0014829D03*
X-0016441Y0024583D03*
X-0017739Y0024465D03*
X-0019352D03*
X-0020965Y0024505D03*
X-0008929Y0024465D03*
X-0010541D03*
X-0012154Y0024505D03*
X-0007665Y0026949D03*
Y0025949D03*
Y0024949D03*
Y0023949D03*
M02*
