*
G04 Mass Parameters ***
*
G04 Image ***
*
%IND:\DANH\ORCAD PROJECTS\COMERCIAL PROJECTS\COM_PRJ48\COM_PRJ48.GND*%
%ICAS*%
%MOIN*%
%IPPOS*%
%ASAXBY*%
G74*%FSLAN2X34Y34*%
*
G04 Aperture Definitions ***
*
%ADD10C,0.1039*%
%ADD11C,0.0799*%
%ADD12R,0.0799X0.0799*%
%ADD13C,0.0840*%
%ADD14R,0.0840X0.0840*%
%ADD15C,0.2362*%
%ADD16C,0.0120*%
%ADD17C,0.0118*%
%ADD18C,0.0080*%
%ADD19C,0.0760*%
%ADD20C,0.0900*%
%ADD21C,0.0720*%
%ADD22C,0.0039*%
*
G04 Plot Data ***
*
G54D22*
G01X-0051212Y0012351D02*
X-0055460Y0008063D01*
Y-0000039D01*
X-0055421Y-0000433D01*
X-0051133Y-0004641D01*
X-0043306D01*
X-0043267Y-0004720D01*
X-0038940Y-0000433D01*
Y0007945D01*
X-0043306Y0012351D01*
X-0051212D01*
G54D13*
X-0040479Y0006574D03*
G54D19*
Y0005574D03*
Y0004574D03*
Y0003574D03*
G54D20*
X-0041379Y0001062D03*
X-0043379Y-0000938D03*
X-0041379D03*
X-0043379Y0001062D03*
X-0052864Y-0000669D03*
X-0050864Y0001331D03*
X-0052864D03*
X-0050864Y-0000669D03*
X-0048262Y0009951D03*
X-0046262Y0007951D03*
Y0009951D03*
X-0048262Y0007951D03*
G54D21*
X-0051684Y0003855D03*
X-0042677Y0003894D03*
X-0044525Y0001849D03*
X-0044565Y0002596D03*
Y0003383D03*
Y0004169D03*
X-0044604Y0004956D03*
Y0005743D03*
X-0049796Y0001927D03*
X-0049757Y0002635D03*
Y0003422D03*
Y0004209D03*
Y0004995D03*
Y0005782D03*
X-0044565Y0001141D03*
X-0045194D03*
X-0045981D03*
X-0046767D03*
X-0047554D03*
X-0048341D03*
X-0049127D03*
X-0049796D03*
X-0044565Y0006490D03*
X-0045233D03*
X-0046020D03*
X-0046807D03*
X-0047593D03*
X-0048341D03*
X-0049127D03*
X-0049757D03*
M02*
