*
G04 Mass Parameters ***
*
G04 Image ***
*
%IND:\DANH\ORCAD PROJECTS\COMERCIAL PROJECTS\COM_PRJ48\COM_PRJ48.BOT*%
%ICAS*%
%MOIN*%
%IPPOS*%
%ASAXBY*%
G74*%FSLAN2X34Y34*%
*
G04 Aperture Definitions ***
*
%ADD10C,0.1039*%
%ADD11C,0.0799*%
%ADD12R,0.0799X0.0799*%
%ADD13C,0.0840*%
%ADD14R,0.0840X0.0840*%
%ADD15C,0.2362*%
%ADD16C,0.0120*%
%ADD17C,0.0118*%
%ADD18C,0.0080*%
*
G04 Plot Data ***
*
G54D16*
G01X-0052864Y-0000669D02*
X-0053750Y0000217D01*
Y0005250D01*
X-0051750Y0007250D01*
Y0008250D01*
X-0051000Y0009000D01*
X-0049213D01*
X-0048262Y0009951D01*
X-0040479Y0004574D02*
X-0041250D01*
X-0041324D01*
X-0044000Y0007250D01*
X-0046750D01*
X-0047000Y0007500D01*
Y0008689D01*
X-0048262Y0009951D01*
X-0040479Y0006574D02*
X-0039426Y0005521D01*
Y-0000426D01*
X-0043000Y-0004000D01*
X-0046126D01*
X-0046376Y-0003750D01*
Y-0001652D01*
X-0043859Y-0002557D02*
X-0041552Y-0000250D01*
X-0040479D01*
X-0040250Y-0000021D01*
Y0001500D01*
X-0039750Y0002000D01*
Y0004845D01*
X-0040479Y0005574D01*
X-0049953Y0010642D02*
X-0054392Y0006203D01*
Y-0000500D01*
X-0053250Y-0001750D01*
X-0051000Y-0004000D01*
X-0046750D01*
Y-0002750D01*
X-0047250Y-0002250D01*
X-0048250Y-0002500D01*
X-0048417Y-0002333D01*
Y-0000197D01*
X-0042104Y0007985D02*
X-0040693Y0006574D01*
X-0040479D01*
X-0043540Y0009794D02*
X-0043000Y0009254D01*
Y0007750D01*
X-0041672Y0006422D01*
X-0041328D01*
X-0040479Y0005574D01*
X-0046297Y-0000039D02*
X-0045587Y-0000750D01*
X-0044250D01*
X-0043250Y0000250D01*
X-0041000D01*
X-0040750Y0000500D01*
Y0002844D01*
X-0040479Y0003114D01*
Y0003574D01*
X-0043379Y-0000938D02*
X-0044093Y-0001652D01*
X-0045076D01*
X-0050111Y-0001613D02*
X-0051223D01*
X-0051473Y-0001363D01*
Y0000723D01*
X-0050864Y0001331D01*
X-0043859Y-0002557D02*
X-0044488Y-0003186D01*
X-0045172D01*
X-0044604Y0007985D02*
X-0044637Y0007951D01*
X-0046262D01*
X-0047611Y-0001613D02*
X-0047571Y-0001652D01*
X-0046376D01*
X-0041379Y0001062D02*
X-0041250Y0001191D01*
Y0004574D01*
X-0040479D01*
X-0046297Y-0000039D02*
X-0048260D01*
X-0048417Y-0000197D01*
G54D17*
G01X-0049763Y0007951D02*
X-0048262D01*
X-0047672Y-0003186D02*
X-0049371D01*
X-0050057Y-0002500D01*
X-0051500D01*
X-0052000Y-0002000D02*
Y-0000500D01*
X-0052250Y-0000250D02*
Y0000717D01*
X-0052864Y0001331D01*
X-0044623Y0000335D02*
X-0044106D01*
X-0043379Y0001062D01*
X-0041379Y-0000938D02*
X-0042559Y-0002118D01*
X-0050392Y-0000197D02*
X-0050864Y-0000669D01*
G54D18*
G01X-0049953Y0008142D02*
X-0049763Y0007951D01*
X-0051500Y-0002500D02*
X-0052000Y-0002000D01*
Y-0000500D02*
X-0052250Y-0000250D01*
X-0044997Y-0000039D02*
X-0044623Y0000335D01*
X-0046262Y0009951D02*
X-0044997D01*
X-0044840Y0009794D01*
X-0042559Y-0002118D02*
Y-0002557D01*
X-0049717Y-0000197D02*
X-0050392D01*
G54D10*
X-0045076Y-0001652D03*
X-0046376D03*
X-0050111Y-0001613D03*
X-0047611D03*
X-0044604Y0007985D03*
X-0042104D03*
X-0042559Y-0002557D03*
X-0043859D03*
X-0047672Y-0003186D03*
X-0045172D03*
X-0044840Y0009794D03*
X-0043540D03*
X-0044997Y-0000039D03*
X-0046297D03*
X-0049717Y-0000197D03*
X-0048417D03*
X-0049953Y0008142D03*
Y0010642D03*
G54D11*
X-0044525Y0001849D03*
X-0044565Y0002596D03*
Y0003383D03*
Y0004169D03*
X-0044604Y0004956D03*
Y0005743D03*
X-0049796Y0001927D03*
X-0049757Y0002635D03*
Y0003422D03*
Y0004209D03*
Y0004995D03*
Y0005782D03*
X-0044565Y0001141D03*
X-0045194D03*
X-0045981D03*
X-0046767D03*
X-0047554D03*
X-0048341D03*
X-0049127D03*
X-0049796D03*
X-0044565Y0006490D03*
X-0045233D03*
X-0046020D03*
X-0046807D03*
X-0047593D03*
X-0048341D03*
X-0049127D03*
X-0049757D03*
X-0040479Y0006574D03*
Y0005574D03*
Y0004574D03*
Y0003574D03*
G54D13*
X-0041379Y0001062D03*
X-0043379Y-0000938D03*
X-0041379D03*
X-0043379Y0001062D03*
X-0052864Y-0000669D03*
X-0050864Y0001331D03*
X-0052864D03*
X-0050864Y-0000669D03*
X-0048262Y0009951D03*
X-0046262Y0007951D03*
Y0009951D03*
X-0048262Y0007951D03*
G54D15*
X-0051684Y0003855D03*
X-0042677Y0003894D03*
M02*
