%
T1C0.064F200S100
X-050111Y-001613
X-049953Y008142
X-049953Y010642
X-049717Y-000197
X-048417Y-000197
X-047672Y-003186
X-047611Y-001613
X-046376Y-001652
X-046297Y-000039
X-045172Y-003186
X-045076Y-001652
X-044997Y-000039
X-044840Y009794
X-044604Y007985
X-043859Y-002557
X-043540Y009794
X-042559Y-002557
X-042104Y007985
X-040479Y003574
X-040479Y004574
X-040479Y005574
X-040479Y006574
T3C0.079F200S100
X-049796Y001141
X-049796Y001927
X-049757Y002635
X-049757Y003422
X-049757Y004209
X-049757Y004995
X-049757Y005782
X-049757Y006490
X-049127Y001141
X-048341Y001141
X-048341Y006490
X-049127Y006490
X-047593Y006490
X-047554Y001141
X-046807Y006490
X-046767Y001141
X-046020Y006490
X-045981Y001141
X-045233Y006490
X-045194Y001141
X-044604Y004956
X-044604Y005743
X-044565Y001141
X-044565Y002596
X-044565Y003383
X-044565Y004169
X-044565Y006490
X-044525Y001849
T2C0.068F200S100
X-052864Y-000669
X-052864Y001331
X-050864Y-000669
X-050864Y001331
X-048262Y007951
X-048262Y009951
X-046262Y007951
X-046262Y009951
X-043379Y-000938
X-043379Y001062
X-041379Y-000938
X-041379Y001062
T4C0.129F200S100
X-051684Y003855
X-042677Y003894
M30
