*
G04 Mass Parameters ***
*
G04 Image ***
*
%IND:\DANH\ORCADP~1\COMERC~1\COF0C4~1\COM_PR~3.AST*%
%ICAS*%
%MOIN*%
%IPPOS*%
%ASAXBY*%
G74*%FSLAN2X34Y34*%
*
G04 Aperture Definitions ***
*
%ADD10C,0.0620*%
%ADD11O,0.0787X0.0709*%
%ADD12R,0.0787X0.0709*%
%ADD13O,0.0709X0.0787*%
%ADD14R,0.0709X0.0787*%
%ADD15C,0.0799*%
%ADD16C,0.0709*%
%ADD17C,0.3150*%
%ADD18C,0.1039*%
%ADD19R,0.0799X0.0799*%
%ADD20C,0.0010*%
%ADD21C,0.0100*%
%ADD22C,0.0827*%
%ADD23R,0.0709X0.0709*%
%ADD24R,0.3150X0.3150*%
%ADD25C,0.0080*%
%ADD26C,0.0118*%
%ADD27C,0.0120*%
%ADD28C,0.0039*%
%ADD29C,0.0700*%
%ADD30C,0.0720*%
%ADD31R,0.0720X0.0720*%
%ADD32C,0.0787*%
%ADD33C,0.0900*%
%ADD34C,0.0790*%
%ADD35C,0.1181*%
%ADD36C,0.0984*%
%ADD37R,0.0984X0.0984*%
%ADD38C,0.0670*%
%ADD39C,0.0520*%
%ADD40R,0.0520X0.0520*%
%ADD41C,0.0079*%
%ADD42C,0.0020*%
%ADD43C,0.0090*%
%ADD44C,0.0083*%
%ADD45C,0.0550*%
%ADD46R,0.0550X0.0550*%
*
G04 Plot Data ***
*
G54D25*
G01X-0038901Y0027413D02*
X-0039401D01*
Y0025413D01*
X-0038901D01*
X-0038401D01*
Y0027413D01*
X-0038901D01*
Y0027663D01*
Y0025163D02*
Y0025413D01*
X-0026518Y0028593D02*
X-0026859Y0028820D01*
X-0026867Y0028812D02*
Y0030296D01*
X-0026859Y0030304D01*
X-0026518Y0030531D01*
X-0028475Y0026149D02*
X-0028702Y0025808D01*
X-0027182Y0027108D02*
X-0026955Y0027449D01*
X-0026963Y0027457D02*
X-0025479D01*
X-0025471Y0027449D01*
X-0025244Y0027108D01*
X-0028694Y0025800D02*
X-0030178D01*
X-0030186Y0025808D01*
X-0030413Y0026149D01*
G54D28*
G01X-0043975Y0008142D02*
Y-0019509D01*
X-0016323D01*
Y0008142D01*
X-0043975D01*
G54D41*
G01X-0031427Y0025122D02*
Y0025372D01*
X-0050268Y0026027D02*
Y0026277D01*
X-0027246Y0028281D02*
X-0027496D01*
X-0027167Y0025252D02*
X-0027417D01*
X-0028269Y0030011D02*
X-0028519D01*
X-0034434Y-0002079D02*
Y-0001829D01*
X-0039862Y-0002079D02*
Y-0001829D01*
X-0033709Y0005755D02*
Y0005505D01*
X-0027219Y0006069D02*
Y0005819D01*
X-0027748Y-0002036D02*
Y-0001786D01*
X-0033216Y-0002076D02*
Y-0001826D01*
X-0022406Y0003380D02*
X-0022656D01*
X-0022406Y0004482D02*
X-0022656D01*
X-0020847Y-0002136D02*
Y-0001886D01*
X-0026235Y-0002097D02*
Y-0001847D01*
X-0019687Y-0007272D02*
Y-0007022D01*
X-0020789Y-0007272D02*
Y-0007022D01*
X-0026384Y-0008595D02*
X-0026134D01*
X-0026305Y-0003167D02*
X-0026055D01*
X-0026210Y-0015025D02*
X-0025960D01*
X-0026210Y-0016048D02*
X-0025960D01*
X-0027216Y-0017439D02*
Y-0017189D01*
X-0033352Y-0017439D02*
Y-0017189D01*
X-0037932Y-0014947D02*
X-0037682D01*
X-0037932Y-0016009D02*
X-0037682D01*
X-0039686Y-0004077D02*
Y-0004327D01*
X-0040709Y-0004077D02*
Y-0004327D01*
X-0026275Y-0009627D02*
Y-0009877D01*
X-0020886Y-0009706D02*
Y-0009956D01*
X-0032843Y-0009588D02*
Y-0009838D01*
X-0034023Y-0009666D02*
Y-0009916D01*
X-0027376Y-0009666D02*
Y-0009916D01*
X-0034366Y-0003069D02*
X-0034616D01*
X-0034170Y-0008458D02*
X-0034420D01*
X-0034776Y0003444D02*
X-0035026D01*
X-0039412Y-0009509D02*
Y-0009759D01*
X-0034776Y0004388D02*
X-0035026D01*
G54D32*
X-0027219Y0028281D03*
X-0030527D03*
X-0028241Y0030011D03*
X-0031550D03*
X-0027140Y0025252D03*
X-0030449D03*
X-0031427Y0025095D03*
Y0028403D03*
X-0050268Y0025999D03*
Y0029308D03*
X-0035636Y0025291D03*
X-0034597D03*
X-0033597D03*
X-0032597D03*
Y0028291D03*
X-0033597D03*
X-0034597D03*
X-0035597D03*
X-0038940Y0030326D03*
Y0029326D03*
X-0037367Y0029421D03*
Y0030367D03*
X-0050268Y0024544D03*
X-0050307Y0030523D03*
X-0034142Y-0008458D03*
X-0037451D03*
X-0034339Y-0003069D03*
X-0037648D03*
X-0040709Y-0004050D03*
Y-0007359D03*
X-0039686Y-0004050D03*
Y-0007359D03*
X-0034023Y-0009639D03*
Y-0012948D03*
X-0039412Y-0009482D03*
Y-0012790D03*
X-0037959Y-0016009D03*
X-0034650D03*
X-0037959Y-0014947D03*
X-0034650D03*
X-0027376Y-0009639D03*
Y-0012948D03*
X-0032843Y-0009560D03*
Y-0012869D03*
X-0033352Y-0017466D03*
Y-0014158D03*
X-0027216Y-0017466D03*
Y-0014158D03*
X-0020886Y-0009678D03*
Y-0012987D03*
X-0026275Y-0009600D03*
Y-0012908D03*
X-0026238Y-0016048D03*
X-0022929D03*
X-0026238Y-0015025D03*
X-0022929D03*
X-0026332Y-0003167D03*
X-0023024D03*
X-0026411Y-0008595D03*
X-0023102D03*
X-0020789Y-0007300D03*
Y-0003991D03*
X-0019687Y-0007300D03*
Y-0003991D03*
X-0026235Y-0002124D03*
Y0001185D03*
X-0020847Y-0002163D03*
Y0001145D03*
X-0022378Y0004482D03*
X-0025687D03*
X-0022378Y0003380D03*
X-0025687D03*
X-0033216Y-0002103D03*
Y0001205D03*
X-0027748Y-0002064D03*
Y0001245D03*
X-0027219Y0006097D03*
Y0002788D03*
X-0033709Y0005782D03*
Y0002473D03*
X-0039862Y-0002107D03*
Y0001202D03*
X-0034434Y-0002107D03*
Y0001202D03*
X-0034749Y0004388D03*
X-0038057D03*
X-0034749Y0003444D03*
X-0038057D03*
G54D35*
X-0048773Y0028045D03*
X-0045110D03*
X-0043896Y0028084D03*
X-0040233D03*
X-0048734Y0029854D03*
X-0045071D03*
X-0043857Y0029893D03*
X-0040193D03*
G54D39*
X-0038901Y0028163D03*
Y0024663D03*
X-0028045Y-0004169D03*
Y-0007473D03*
X-0031899Y-0008103D03*
X-0032411Y-0004130D03*
X-0030169Y-0017661D03*
X-0030129Y0005861D03*
X-0036383Y-0019313D03*
X-0036855Y-0018841D03*
X-0037327Y-0018369D03*
X-0037799Y-0017857D03*
X-0038311Y-0017385D03*
X-0038783Y-0016913D03*
X-0039255Y-0016441D03*
X-0039727Y-0015930D03*
X-0040199Y-0015419D03*
X-0040710Y-0014947D03*
X-0041182Y-0014435D03*
X-0041654Y-0013963D03*
X-0042165Y-0013491D03*
X-0042637Y-0013019D03*
X-0043109Y-0012508D03*
X-0043621Y-0012036D03*
X-0023836Y-0019234D03*
X-0023325Y-0018762D03*
X-0022853Y-0018290D03*
X-0022381Y-0017818D03*
X-0021909Y-0017307D03*
X-0021397Y-0016835D03*
X-0020925Y-0016323D03*
X-0020453Y-0015851D03*
X-0019981Y-0015379D03*
X-0019470Y-0014907D03*
X-0018998Y-0014396D03*
X-0018487Y-0013924D03*
X-0018015Y-0013413D03*
X-0017503Y-0012941D03*
X-0017031Y-0012429D03*
X-0016520Y-0011957D03*
X-0016638Y0000393D03*
X-0017149Y0000865D03*
X-0017582Y0001377D03*
X-0018093Y0001849D03*
X-0018565Y0002360D03*
X-0019037Y0002832D03*
X-0019549Y0003304D03*
X-0020060Y0003776D03*
X-0020532Y0004287D03*
X-0021043Y0004759D03*
X-0021515Y0005231D03*
X-0021987Y0005743D03*
X-0022459Y0006215D03*
X-0022931Y0006687D03*
X-0023403Y0007198D03*
X-0023915Y0007670D03*
X-0036462Y0007631D03*
X-0036973Y0007159D03*
X-0037445Y0006647D03*
X-0037957Y0006175D03*
X-0038429Y0005703D03*
X-0038901Y0005192D03*
X-0039373Y0004759D03*
X-0039845Y0004248D03*
X-0040356Y0003776D03*
X-0040828Y0003304D03*
X-0041339Y0002793D03*
X-0041811Y0002281D03*
X-0042283Y0001809D03*
X-0042755Y0001298D03*
X-0043267Y0000826D03*
X-0043699Y0000315D03*
X-0031231Y-0008339D03*
X-0030523D03*
X-0029815D03*
X-0029107D03*
X-0028517Y-0007985D03*
X-0027651Y-0006883D03*
Y-0006175D03*
Y-0005467D03*
Y-0004759D03*
X-0028477Y-0003619D03*
X-0029107Y-0003422D03*
X-0029815D03*
X-0030523D03*
X-0031231D03*
X-0032293Y-0007513D03*
X-0032647Y-0006923D03*
Y-0006215D03*
Y-0005507D03*
Y-0004799D03*
X-0031899Y-0003697D03*
X-0038576Y-0004654D03*
X-0038615Y-0006778D03*
X-0037760Y-0013786D03*
X-0035636Y-0013864D03*
X-0031191D03*
X-0029067Y-0013825D03*
X-0025173Y-0013943D03*
X-0022499D03*
X-0021899Y-0004690D03*
X-0021978Y-0006893D03*
X-0022538Y0002219D03*
X-0024623D03*
X-0029427Y0002275D03*
X-0031590D03*
X-0036073Y0002371D03*
X-0038248Y0002382D03*
X-0035452Y-0004693D03*
X-0037799Y-0010645D03*
X-0031231Y-0010724D03*
X-0024662Y-0010802D03*
X-0025141Y-0006971D03*
X-0022431Y-0000972D03*
X-0029361Y-0000822D03*
X-0036034Y-0000809D03*
X-0035412Y-0006817D03*
X-0035664Y-0010712D03*
X-0029028Y-0010684D03*
X-0022499Y-0010842D03*
X-0025102Y-0004847D03*
X-0024662Y-0000961D03*
X-0031524Y-0000861D03*
X-0038237Y-0000809D03*
G54D40*
X-0037576Y-0004654D03*
X-0037615Y-0006778D03*
X-0037760Y-0012786D03*
X-0035636Y-0012864D03*
X-0031191D03*
X-0029067Y-0012825D03*
X-0025173Y-0012943D03*
X-0022499D03*
X-0022899Y-0004690D03*
X-0022978Y-0006893D03*
X-0022538Y0001219D03*
X-0024623D03*
X-0029427Y0001275D03*
X-0031590D03*
X-0036073Y0001371D03*
X-0038248Y0001382D03*
X-0036452Y-0004693D03*
X-0037799Y-0011645D03*
X-0031231Y-0011724D03*
X-0024662Y-0011802D03*
X-0024141Y-0006971D03*
X-0022431Y0000028D03*
X-0029361Y0000178D03*
X-0036034Y0000191D03*
X-0036412Y-0006817D03*
X-0035664Y-0011712D03*
X-0029028Y-0011684D03*
X-0022499Y-0011842D03*
X-0024102Y-0004847D03*
X-0024662Y0000039D03*
X-0031524Y0000139D03*
X-0038237Y0000191D03*
G54D45*
X-0044722Y0025092D03*
G54D46*
Y0026747D03*
M02*
