*
G04 Mass Parameters ***
*
G04 Image ***
*
%IND:\DANH\ORCADP~1\COMERC~1\COF0C4~1\COM_PR~3.BOT*%
%ICAS*%
%MOIN*%
%IPPOS*%
%ASAXBY*%
G74*%FSLAN2X34Y34*%
*
G04 Aperture Definitions ***
*
%ADD10C,0.0620*%
%ADD11O,0.0787X0.0709*%
%ADD12R,0.0787X0.0709*%
%ADD13O,0.0709X0.0787*%
%ADD14R,0.0709X0.0787*%
%ADD15C,0.0799*%
%ADD16C,0.0709*%
%ADD17C,0.3150*%
%ADD18C,0.1039*%
%ADD19R,0.0799X0.0799*%
%ADD20C,0.0010*%
%ADD21C,0.0100*%
%ADD22C,0.0827*%
%ADD23R,0.0709X0.0709*%
%ADD24R,0.3150X0.3150*%
%ADD25C,0.0080*%
%ADD26C,0.0118*%
%ADD27C,0.0120*%
%ADD28C,0.0039*%
*
G04 Plot Data ***
*
G54D25*
G01X-0029361Y-0000822D02*
X-0027886D01*
X-0027748Y-0000684D01*
Y0001245D01*
X-0027376Y-0012948D02*
Y-0010822D01*
X-0027514Y-0010684D01*
X-0029028D01*
X-0048183Y0023561D02*
X-0023049Y0023521D01*
X-0023010Y0023482D01*
Y0031585D01*
X-0051448D01*
Y0023561D01*
X-0048183D01*
G54D26*
G01X-0037451Y-0008458D02*
X-0035550D01*
X-0035412Y-0008320D01*
Y-0006817D01*
X-0022929Y-0016048D02*
X-0024483Y-0014494D01*
Y-0014179D01*
X-0024719Y-0013943D01*
X-0025173D01*
X-0024623Y0002219D02*
Y0003105D01*
X-0024898Y0003380D01*
X-0025687D01*
X-0026275Y-0012908D02*
Y-0010940D01*
X-0026137Y-0010802D01*
X-0024662D01*
X-0019687Y-0003991D02*
X-0021978Y-0006281D01*
Y-0006893D01*
X-0024662Y-0000961D02*
X-0026098D01*
X-0026235Y-0000823D01*
Y0001185D01*
X-0034650Y-0014947D02*
Y-0014140D01*
X-0034926Y-0013864D01*
X-0035636D01*
X-0025102Y-0004847D02*
Y-0003305D01*
X-0024964Y-0003167D01*
X-0023024D01*
X-0025687Y0004482D02*
X-0023856D01*
X-0023443Y0004069D01*
Y0002495D01*
X-0023167Y0002219D01*
X-0022538D01*
X-0023102Y-0008595D02*
X-0025003D01*
X-0025141Y-0008458D01*
Y-0006971D01*
X-0039412Y-0012790D02*
Y-0010783D01*
X-0039274Y-0010645D01*
X-0037799D01*
X-0022431Y-0000972D02*
X-0022320D01*
X-0020847Y0000501D01*
Y0001145D01*
X-0022499Y-0013943D02*
Y-0014595D01*
X-0022929Y-0015025D01*
X-0020789Y-0003991D02*
X-0021663D01*
X-0021899Y-0004227D01*
Y-0004690D01*
X-0032843Y-0012869D02*
Y-0010861D01*
X-0032706Y-0010724D01*
X-0031231D01*
X-0027219Y0002788D02*
X-0029270D01*
X-0029427Y0002631D01*
Y0002275D01*
X-0033709Y0002473D02*
X-0031788D01*
X-0031590Y0002275D01*
X-0031191Y-0013864D02*
X-0031485Y-0014158D01*
X-0033352D01*
X-0029067Y-0013825D02*
X-0028438D01*
X-0028105Y-0014158D01*
X-0027216D01*
X-0034023Y-0012948D02*
Y-0010850D01*
X-0034161Y-0010712D01*
X-0035664D01*
X-0038576Y-0004654D02*
Y-0005226D01*
X-0040709Y-0007359D01*
X-0037760Y-0013786D02*
X-0037227D01*
X-0035557Y-0015456D01*
Y-0015733D01*
X-0035282Y-0016009D01*
X-0034650D01*
X-0035452Y-0004693D02*
Y-0003207D01*
X-0035589Y-0003069D01*
X-0037648D01*
X-0038615Y-0006778D02*
X-0039105D01*
X-0039686Y-0007359D01*
X-0031524Y-0000861D02*
X-0033078D01*
X-0033216Y-0000723D01*
Y0001205D01*
X-0020886Y-0012987D02*
Y-0010979D01*
X-0021024Y-0010842D01*
X-0022499D01*
G54D27*
G01X-0038057Y0003444D02*
Y0002573D01*
X-0038248Y0002382D01*
X-0022538Y0001219D02*
X-0024623D01*
X-0022499Y-0011842D02*
Y-0012943D01*
X-0029067Y-0012825D02*
X-0029107Y-0012864D01*
X-0031191D01*
X-0029028Y-0011684D02*
X-0029067Y-0011724D01*
Y-0012825D01*
X-0037799Y-0011645D02*
X-0037760D01*
Y-0012786D01*
X-0024662Y-0011802D02*
X-0022538D01*
X-0022499Y-0011842D01*
X-0025173Y-0012943D02*
Y-0011885D01*
X-0025091Y-0011802D01*
X-0024662D01*
X-0031191Y-0012864D02*
Y-0011763D01*
X-0031231D01*
Y-0011724D01*
X-0035636Y-0012864D02*
Y-0011740D01*
X-0035664D01*
Y-0011712D01*
X-0022978Y-0006893D02*
X-0024062D01*
X-0024141D01*
Y-0006971D01*
X-0036412Y-0006817D02*
X-0036452Y-0006778D01*
X-0037615D01*
X-0037576Y-0004654D02*
Y-0006738D01*
Y-0006778D01*
X-0037615D01*
X-0024141Y-0006971D02*
Y-0004887D01*
X-0024102Y-0004847D01*
X-0022899Y-0004690D02*
X-0023944D01*
X-0024102Y-0004847D01*
X-0037576Y-0004654D02*
X-0036491D01*
X-0036452Y-0004693D01*
X-0022538Y0001219D02*
Y0000135D01*
Y0000028D01*
X-0022431D01*
X-0024623Y0001219D02*
Y0000079D01*
X-0024662Y0000039D01*
X-0031590Y0001275D02*
Y0000205D01*
X-0031524Y0000139D01*
X-0036073Y0001371D02*
Y0000230D01*
X-0036034Y0000191D01*
X-0029361Y0000178D02*
Y0000244D01*
X-0029427D01*
Y0001275D01*
X-0038237Y0000191D02*
Y0000202D01*
X-0038248D01*
Y0001382D01*
X-0038237Y0000191D02*
Y0001233D01*
X-0038099Y0001371D01*
X-0036073D01*
X-0035202D01*
X-0034675Y0001898D01*
X-0032876D01*
X-0032253Y0001275D01*
X-0031590D01*
X-0037760Y-0012786D02*
X-0035802D01*
X-0035664Y-0012648D01*
Y-0011740D01*
Y-0011712D01*
X-0029067Y-0012825D02*
X-0028123D01*
X-0027986Y-0012963D01*
Y-0013521D01*
X-0027848Y-0013658D01*
X-0025370D01*
X-0024662Y-0012950D01*
Y-0011802D01*
X-0037799Y-0011645D02*
X-0037736D01*
X-0037181Y-0011090D01*
Y-0011059D01*
X-0037197Y-0011043D01*
Y-0010367D01*
X-0037472Y-0010091D01*
X-0039744D01*
X-0040019Y-0009816D01*
Y-0009182D01*
X-0037615Y-0006778D01*
X-0024623Y0001219D02*
X-0025439D01*
X-0026324Y0002104D01*
X-0028605D01*
X-0029361Y0001348D01*
Y0000244D01*
Y0000178D01*
X-0042480Y-0005130D02*
X-0041615Y-0004265D01*
Y-0003471D01*
X-0041202Y-0003058D01*
X-0039137D01*
X-0038311Y-0003884D01*
X-0037713D01*
X-0037576Y-0004022D01*
Y-0004654D01*
X-0035636Y-0012864D02*
X-0034869D01*
X-0034731Y-0013002D01*
Y-0013452D01*
X-0034594Y-0013590D01*
X-0031978D01*
X-0031231Y-0012842D01*
Y-0011763D01*
Y-0011724D01*
X-0024141Y-0006971D02*
X-0023624D01*
X-0021824Y-0008771D01*
X-0020552D01*
X-0020276Y-0009047D01*
Y-0013407D01*
X-0020689Y-0013820D01*
X-0021079D01*
X-0021955Y-0012943D01*
X-0022499D01*
X-0022899Y-0004690D02*
Y-0004059D01*
X-0022586Y-0003746D01*
X-0022272D01*
X-0021791Y-0003265D01*
X-0019932D01*
X-0019519Y-0002852D01*
Y-0001406D01*
X-0019794Y-0001131D01*
X-0021653D01*
X-0021997Y-0001475D01*
X-0023098D01*
Y-0000110D01*
X-0022961Y0000028D01*
X-0022431D01*
X-0027216Y-0017466D02*
Y-0015895D01*
X-0027456Y-0015655D01*
X-0032529D01*
X-0033352Y-0016478D01*
Y-0017466D01*
X-0019687Y-0007300D02*
Y-0013827D01*
X-0022892Y-0017031D01*
X-0024232D01*
X-0025215Y-0016048D01*
X-0026238D01*
X-0036073Y0002371D02*
Y0002977D01*
X-0037485Y0004388D01*
X-0038057D01*
X-0029444Y0027300D02*
X-0028700D01*
X-0027719Y0028281D01*
X-0027219D01*
X-0025367Y0029562D02*
X-0026125D01*
X-0026188Y0029625D01*
X-0027125D01*
X-0027511Y0030011D01*
X-0028241D01*
X-0037959Y-0014947D02*
X-0038999D01*
X-0041752Y-0012193D01*
Y-0006130D01*
X-0042480D01*
X-0027213Y0026707D02*
X-0026295Y0027625D01*
X-0025875D01*
X-0025063Y0028437D01*
X-0024437D01*
X-0023875Y0028999D01*
X-0042480Y-0006130D02*
X-0040846D01*
X-0040709Y-0005992D01*
Y-0004050D01*
X-0027219Y0006097D02*
Y0004523D01*
X-0027848Y0003894D01*
X-0031821D01*
X-0033709Y0005782D01*
X-0026213Y0025957D02*
Y0025492D01*
X-0026453Y0025252D01*
X-0027140D01*
X-0022378Y0004482D02*
X-0023993Y0006097D01*
X-0027110D01*
X-0027219D01*
X-0033709Y0005782D02*
X-0034749Y0004742D01*
Y0004388D01*
X-0019687Y-0007300D02*
X-0018418Y-0006030D01*
Y-0000580D01*
X-0022378Y0003380D01*
X-0030444Y0026550D02*
X-0029922Y0026028D01*
X-0029769Y0025875D01*
X-0029750D01*
X-0028375Y0024500D01*
X-0025625D01*
X-0025375Y0024750D01*
Y0025713D01*
X-0025213Y0025875D01*
Y0026707D01*
X-0026117Y0030562D02*
X-0026875D01*
X-0027438Y0031125D01*
X-0035867D01*
X-0036625Y0030367D01*
X-0037367D01*
X-0026238Y-0016048D02*
X-0027216D01*
Y-0017466D01*
X-0034339Y-0003069D02*
X-0032884D01*
X-0032529Y-0002714D01*
X-0027748D01*
Y-0002064D01*
X-0020886Y-0009678D02*
X-0024896D01*
X-0025176D01*
X-0025783Y-0008791D01*
Y-0004297D01*
X-0025370Y-0003884D01*
Y-0002714D01*
X-0025163Y-0002507D01*
X-0021446D01*
X-0021033Y-0002920D01*
X-0020483D01*
X-0020001Y-0002439D01*
Y-0001819D01*
X-0020414Y-0001406D01*
X-0021171D01*
X-0021515Y-0001750D01*
X-0025862D01*
X-0026235Y-0002124D01*
X-0034023Y-0009639D02*
X-0033514Y-0010148D01*
X-0032074D01*
X-0031565Y-0009639D01*
X-0027376D01*
X-0023875Y0026488D02*
Y0026999D01*
X-0024625Y0026250D01*
Y0024375D01*
X-0024875Y0024125D01*
X-0031750D01*
X-0032250Y0024625D01*
X-0034970D01*
X-0035636Y0025291D01*
X-0038901Y0024663D02*
Y0025500D01*
X-0038187Y0026213D01*
Y0029326D01*
X-0038940D01*
X-0044722Y0025092D02*
X-0045260D01*
X-0045500Y0024852D01*
Y0024375D01*
X-0045750Y0024125D01*
X-0047000D01*
X-0047250Y0024375D01*
Y0027000D01*
X-0047875Y0027625D01*
Y0028045D01*
X-0048773D01*
X-0038940Y0030326D02*
X-0039364Y0030750D01*
X-0041500D01*
X-0043250Y0029000D01*
X-0046920D01*
X-0047875Y0028045D01*
X-0048773D01*
X-0037959Y-0016009D02*
X-0036501Y-0017466D01*
X-0033352D01*
X-0026238Y-0015025D02*
Y-0016048D01*
X-0037959Y-0014947D02*
Y-0016009D01*
X-0020847Y-0002163D02*
X-0025576D01*
Y-0003402D01*
X-0026058Y-0003884D01*
X-0026854D01*
X-0027748Y-0002989D01*
Y-0002064D01*
X-0042480Y-0004130D02*
Y-0002960D01*
X-0042441Y-0002920D01*
X-0041477D01*
X-0041270Y-0002714D01*
X-0038517D01*
X-0037910Y-0002107D01*
X-0034434D01*
X-0030444Y0026550D02*
Y0027375D01*
X-0029625Y0028194D01*
Y0031125D01*
X-0027438D01*
X-0026875Y0030562D01*
X-0026117D01*
X-0019687Y-0007300D02*
X-0020789D01*
X-0039686Y-0004050D02*
X-0040709D01*
X-0022378Y0004482D02*
Y0003380D01*
X-0039412Y-0009482D02*
X-0038466Y-0008535D01*
X-0038271D01*
X-0037553Y-0009253D01*
X-0035351D01*
X-0034800Y-0008702D01*
Y-0003530D01*
X-0034339Y-0003069D01*
X-0032843Y-0009560D02*
X-0032672D01*
X-0032361Y-0009250D01*
X-0028327D01*
X-0027848Y-0008771D01*
X-0027022D01*
X-0026846Y-0008595D01*
X-0026411D01*
X-0020886Y-0009678D02*
X-0025176D01*
X-0025852Y-0010354D01*
X-0026660D01*
X-0027376Y-0009639D01*
X-0035636Y0025291D02*
X-0036500D01*
X-0036666Y0025125D01*
X-0036750D01*
X-0036853Y0025022D01*
X-0037507D01*
X-0031427Y0028403D02*
X-0033831Y0026000D01*
X-0034927D01*
X-0035636Y0025291D01*
X-0034339Y-0003069D02*
X-0033842D01*
Y-0007408D01*
X-0033355Y-0007895D01*
Y-0009049D01*
X-0032843Y-0009560D01*
X-0023875Y0025488D02*
Y0025999D01*
X-0023250Y0026625D01*
X-0023125Y0026750D01*
Y0029500D01*
X-0023375Y0029750D01*
X-0024250D01*
X-0025098Y0028902D01*
X-0025777D01*
X-0026117Y0028562D01*
X-0037367Y0030367D02*
X-0036625D01*
Y0029250D01*
X-0036500Y0029125D01*
Y0029000D01*
X-0036375Y0028875D01*
Y0028291D01*
X-0035597D01*
X-0038237Y-0000809D02*
X-0039724D01*
X-0039862Y-0000672D01*
Y0001202D01*
X-0042480Y-0007130D02*
X-0043210Y-0006400D01*
Y-0002244D01*
X-0043072Y-0002107D01*
X-0039862D01*
X-0029427Y0001275D02*
X-0031590D01*
X-0036034Y-0000809D02*
X-0034572D01*
X-0034434Y-0000672D01*
Y0001202D01*
X-0026235Y-0002124D02*
X-0026953Y-0001406D01*
X-0032519D01*
X-0033216Y-0002103D01*
X-0035597Y0028291D02*
X-0036375D01*
X-0036750D01*
X-0037019Y0028022D01*
X-0037507D01*
X-0044722Y0026747D02*
X-0044003D01*
X-0043875Y0026875D01*
X-0042334D01*
X-0041125Y0028084D01*
X-0040233D01*
X-0050268Y0029308D02*
Y0030018D01*
X-0049558D01*
Y0030567D01*
X-0049375Y0030750D01*
X-0045857D01*
X-0045000Y0029893D01*
X-0043857D01*
X-0039862Y-0002107D02*
X-0039176Y-0001421D01*
X-0033898D01*
X-0033216Y-0002103D01*
X-0045071Y0029854D02*
X-0043896D01*
Y0029893D01*
X-0043857D01*
X-0050268Y0029308D02*
Y0030483D01*
X-0050307Y0030523D01*
X-0026235Y-0002124D02*
X-0026332Y-0002221D01*
Y-0003167D01*
X-0037367Y0030367D02*
X-0038125D01*
X-0038166Y0030326D01*
X-0038940D01*
X-0034749Y0004388D02*
Y0003444D01*
X-0048773Y0028045D02*
Y0029000D01*
X-0048734Y0029039D01*
Y0029854D01*
X-0045110Y0028045D02*
X-0045875Y0027280D01*
Y0026250D01*
X-0046419Y0025706D01*
Y0025016D01*
X-0038901Y0028163D02*
X-0040154D01*
X-0040193D01*
Y0028123D01*
X-0040233D01*
Y0028084D01*
X-0028444Y0026550D02*
X-0027250Y0025875D01*
X-0026750Y0026250D01*
X-0026500Y0026750D01*
X-0025875Y0027250D01*
X-0025000Y0027625D01*
X-0024250D01*
X-0023875Y0027999D01*
Y0027488D01*
X-0050268Y0024544D02*
X-0049722D01*
X-0049250Y0025016D01*
X-0048419D01*
X-0031550Y0030011D02*
X-0032250D01*
X-0032375Y0029886D01*
Y0029513D01*
X-0033597Y0028291D01*
X-0034434Y-0002107D02*
X-0034339Y-0002201D01*
Y-0003069D01*
X-0038940Y0029326D02*
X-0038187D01*
X-0038125D01*
X-0038030Y0029421D01*
X-0037367D01*
X-0050268Y0025999D02*
X-0049740D01*
X-0049500Y0025759D01*
Y0025266D01*
X-0049250Y0025016D01*
X-0048419D01*
X-0038940Y0030326D02*
X-0030449Y0025252D02*
X-0031161Y0025964D01*
X-0032924D01*
X-0033597Y0025291D01*
X-0026411Y-0008595D02*
X-0026275Y-0008732D01*
Y-0009600D01*
X-0034597Y0028291D02*
X-0033763Y0029125D01*
X-0033750D01*
X-0032125Y0030750D01*
X-0031125D01*
X-0030875Y0030500D01*
Y0029473D01*
X-0030527Y0029125D01*
Y0028281D01*
X-0050268Y0029308D02*
X-0034142Y-0008458D02*
Y-0009520D01*
X-0034023Y-0009639D01*
X-0045110Y0028045D02*
X-0043935D01*
X-0043896Y0028084D01*
X-0040193Y0029893D02*
Y0028163D01*
Y0028123D01*
X-0040233D01*
Y0028084D01*
X-0031427Y0025095D02*
X-0032400D01*
X-0032597Y0025291D01*
X-0037507Y0025022D02*
X-0037867Y0024663D01*
X-0038901D01*
X-0026411Y-0008595D02*
X-0026846D01*
Y-0008160D01*
X-0026854Y-0008153D01*
Y-0003884D01*
X-0027748Y-0002989D01*
Y-0002064D01*
X-0027110Y0006205D02*
Y0006097D01*
X-0027219D01*
G54D28*
G01X-0017326Y-0004383D02*
Y-0004296D01*
Y-0004339D02*
X-0017588D01*
X-0017545Y-0004296D01*
X-0017326Y-0004151D02*
Y-0004064D01*
Y-0004108D02*
X-0017588D01*
X-0017545Y-0004064D01*
X-0017326Y-0003810D02*
X-0017370Y-0003767D01*
X-0017413Y-0003745D01*
X-0017501D01*
X-0017545Y-0003767D01*
X-0017588Y-0003810D01*
Y-0003854D01*
X-0017545Y-0003898D01*
X-0017501Y-0003920D01*
X-0017413D01*
X-0017370Y-0003898D01*
X-0017326Y-0003854D01*
Y-0003810D01*
Y-0003644D02*
Y-0003469D01*
X-0017501Y-0003644D01*
X-0017545D01*
X-0017588Y-0003622D01*
Y-0003491D01*
X-0017545Y-0003469D01*
X-0017238Y-0002973D02*
X-0017282Y-0002995D01*
X-0017370D01*
Y-0002951D01*
X-0017326D01*
Y-0002995D01*
X-0017370Y-0002610D02*
X-0017326Y-0002632D01*
Y-0002763D01*
X-0017370Y-0002785D01*
X-0017457D01*
X-0017501Y-0002741D01*
Y-0002610D01*
X-0017588D01*
Y-0002785D01*
X-0017326Y-0002510D02*
Y-0002335D01*
X-0017501Y-0002510D01*
X-0017545D01*
X-0017588Y-0002488D01*
Y-0002356D01*
X-0017545Y-0002335D01*
X-0017326Y-0001773D02*
X-0017457D01*
X-0017588Y-0001860D02*
X-0017457Y-0001795D01*
Y-0001751D01*
X-0017588Y-0001685D01*
X-0017413Y-0001585D02*
Y-0001410D01*
X-0017326Y-0001585D02*
X-0017457D01*
X-0017588Y-0001519D01*
Y-0001475D01*
X-0017457Y-0001410D01*
X-0017326D01*
Y-0001309D02*
X-0017588D01*
X-0017545Y-0001265D01*
X-0017457Y-0001222D01*
X-0017545Y-0001178D01*
X-0017588Y-0001134D01*
X-0017326D01*
X-0017303Y-0009990D02*
X-0017260Y-0010012D01*
Y-0010143D01*
X-0017303Y-0010165D01*
X-0017391D01*
X-0017435Y-0010122D01*
Y-0009990D01*
X-0017522D01*
Y-0010165D01*
X-0017347Y-0009890D02*
Y-0009715D01*
X-0017522Y-0009802D01*
Y-0009846D01*
X-0017260D01*
X-0017347Y-0009461D02*
X-0017303D01*
X-0017260Y-0009483D01*
Y-0009571D01*
X-0017303Y-0009593D01*
X-0017522D01*
Y-0009614D02*
Y-0009527D01*
X-0017391Y-0009295D02*
X-0017260Y-0009361D01*
X-0017391Y-0009186D02*
Y-0009317D01*
X-0017435Y-0009361D01*
X-0017478D01*
X-0017522Y-0009317D01*
Y-0009186D01*
X-0017260D01*
X-0017391Y-0008910D02*
Y-0009042D01*
X-0017435Y-0009085D01*
X-0017478D01*
X-0017522Y-0009042D01*
Y-0008910D01*
X-0017260D01*
X-0017172Y-0008810D02*
Y-0008635D01*
X-0017260Y-0008534D02*
X-0017522D01*
X-0017478Y-0008491D01*
X-0017391Y-0008447D01*
X-0017478Y-0008403D01*
X-0017522Y-0008359D01*
X-0017260D01*
Y-0008106D02*
X-0017303Y-0008084D01*
X-0017478D01*
X-0017522Y-0008106D01*
Y-0008237D01*
X-0017478Y-0008259D01*
X-0017303D01*
X-0017260Y-0008237D01*
Y-0008106D01*
X-0017303Y-0007983D02*
X-0017260Y-0007961D01*
Y-0007830D01*
X-0017303Y-0007808D01*
X-0017478D01*
X-0017522Y-0007830D01*
Y-0007961D01*
X-0017478Y-0007983D01*
G54D11*
X-0037760Y-0013786D03*
X-0035636Y-0013864D03*
X-0031191D03*
X-0029067Y-0013825D03*
X-0025173Y-0013943D03*
X-0022499D03*
X-0022538Y0002219D03*
X-0024623D03*
X-0029427Y0002275D03*
X-0031590D03*
X-0036073Y0002371D03*
X-0038248Y0002382D03*
X-0037799Y-0010645D03*
X-0031231Y-0010724D03*
X-0024662Y-0010802D03*
X-0022431Y-0000972D03*
X-0029361Y-0000822D03*
X-0036034Y-0000809D03*
X-0035664Y-0010712D03*
X-0029028Y-0010684D03*
X-0022499Y-0010842D03*
X-0024662Y-0000961D03*
X-0031524Y-0000861D03*
X-0038237Y-0000809D03*
G54D12*
X-0037760Y-0012786D03*
X-0035636Y-0012864D03*
X-0031191D03*
X-0029067Y-0012825D03*
X-0025173Y-0012943D03*
X-0022499D03*
X-0022538Y0001219D03*
X-0024623D03*
X-0029427Y0001275D03*
X-0031590D03*
X-0036073Y0001371D03*
X-0038248Y0001382D03*
X-0037799Y-0011645D03*
X-0031231Y-0011724D03*
X-0024662Y-0011802D03*
X-0022431Y0000028D03*
X-0029361Y0000178D03*
X-0036034Y0000191D03*
X-0035664Y-0011712D03*
X-0029028Y-0011684D03*
X-0022499Y-0011842D03*
X-0024662Y0000039D03*
X-0031524Y0000139D03*
X-0038237Y0000191D03*
G54D13*
X-0038576Y-0004654D03*
X-0038615Y-0006778D03*
X-0021899Y-0004690D03*
X-0021978Y-0006893D03*
X-0035452Y-0004693D03*
X-0025141Y-0006971D03*
X-0035412Y-0006817D03*
X-0025102Y-0004847D03*
G54D14*
X-0037576Y-0004654D03*
X-0037615Y-0006778D03*
X-0022899Y-0004690D03*
X-0022978Y-0006893D03*
X-0036452Y-0004693D03*
X-0024141Y-0006971D03*
X-0036412Y-0006817D03*
X-0024102Y-0004847D03*
G54D15*
X-0027219Y0028281D03*
X-0030527D03*
X-0028241Y0030011D03*
X-0031550D03*
X-0027140Y0025252D03*
X-0030449D03*
X-0031427Y0025095D03*
Y0028403D03*
X-0038901Y0028163D03*
Y0024663D03*
X-0050268Y0025999D03*
Y0029308D03*
X-0028444Y0026550D03*
X-0029444Y0027300D03*
X-0030444Y0026550D03*
X-0026117Y0028562D03*
X-0025367Y0029562D03*
X-0026117Y0030562D03*
X-0027213Y0026707D03*
X-0026213Y0025957D03*
X-0025213Y0026707D03*
X-0035636Y0025291D03*
X-0034597D03*
X-0033597D03*
X-0032597D03*
Y0028291D03*
X-0033597D03*
X-0034597D03*
X-0035597D03*
X-0037507Y0025022D03*
X-0038940Y0030326D03*
Y0029326D03*
X-0037367Y0029421D03*
Y0030367D03*
X-0044722Y0026747D03*
Y0025092D03*
X-0034142Y-0008458D03*
X-0037451D03*
X-0034339Y-0003069D03*
X-0037648D03*
X-0040709Y-0004050D03*
Y-0007359D03*
X-0039686Y-0004050D03*
Y-0007359D03*
X-0034023Y-0009639D03*
Y-0012948D03*
X-0039412Y-0009482D03*
Y-0012790D03*
X-0037959Y-0016009D03*
X-0034650D03*
X-0037959Y-0014947D03*
X-0034650D03*
X-0027376Y-0009639D03*
Y-0012948D03*
X-0032843Y-0009560D03*
Y-0012869D03*
X-0033352Y-0017466D03*
Y-0014158D03*
X-0027216Y-0017466D03*
Y-0014158D03*
X-0020886Y-0009678D03*
Y-0012987D03*
X-0026275Y-0009600D03*
Y-0012908D03*
X-0026238Y-0016048D03*
X-0022929D03*
X-0026238Y-0015025D03*
X-0022929D03*
X-0026332Y-0003167D03*
X-0023024D03*
X-0026411Y-0008595D03*
X-0023102D03*
X-0020789Y-0007300D03*
Y-0003991D03*
X-0019687Y-0007300D03*
Y-0003991D03*
X-0026235Y-0002124D03*
Y0001185D03*
X-0020847Y-0002163D03*
Y0001145D03*
X-0022378Y0004482D03*
X-0025687D03*
X-0022378Y0003380D03*
X-0025687D03*
X-0033216Y-0002103D03*
Y0001205D03*
X-0027748Y-0002064D03*
Y0001245D03*
X-0027219Y0006097D03*
Y0002788D03*
X-0033709Y0005782D03*
Y0002473D03*
X-0039862Y-0002107D03*
Y0001202D03*
X-0034434Y-0002107D03*
Y0001202D03*
X-0034749Y0004388D03*
X-0038057D03*
X-0034749Y0003444D03*
X-0038057D03*
G54D18*
X-0048419Y0025016D03*
X-0046419D03*
X-0048773Y0028045D03*
X-0045110D03*
X-0043896Y0028084D03*
X-0040233D03*
X-0048734Y0029854D03*
X-0045071D03*
X-0043857Y0029893D03*
X-0040193D03*
X-0050268Y0024544D03*
X-0050307Y0030523D03*
G54D19*
X-0037507Y0028022D03*
G54D22*
X-0023875Y0025999D03*
Y0026999D03*
Y0027999D03*
Y0028999D03*
X-0042480Y-0004130D03*
Y-0005130D03*
Y-0006130D03*
Y-0007130D03*
G54D23*
X-0028045Y-0004169D03*
Y-0007473D03*
X-0031899Y-0008103D03*
X-0032411Y-0004130D03*
X-0036383Y-0019313D03*
X-0036855Y-0018841D03*
X-0037327Y-0018369D03*
X-0037799Y-0017857D03*
X-0038311Y-0017385D03*
X-0038783Y-0016913D03*
X-0039255Y-0016441D03*
X-0039727Y-0015930D03*
X-0040199Y-0015419D03*
X-0040710Y-0014947D03*
X-0041182Y-0014435D03*
X-0041654Y-0013963D03*
X-0042165Y-0013491D03*
X-0042637Y-0013019D03*
X-0043109Y-0012508D03*
X-0043621Y-0012036D03*
X-0023836Y-0019234D03*
X-0023325Y-0018762D03*
X-0022853Y-0018290D03*
X-0022381Y-0017818D03*
X-0021909Y-0017307D03*
X-0021397Y-0016835D03*
X-0020925Y-0016323D03*
X-0020453Y-0015851D03*
X-0019981Y-0015379D03*
X-0019470Y-0014907D03*
X-0018998Y-0014396D03*
X-0018487Y-0013924D03*
X-0018015Y-0013413D03*
X-0017503Y-0012941D03*
X-0017031Y-0012429D03*
X-0016520Y-0011957D03*
X-0016638Y0000393D03*
X-0017149Y0000865D03*
X-0017582Y0001377D03*
X-0018093Y0001849D03*
X-0018565Y0002360D03*
X-0019037Y0002832D03*
X-0019549Y0003304D03*
X-0020060Y0003776D03*
X-0020532Y0004287D03*
X-0021043Y0004759D03*
X-0021515Y0005231D03*
X-0021987Y0005743D03*
X-0022459Y0006215D03*
X-0022931Y0006687D03*
X-0023403Y0007198D03*
X-0023915Y0007670D03*
X-0036462Y0007631D03*
X-0036973Y0007159D03*
X-0037445Y0006647D03*
X-0037957Y0006175D03*
X-0038429Y0005703D03*
X-0038901Y0005192D03*
X-0039373Y0004759D03*
X-0039845Y0004248D03*
X-0040356Y0003776D03*
X-0040828Y0003304D03*
X-0041339Y0002793D03*
X-0041811Y0002281D03*
X-0042283Y0001809D03*
X-0042755Y0001298D03*
X-0043267Y0000826D03*
X-0043699Y0000315D03*
X-0031231Y-0008339D03*
X-0030523D03*
X-0029815D03*
X-0029107D03*
X-0028517Y-0007985D03*
X-0027651Y-0006883D03*
Y-0006175D03*
Y-0005467D03*
Y-0004759D03*
X-0028477Y-0003619D03*
X-0029107Y-0003422D03*
X-0029815D03*
X-0030523D03*
X-0031231D03*
X-0032293Y-0007513D03*
X-0032647Y-0006923D03*
Y-0006215D03*
Y-0005507D03*
Y-0004799D03*
X-0031899Y-0003697D03*
G54D24*
X-0030169Y-0017661D03*
X-0030129Y0005861D03*
M02*
