*
G04 Mass Parameters ***
*
G04 Image ***
*
%IND:\DANH\ORCADP~1\COMERC~1\COF0C4~1\COM_PR~3.DRD*%
%ICAS*%
%MOIN*%
%IPPOS*%
%ASAXBY*%
G74*%FSLAN2X34Y34*%
*
G04 Aperture Definitions ***
*
%ADD10C,0.0620*%
%ADD11O,0.0787X0.0709*%
%ADD12R,0.0787X0.0709*%
%ADD13O,0.0709X0.0787*%
%ADD14R,0.0709X0.0787*%
%ADD15C,0.0799*%
%ADD16C,0.0709*%
%ADD17C,0.3150*%
%ADD18C,0.1039*%
%ADD19R,0.0799X0.0799*%
%ADD20C,0.0010*%
%ADD21C,0.0100*%
%ADD22C,0.0827*%
%ADD23R,0.0709X0.0709*%
%ADD24R,0.3150X0.3150*%
%ADD25C,0.0080*%
%ADD26C,0.0118*%
%ADD27C,0.0120*%
%ADD28C,0.0039*%
%ADD29C,0.0700*%
%ADD30C,0.0720*%
%ADD31R,0.0720X0.0720*%
%ADD32C,0.0787*%
%ADD33C,0.0900*%
%ADD34C,0.0790*%
%ADD35C,0.1181*%
%ADD36C,0.0984*%
%ADD37R,0.0984X0.0984*%
%ADD38C,0.0670*%
%ADD39C,0.0520*%
%ADD40R,0.0520X0.0520*%
%ADD41C,0.0079*%
%ADD42C,0.0020*%
%ADD43C,0.0090*%
%ADD44C,0.0083*%
%ADD45C,0.0550*%
%ADD46R,0.0550X0.0550*%
*
G04 Plot Data ***
*
G54D21*
G01X0024041Y-0014167D02*
X0024125Y-0014333D01*
X0024625D01*
X0024708Y-0014167D01*
Y-0013833D01*
X0024541Y-0013667D01*
X0024042D01*
X0024041D02*
X0024042Y-0013333D01*
X0024041D02*
X0024708D01*
X0023258Y-0014333D02*
X0023758Y-0013333D01*
X0023092D01*
X0022808Y-0014333D02*
X0022142D01*
X0022141D02*
X0022808Y-0013667D01*
Y-0013500D01*
X0022725Y-0013333D01*
X0022225D01*
X0022142Y-0013500D01*
X0012312Y-0014333D02*
X0011729D01*
Y-0013333D01*
X0011446Y-0014000D02*
X0010779D01*
X0011446Y-0014333D02*
Y-0013833D01*
X0011196Y-0013333D01*
X0011029D01*
X0010779Y-0013833D01*
Y-0014333D01*
X0010162D02*
Y-0013333D01*
X0010496D02*
X0009829D01*
X0008962Y-0014333D02*
X0008879Y-0014167D01*
Y-0013500D01*
X0008962Y-0013333D01*
X0009462D01*
X0009546Y-0013500D01*
Y-0014167D01*
X0009462Y-0014333D01*
X0008962D01*
X0008262D02*
Y-0013333D01*
X0008596D02*
X0007929D01*
X0024708Y-0012472D02*
X0024264D01*
X0024708Y-0012028D01*
Y-0011917D01*
X0024653Y-0011806D01*
X0024319D01*
X0024264Y-0011917D01*
X0010869Y-0012472D02*
Y-0012139D01*
X0011092Y-0012472D02*
Y-0012139D01*
X0011036Y-0012028D01*
X0010925D01*
X0010869Y-0012139D01*
X0010814Y-0012028D01*
X0010703D01*
X0010647Y-0012139D01*
Y-0012472D01*
X0010169D02*
Y-0012139D01*
X0010392Y-0012472D02*
Y-0012139D01*
X0010336Y-0012028D01*
X0010225D01*
X0010169Y-0012139D01*
X0010114Y-0012028D01*
X0010003D01*
X0009947Y-0012139D01*
Y-0012472D01*
X0008686Y-0012139D02*
X0008353D01*
X0008297Y-0012028D01*
Y-0011917D01*
X0008353Y-0011806D01*
X0008686D01*
X0008742Y-0011917D01*
Y-0012028D01*
X0008519Y-0012472D01*
X0007986Y-0012139D02*
X0007653D01*
X0007597Y-0012028D01*
Y-0011917D01*
X0007653Y-0011806D01*
X0007986D01*
X0008042Y-0011917D01*
Y-0012028D01*
X0007819Y-0012472D01*
X0007342D02*
X0006897D01*
X0007342Y-0012028D01*
Y-0011917D01*
X0007286Y-0011806D01*
X0006953D01*
X0006897Y-0011917D01*
X0006530Y-0012472D02*
X0006642D01*
Y-0012361D01*
X0006531D01*
X0006530D02*
X0006531Y-0012472D01*
X0005719Y-0012361D02*
X0005831Y-0012472D01*
X0005830D02*
X0006053D01*
X0006164Y-0012361D01*
Y-0012250D01*
X0005942Y-0012028D01*
X0006164Y-0011806D01*
X0005719D01*
X0024708Y-0010972D02*
X0024264D01*
X0024708Y-0010528D01*
Y-0010417D01*
X0024653Y-0010306D01*
X0024319D01*
X0024264Y-0010417D01*
X0024008Y-0010972D02*
X0023786D01*
X0023897D02*
Y-0010306D01*
X0023786Y-0010417D01*
X0010869Y-0010972D02*
Y-0010639D01*
X0011092Y-0010972D02*
Y-0010639D01*
X0011036Y-0010528D01*
X0010925D01*
X0010869Y-0010639D01*
X0010814Y-0010528D01*
X0010703D01*
X0010647Y-0010639D01*
Y-0010972D01*
X0010169D02*
Y-0010639D01*
X0010392Y-0010972D02*
Y-0010639D01*
X0010336Y-0010528D01*
X0010225D01*
X0010169Y-0010639D01*
X0010114Y-0010528D01*
X0010003D01*
X0009947Y-0010639D01*
Y-0010972D01*
X0008686Y-0010639D02*
X0008353D01*
X0008297Y-0010528D01*
Y-0010417D01*
X0008353Y-0010306D01*
X0008686D01*
X0008742Y-0010417D01*
Y-0010528D01*
X0008519Y-0010972D01*
X0008042D02*
X0007597D01*
X0008042Y-0010528D01*
Y-0010417D01*
X0007986Y-0010306D01*
X0007653D01*
X0007597Y-0010417D01*
X0007064Y-0010972D02*
X0006953Y-0010861D01*
X0006897Y-0010750D01*
Y-0010528D01*
X0006953Y-0010417D01*
X0007064Y-0010306D01*
X0007175D01*
X0007286Y-0010417D01*
X0007342Y-0010528D01*
Y-0010750D01*
X0007286Y-0010861D01*
X0007175Y-0010972D01*
X0007064D01*
X0006530D02*
X0006642D01*
Y-0010861D01*
X0006531D01*
X0006530D02*
X0006531Y-0010972D01*
X0006164D02*
X0005719D01*
X0006164Y-0010528D01*
Y-0010417D01*
X0006108Y-0010306D01*
X0005775D01*
X0005719Y-0010417D01*
X0024653Y-0009139D02*
X0024708Y-0009028D01*
Y-0008917D01*
X0024653Y-0008806D01*
X0024319D01*
X0024264Y-0008917D01*
Y-0009028D01*
X0024319Y-0009139D01*
X0024653D01*
X0024708Y-0009250D01*
Y-0009361D01*
X0024653Y-0009472D01*
X0024319D01*
X0024264Y-0009361D01*
Y-0009250D01*
X0024319Y-0009139D01*
X0023953D02*
X0024008Y-0009028D01*
Y-0008917D01*
X0023953Y-0008806D01*
X0023619D01*
X0023564Y-0008917D01*
Y-0009028D01*
X0023619Y-0009139D01*
X0023953D01*
X0024008Y-0009250D01*
Y-0009361D01*
X0023953Y-0009472D01*
X0023619D01*
X0023564Y-0009361D01*
Y-0009250D01*
X0023619Y-0009139D01*
X0010869Y-0009472D02*
Y-0009139D01*
X0011092Y-0009472D02*
Y-0009139D01*
X0011036Y-0009028D01*
X0010925D01*
X0010869Y-0009139D01*
X0010814Y-0009028D01*
X0010703D01*
X0010647Y-0009139D01*
Y-0009472D01*
X0010169D02*
Y-0009139D01*
X0010392Y-0009472D02*
Y-0009139D01*
X0010336Y-0009028D01*
X0010225D01*
X0010169Y-0009139D01*
X0010114Y-0009028D01*
X0010003D01*
X0009947Y-0009139D01*
Y-0009472D01*
X0008464D02*
X0008353Y-0009361D01*
X0008297Y-0009250D01*
Y-0009028D01*
X0008353Y-0008917D01*
X0008464Y-0008806D01*
X0008575D01*
X0008686Y-0008917D01*
X0008742Y-0009028D01*
Y-0009250D01*
X0008686Y-0009361D01*
X0008575Y-0009472D01*
X0008464D01*
X0007764D02*
X0007653Y-0009361D01*
X0007597Y-0009250D01*
Y-0009028D01*
X0007653Y-0008917D01*
X0007764Y-0008806D01*
X0007875D01*
X0007986Y-0008917D01*
X0008042Y-0009028D01*
Y-0009250D01*
X0007986Y-0009361D01*
X0007875Y-0009472D01*
X0007764D01*
X0007286Y-0009139D02*
X0007342Y-0009028D01*
Y-0008917D01*
X0007286Y-0008806D01*
X0006953D01*
X0006897Y-0008917D01*
Y-0009028D01*
X0006953Y-0009139D01*
X0007286D01*
X0007342Y-0009250D01*
Y-0009361D01*
X0007286Y-0009472D01*
X0006953D01*
X0006897Y-0009361D01*
Y-0009250D01*
X0006953Y-0009139D01*
X0006530Y-0009472D02*
X0006642D01*
Y-0009361D01*
X0006531D01*
X0006530D02*
X0006531Y-0009472D01*
X0006164D02*
X0005942D01*
X0006053D02*
Y-0008806D01*
X0005942Y-0008917D01*
X0024708Y-0007972D02*
X0024486D01*
X0024597D02*
Y-0007306D01*
X0024486Y-0007417D01*
X0023842Y-0007972D02*
X0023730Y-0007861D01*
X0023675Y-0007750D01*
Y-0007528D01*
X0023730Y-0007417D01*
X0023842Y-0007306D01*
X0023953D01*
X0024064Y-0007417D01*
X0024119Y-0007528D01*
Y-0007750D01*
X0024064Y-0007861D01*
X0023953Y-0007972D01*
X0023842D01*
X0023419D02*
X0023197D01*
X0023308D02*
Y-0007306D01*
X0023197Y-0007417D01*
X0010869Y-0007972D02*
Y-0007639D01*
X0011092Y-0007972D02*
Y-0007639D01*
X0011036Y-0007528D01*
X0010925D01*
X0010869Y-0007639D01*
X0010814Y-0007528D01*
X0010703D01*
X0010647Y-0007639D01*
Y-0007972D01*
X0010169D02*
Y-0007639D01*
X0010392Y-0007972D02*
Y-0007639D01*
X0010336Y-0007528D01*
X0010225D01*
X0010169Y-0007639D01*
X0010114Y-0007528D01*
X0010003D01*
X0009947Y-0007639D01*
Y-0007972D01*
X0008464D02*
X0008353Y-0007861D01*
X0008297Y-0007750D01*
Y-0007528D01*
X0008353Y-0007417D01*
X0008464Y-0007306D01*
X0008575D01*
X0008686Y-0007417D01*
X0008742Y-0007528D01*
Y-0007750D01*
X0008686Y-0007861D01*
X0008575Y-0007972D01*
X0008464D01*
X0008042Y-0007750D02*
X0007597D01*
X0007819Y-0007306D01*
X0007930D01*
Y-0007972D01*
X0006953Y-0007639D02*
X0007286D01*
X0007342Y-0007750D01*
Y-0007861D01*
X0007286Y-0007972D01*
X0006953D01*
X0006897Y-0007861D01*
Y-0007750D01*
X0007119Y-0007306D01*
X0006530Y-0007972D02*
X0006642D01*
Y-0007861D01*
X0006531D01*
X0006530D02*
X0006531Y-0007972D01*
X0006164D02*
X0005942D01*
X0006053D02*
Y-0007306D01*
X0005942Y-0007417D01*
X0024653Y-0006139D02*
X0024708Y-0006028D01*
Y-0005917D01*
X0024653Y-0005806D01*
X0024319D01*
X0024264Y-0005917D01*
Y-0006028D01*
X0024319Y-0006139D01*
X0024653D01*
X0024708Y-0006250D01*
Y-0006361D01*
X0024653Y-0006472D01*
X0024319D01*
X0024264Y-0006361D01*
Y-0006250D01*
X0024319Y-0006139D01*
X0010869Y-0006472D02*
Y-0006139D01*
X0011092Y-0006472D02*
Y-0006139D01*
X0011036Y-0006028D01*
X0010925D01*
X0010869Y-0006139D01*
X0010814Y-0006028D01*
X0010703D01*
X0010647Y-0006139D01*
Y-0006472D01*
X0010169D02*
Y-0006139D01*
X0010392Y-0006472D02*
Y-0006139D01*
X0010336Y-0006028D01*
X0010225D01*
X0010169Y-0006139D01*
X0010114Y-0006028D01*
X0010003D01*
X0009947Y-0006139D01*
Y-0006472D01*
X0008297Y-0006361D02*
X0008353Y-0006472D01*
X0008686D01*
X0008742Y-0006361D01*
Y-0006139D01*
X0008630Y-0006028D01*
X0008297D01*
Y-0005806D01*
X0008742D01*
X0007653Y-0006139D02*
X0007986D01*
X0008042Y-0006250D01*
Y-0006361D01*
X0007986Y-0006472D01*
X0007653D01*
X0007597Y-0006361D01*
Y-0006250D01*
X0007819Y-0005806D01*
X0007286Y-0006139D02*
X0006953D01*
X0006897Y-0006028D01*
Y-0005917D01*
X0006953Y-0005806D01*
X0007286D01*
X0007342Y-0005917D01*
Y-0006028D01*
X0007119Y-0006472D01*
X0006530D02*
X0006642D01*
Y-0006361D01*
X0006531D01*
X0006530D02*
X0006531Y-0006472D01*
X0005886D02*
X0005775Y-0006361D01*
X0005719Y-0006250D01*
Y-0006028D01*
X0005775Y-0005917D01*
X0005886Y-0005806D01*
X0005997D01*
X0006108Y-0005917D01*
X0006164Y-0006028D01*
Y-0006250D01*
X0006108Y-0006361D01*
X0005997Y-0006472D01*
X0005886D01*
X0024708Y-0004750D02*
X0024264D01*
X0024486Y-0004306D01*
X0024597D01*
Y-0004972D01*
X0023619Y-0004639D02*
X0023953D01*
X0024008Y-0004750D01*
Y-0004861D01*
X0023953Y-0004972D01*
X0023619D01*
X0023564Y-0004861D01*
Y-0004750D01*
X0023786Y-0004306D01*
X0010869Y-0004972D02*
Y-0004639D01*
X0011092Y-0004972D02*
Y-0004639D01*
X0011036Y-0004528D01*
X0010925D01*
X0010869Y-0004639D01*
X0010814Y-0004528D01*
X0010703D01*
X0010647Y-0004639D01*
Y-0004972D01*
X0010169D02*
Y-0004639D01*
X0010392Y-0004972D02*
Y-0004639D01*
X0010336Y-0004528D01*
X0010225D01*
X0010169Y-0004639D01*
X0010114Y-0004528D01*
X0010003D01*
X0009947Y-0004639D01*
Y-0004972D01*
X0008408D02*
X0008742Y-0004306D01*
X0008297D01*
X0007986Y-0004639D02*
X0008042Y-0004528D01*
Y-0004417D01*
X0007986Y-0004306D01*
X0007653D01*
X0007597Y-0004417D01*
Y-0004528D01*
X0007653Y-0004639D01*
X0007986D01*
X0008042Y-0004750D01*
Y-0004861D01*
X0007986Y-0004972D01*
X0007653D01*
X0007597Y-0004861D01*
Y-0004750D01*
X0007653Y-0004639D01*
X0007008Y-0004972D02*
X0007342Y-0004306D01*
X0006897D01*
X0006530Y-0004972D02*
X0006642D01*
Y-0004861D01*
X0006531D01*
X0006530D02*
X0006531Y-0004972D01*
X0005886D02*
X0005775Y-0004861D01*
X0005719Y-0004750D01*
Y-0004528D01*
X0005775Y-0004417D01*
X0005886Y-0004306D01*
X0005997D01*
X0006108Y-0004417D01*
X0006164Y-0004528D01*
Y-0004750D01*
X0006108Y-0004861D01*
X0005997Y-0004972D01*
X0005886D01*
X0033112Y-0002833D02*
X0032612D01*
X0033279Y-0003333D02*
X0032612D01*
Y-0002333D01*
X0033279D01*
X0031996Y-0003333D02*
Y-0002333D01*
X0032329D02*
X0031662D01*
X0030795Y-0003333D02*
X0030712Y-0003167D01*
Y-0002500D01*
X0030796Y-0002333D01*
X0030795D02*
X0031296D01*
X0031295D02*
X0031379Y-0002500D01*
Y-0003167D01*
X0031296Y-0003333D01*
X0031295D02*
X0030796D01*
X0030429Y-0002333D02*
Y-0003333D01*
X0030262Y-0003167D01*
X0029929Y-0002500D01*
X0029762Y-0002333D01*
Y-0003333D01*
X0023925D02*
Y-0002833D01*
X0024258Y-0002333D02*
X0024008Y-0002833D01*
X0023842D01*
X0023841D02*
X0023592Y-0002333D01*
X0022975Y-0003333D02*
Y-0002333D01*
X0023308D02*
X0022642D01*
X0022025Y-0003000D02*
X0022358Y-0003333D01*
X0021691Y-0003167D02*
X0021775Y-0003333D01*
X0022108D01*
X0022191Y-0003167D01*
X0022358Y-0003000D01*
Y-0002500D01*
X0022275Y-0002333D01*
X0021775D01*
X0021692Y-0002500D01*
X0021691D02*
X0021692Y-0003167D01*
X0017408Y-0003333D02*
X0016825D01*
Y-0002333D01*
X0015958Y-0003333D02*
X0015875Y-0003167D01*
Y-0002500D01*
X0015958Y-0002333D01*
X0016458D01*
X0016542Y-0002500D01*
Y-0003167D01*
X0016458Y-0003333D01*
X0015958D01*
X0015258D02*
Y-0002333D01*
X0015592D02*
X0014925D01*
X0009587Y-0003333D02*
Y-0002333D01*
X0009420Y-0002500D01*
X0009254Y-0002833D01*
X0009087Y-0002500D01*
X0008921Y-0002333D01*
X0008920D02*
X0008921Y-0003333D01*
X0008637Y-0003000D02*
X0007971D01*
X0008637Y-0003333D02*
Y-0002833D01*
X0008387Y-0002333D01*
X0008221D01*
X0008220D02*
X0007971Y-0002833D01*
X0007970D02*
X0007971Y-0003333D01*
X0007687D02*
X0007354D01*
X0007521D02*
Y-0002333D01*
X0007687D02*
X0007354D01*
X0006321Y-0003333D02*
Y-0002333D01*
X0006237Y-0003333D02*
X0006737D01*
X0006904Y-0003000D01*
Y-0002667D01*
X0006737Y-0002333D01*
X0006237D01*
X0003150Y-0003333D02*
Y-0002333D01*
X0002983Y-0002500D01*
X0002817Y-0002833D01*
X0002650Y-0002500D01*
X0002483Y-0002333D01*
Y-0003333D01*
X0001867D02*
Y-0002833D01*
X0002200Y-0002333D02*
X0001950Y-0002833D01*
X0001783D01*
X0001533Y-0002333D01*
X0001250Y-0002500D02*
X0001167Y-0002333D01*
X0001166D02*
X0000667D01*
X0000666D02*
X0000583Y-0002500D01*
Y-0002667D01*
X0000667Y-0002833D01*
X0000666D02*
X0001167D01*
X0001166D02*
X0001250Y-0003000D01*
Y-0003167D01*
X0001167Y-0003333D01*
X0001166D02*
X0000667D01*
X0000666D02*
X0000583Y-0003167D01*
X0023437Y-0001333D02*
Y-0000333D01*
X0023770D02*
X0023104D01*
X0022570Y-0000833D02*
X0022820Y-0001333D01*
X0022154Y-0000833D02*
X0022654D01*
X0022820Y-0000667D01*
Y-0000500D01*
X0022654Y-0000333D01*
X0022154D01*
Y-0001333D01*
X0021870Y-0001000D02*
X0021204D01*
X0021870Y-0001333D02*
Y-0000833D01*
X0021620Y-0000333D01*
X0021454D01*
X0021204Y-0000833D01*
Y-0001333D01*
X0020920Y-0000833D02*
X0020254D01*
X0020920Y-0001333D02*
Y-0000333D01*
X0020254Y-0001333D02*
Y-0000333D01*
X0019970Y-0001167D02*
X0019887Y-0001333D01*
X0019387D01*
X0019304Y-0001167D01*
Y-0000500D01*
X0019387Y-0000333D01*
X0019887D01*
X0019970Y-0000500D01*
X0017695Y-0001333D02*
X0017112D01*
Y-0000333D01*
X0016829Y-0001333D02*
X0016246D01*
Y-0000333D01*
X0015962Y-0001333D02*
X0015629D01*
X0015796D02*
Y-0000333D01*
X0015962D02*
X0015629D01*
X0014929Y-0000833D02*
X0015179Y-0001333D01*
X0014512Y-0000833D02*
X0015012D01*
X0015179Y-0000667D01*
Y-0000500D01*
X0015012Y-0000333D01*
X0014513D01*
X0014512D02*
X0014513Y-0001333D01*
X0013646D02*
Y-0000333D01*
X0013562Y-0001333D02*
X0014062D01*
X0014229Y-0001000D01*
Y-0000667D01*
X0014062Y-0000333D01*
X0013563D01*
X0001575Y-0012000D02*
Y-0012500D01*
X0002075Y-0012000D02*
X0001575D01*
X0002075Y-0012500D02*
Y-0012000D01*
X0001575Y-0012500D02*
X0002075D01*
Y-0012250D02*
X0001575D01*
X0001825Y-0012000D02*
Y-0012500D01*
X0001575Y-0010500D02*
Y-0010750D01*
X0001825Y-0010500D02*
X0001575D01*
X0001825Y-0011000D02*
Y-0010500D01*
X0002075Y-0011000D02*
X0001825D01*
X0002075Y-0010750D02*
Y-0011000D01*
X0001575Y-0010750D02*
X0002075D01*
X0001825Y-0009000D02*
X0001575Y-0009250D01*
X0002075D02*
X0001825Y-0009000D01*
Y-0009500D02*
X0002075Y-0009250D01*
X0001575D02*
X0001825Y-0009500D01*
X0002075Y-0007500D02*
X0001575Y-0008000D01*
X0002075D02*
X0001575Y-0007500D01*
X0002075Y-0006250D02*
X0001575D01*
X0001825Y-0006000D02*
Y-0006500D01*
X0001575Y-0004500D02*
Y-0005000D01*
X0002075Y-0004500D02*
X0001575D01*
X0002075Y-0005000D02*
Y-0004500D01*
X0001575Y-0005000D02*
X0002075D01*
Y-0004500D02*
X0001575Y-0005000D01*
X0002075D02*
X0001575Y-0004500D01*
X0037300Y-0015050D02*
X-0000050D01*
X0037250Y-0015000D02*
X0000000D01*
X0037250Y-0013000D02*
X0000000D01*
X0037250Y-0011500D02*
X0000000D01*
X0037250Y-0010000D02*
X0000000D01*
X0037250Y-0008500D02*
X0000000D01*
X0037250Y-0007000D02*
X0000000D01*
X0037250Y-0005500D02*
X0000000D01*
X0037250Y-0004000D02*
X0000000D01*
X0037250Y-0003950D02*
X0000000D01*
X0037250Y-0002000D02*
X0000000D01*
X0037250Y-0001950D02*
X0000000D01*
X0037250Y0000000D02*
X0000000D01*
X0037300Y0000050D02*
X-0000050D01*
X0037300Y-0015000D02*
Y0000000D01*
X0037250Y-0015000D02*
Y0000000D01*
X0025708Y-0015000D02*
Y-0002000D01*
X0020158Y-0015000D02*
Y-0002000D01*
X0012092Y-0013000D02*
Y-0002000D01*
X0003700Y-0013000D02*
Y-0002000D01*
X0003650Y-0013000D02*
Y-0002000D01*
X-0000050Y-0015000D02*
Y0000000D01*
X0000000Y-0015000D02*
Y0000000D01*
X-0026969Y0028531D02*
X-0027469Y0028031D01*
X-0026969D02*
X-0027469Y0028531D01*
X-0030277D02*
X-0030777Y0028031D01*
X-0030277D02*
X-0030777Y0028531D01*
X-0027991Y0030261D02*
X-0028491Y0029761D01*
X-0027991D02*
X-0028491Y0030261D01*
X-0031300D02*
X-0031800Y0029761D01*
X-0031300D02*
X-0031800Y0030261D01*
X-0026890Y0025502D02*
X-0027390Y0025002D01*
X-0026890D02*
X-0027390Y0025502D01*
X-0030199D02*
X-0030699Y0025002D01*
X-0030199D02*
X-0030699Y0025502D01*
X-0031177Y0025345D02*
X-0031677Y0024845D01*
X-0031177D02*
X-0031677Y0025345D01*
X-0031177Y0028653D02*
X-0031677Y0028153D01*
X-0031177D02*
X-0031677Y0028653D01*
X-0038651Y0028413D02*
X-0039151Y0027913D01*
X-0038651D02*
X-0039151Y0028413D01*
X-0038651Y0024913D02*
X-0039151Y0024413D01*
X-0038651D02*
X-0039151Y0024913D01*
X-0050018Y0026249D02*
X-0050518Y0025749D01*
X-0050018D02*
X-0050518Y0026249D01*
X-0050018Y0029558D02*
X-0050518Y0029058D01*
X-0050018D02*
X-0050518Y0029558D01*
X-0028194Y0026800D02*
X-0028694Y0026300D01*
X-0028194D02*
X-0028694Y0026800D01*
X-0029194Y0027550D02*
X-0029694Y0027050D01*
X-0029194D02*
X-0029694Y0027550D01*
X-0030194Y0026800D02*
X-0030694Y0026300D01*
X-0030194D02*
X-0030694Y0026800D01*
X-0025867Y0028812D02*
X-0026367Y0028312D01*
X-0025867D02*
X-0026367Y0028812D01*
X-0025117Y0029812D02*
X-0025617Y0029312D01*
X-0025117D02*
X-0025617Y0029812D01*
X-0025867Y0030812D02*
X-0026367Y0030312D01*
X-0025867D02*
X-0026367Y0030812D01*
X-0026963Y0026957D02*
X-0027463Y0026457D01*
X-0026963D02*
X-0027463Y0026957D01*
X-0025963Y0026207D02*
X-0026463Y0025707D01*
X-0025963D02*
X-0026463Y0026207D01*
X-0024963Y0026957D02*
X-0025463Y0026457D01*
X-0024963D02*
X-0025463Y0026957D01*
X-0023625Y0025999D02*
X-0024125D01*
X-0023875Y0026249D02*
Y0025749D01*
X-0023625Y0026999D02*
X-0024125D01*
X-0023875Y0027249D02*
Y0026749D01*
X-0023625Y0027999D02*
X-0024125D01*
X-0023875Y0028249D02*
Y0027749D01*
X-0023625Y0028999D02*
X-0024125D01*
X-0023875Y0029249D02*
Y0028749D01*
X-0048669Y0025266D02*
Y0025016D01*
X-0048419Y0025266D02*
X-0048669D01*
X-0048419Y0024766D02*
Y0025266D01*
X-0048169Y0024766D02*
X-0048419D01*
X-0048169Y0025016D02*
Y0024766D01*
X-0048669Y0025016D02*
X-0048169D01*
X-0046669Y0025266D02*
Y0025016D01*
X-0046419Y0025266D02*
X-0046669D01*
X-0046419Y0024766D02*
Y0025266D01*
X-0046169Y0024766D02*
X-0046419D01*
X-0046169Y0025016D02*
Y0024766D01*
X-0046669Y0025016D02*
X-0046169D01*
X-0035386Y0025541D02*
X-0035886Y0025041D01*
X-0035386D02*
X-0035886Y0025541D01*
X-0034347D02*
X-0034847Y0025041D01*
X-0034347D02*
X-0034847Y0025541D01*
X-0033347D02*
X-0033847Y0025041D01*
X-0033347D02*
X-0033847Y0025541D01*
X-0032347D02*
X-0032847Y0025041D01*
X-0032347D02*
X-0032847Y0025541D01*
X-0032347Y0028541D02*
X-0032847Y0028041D01*
X-0032347D02*
X-0032847Y0028541D01*
X-0033347D02*
X-0033847Y0028041D01*
X-0033347D02*
X-0033847Y0028541D01*
X-0034347D02*
X-0034847Y0028041D01*
X-0034347D02*
X-0034847Y0028541D01*
X-0035347D02*
X-0035847Y0028041D01*
X-0035347D02*
X-0035847Y0028541D01*
X-0037257Y0028272D02*
X-0037757Y0027772D01*
X-0037257D02*
X-0037757Y0028272D01*
X-0037257Y0025272D02*
X-0037757Y0024772D01*
X-0037257D02*
X-0037757Y0025272D01*
X-0049023Y0028295D02*
Y0028045D01*
X-0048773Y0028295D02*
X-0049023D01*
X-0048773Y0027795D02*
Y0028295D01*
X-0048523Y0027795D02*
X-0048773D01*
X-0048523Y0028045D02*
Y0027795D01*
X-0049023Y0028045D02*
X-0048523D01*
X-0045360Y0028295D02*
Y0028045D01*
X-0045110Y0028295D02*
X-0045360D01*
X-0045110Y0027795D02*
Y0028295D01*
X-0044860Y0027795D02*
X-0045110D01*
X-0044860Y0028045D02*
Y0027795D01*
X-0045360Y0028045D02*
X-0044860D01*
X-0044146Y0028334D02*
Y0028084D01*
X-0043896Y0028334D02*
X-0044146D01*
X-0043896Y0027834D02*
Y0028334D01*
X-0043646Y0027834D02*
X-0043896D01*
X-0043646Y0028084D02*
Y0027834D01*
X-0044146Y0028084D02*
X-0043646D01*
X-0040483Y0028334D02*
Y0028084D01*
X-0040233Y0028334D02*
X-0040483D01*
X-0040233Y0027834D02*
Y0028334D01*
X-0039983Y0027834D02*
X-0040233D01*
X-0039983Y0028084D02*
Y0027834D01*
X-0040483Y0028084D02*
X-0039983D01*
X-0048984Y0030104D02*
Y0029854D01*
X-0048734Y0030104D02*
X-0048984D01*
X-0048734Y0029604D02*
Y0030104D01*
X-0048484Y0029604D02*
X-0048734D01*
X-0048484Y0029854D02*
Y0029604D01*
X-0048984Y0029854D02*
X-0048484D01*
X-0045321Y0030104D02*
Y0029854D01*
X-0045071Y0030104D02*
X-0045321D01*
X-0045071Y0029604D02*
Y0030104D01*
X-0044821Y0029604D02*
X-0045071D01*
X-0044821Y0029854D02*
Y0029604D01*
X-0045321Y0029854D02*
X-0044821D01*
X-0044107Y0030143D02*
Y0029893D01*
X-0043857Y0030143D02*
X-0044107D01*
X-0043857Y0029643D02*
Y0030143D01*
X-0043607Y0029643D02*
X-0043857D01*
X-0043607Y0029893D02*
Y0029643D01*
X-0044107Y0029893D02*
X-0043607D01*
X-0040443Y0030143D02*
Y0029893D01*
X-0040193Y0030143D02*
X-0040443D01*
X-0040193Y0029643D02*
Y0030143D01*
X-0039943Y0029643D02*
X-0040193D01*
X-0039943Y0029893D02*
Y0029643D01*
X-0040443Y0029893D02*
X-0039943D01*
X-0038690Y0030576D02*
X-0039190Y0030076D01*
X-0038690D02*
X-0039190Y0030576D01*
X-0038690Y0029576D02*
X-0039190Y0029076D01*
X-0038690D02*
X-0039190Y0029576D01*
X-0037117Y0029671D02*
X-0037617Y0029171D01*
X-0037117D02*
X-0037617Y0029671D01*
X-0037117Y0030617D02*
X-0037617Y0030117D01*
X-0037117D02*
X-0037617Y0030617D01*
X-0044472Y0026997D02*
X-0044972Y0026497D01*
X-0044472D02*
X-0044972Y0026997D01*
X-0044472Y0025342D02*
X-0044972Y0024842D01*
X-0044472D02*
X-0044972Y0025342D01*
X-0050518Y0024794D02*
Y0024544D01*
X-0050268Y0024794D02*
X-0050518D01*
X-0050268Y0024294D02*
Y0024794D01*
X-0050018Y0024294D02*
X-0050268D01*
X-0050018Y0024544D02*
Y0024294D01*
X-0050518Y0024544D02*
X-0050018D01*
X-0050557Y0030773D02*
Y0030523D01*
X-0050307Y0030773D02*
X-0050557D01*
X-0050307Y0030273D02*
Y0030773D01*
X-0050057Y0030273D02*
X-0050307D01*
X-0050057Y0030523D02*
Y0030273D01*
X-0050557Y0030523D02*
X-0050057D01*
X-0028045Y-0003919D02*
X-0028295Y-0004169D01*
X-0027795D02*
X-0028045Y-0003919D01*
Y-0004419D02*
X-0027795Y-0004169D01*
X-0028295D02*
X-0028045Y-0004419D01*
Y-0007223D02*
X-0028295Y-0007473D01*
X-0027795D02*
X-0028045Y-0007223D01*
Y-0007723D02*
X-0027795Y-0007473D01*
X-0028295D02*
X-0028045Y-0007723D01*
X-0031899Y-0007853D02*
X-0032149Y-0008103D01*
X-0031649D02*
X-0031899Y-0007853D01*
Y-0008353D02*
X-0031649Y-0008103D01*
X-0032149D02*
X-0031899Y-0008353D01*
X-0032411Y-0003880D02*
X-0032661Y-0004130D01*
X-0032161D02*
X-0032411Y-0003880D01*
Y-0004380D02*
X-0032161Y-0004130D01*
X-0032661D02*
X-0032411Y-0004380D01*
X-0030419Y-0017411D02*
Y-0017911D01*
X-0029919Y-0017411D02*
X-0030419D01*
X-0029919Y-0017911D02*
Y-0017411D01*
X-0030419Y-0017911D02*
X-0029919D01*
Y-0017661D02*
X-0030419D01*
X-0030169Y-0017411D02*
Y-0017911D01*
X-0030379Y0006111D02*
Y0005611D01*
X-0029879Y0006111D02*
X-0030379D01*
X-0029879Y0005611D02*
Y0006111D01*
X-0030379Y0005611D02*
X-0029879D01*
Y0005861D02*
X-0030379D01*
X-0030129Y0006111D02*
Y0005611D01*
X-0036383Y-0019063D02*
X-0036633Y-0019313D01*
X-0036133D02*
X-0036383Y-0019063D01*
Y-0019563D02*
X-0036133Y-0019313D01*
X-0036633D02*
X-0036383Y-0019563D01*
X-0036855Y-0018591D02*
X-0037105Y-0018841D01*
X-0036605D02*
X-0036855Y-0018591D01*
Y-0019091D02*
X-0036605Y-0018841D01*
X-0037105D02*
X-0036855Y-0019091D01*
X-0037327Y-0018119D02*
X-0037577Y-0018369D01*
X-0037077D02*
X-0037327Y-0018119D01*
Y-0018619D02*
X-0037077Y-0018369D01*
X-0037577D02*
X-0037327Y-0018619D01*
X-0037799Y-0017607D02*
X-0038049Y-0017857D01*
X-0037549D02*
X-0037799Y-0017607D01*
Y-0018107D02*
X-0037549Y-0017857D01*
X-0038049D02*
X-0037799Y-0018107D01*
X-0038311Y-0017135D02*
X-0038561Y-0017385D01*
X-0038061D02*
X-0038311Y-0017135D01*
Y-0017635D02*
X-0038061Y-0017385D01*
X-0038561D02*
X-0038311Y-0017635D01*
X-0038783Y-0016663D02*
X-0039033Y-0016913D01*
X-0038533D02*
X-0038783Y-0016663D01*
Y-0017163D02*
X-0038533Y-0016913D01*
X-0039033D02*
X-0038783Y-0017163D01*
X-0039255Y-0016191D02*
X-0039505Y-0016441D01*
X-0039005D02*
X-0039255Y-0016191D01*
Y-0016691D02*
X-0039005Y-0016441D01*
X-0039505D02*
X-0039255Y-0016691D01*
X-0039727Y-0015680D02*
X-0039977Y-0015930D01*
X-0039477D02*
X-0039727Y-0015680D01*
Y-0016180D02*
X-0039477Y-0015930D01*
X-0039977D02*
X-0039727Y-0016180D01*
X-0040199Y-0015169D02*
X-0040449Y-0015419D01*
X-0039949D02*
X-0040199Y-0015169D01*
Y-0015669D02*
X-0039949Y-0015419D01*
X-0040449D02*
X-0040199Y-0015669D01*
X-0040710Y-0014697D02*
X-0040960Y-0014947D01*
X-0040460D02*
X-0040710Y-0014697D01*
Y-0015197D02*
X-0040460Y-0014947D01*
X-0040960D02*
X-0040710Y-0015197D01*
X-0041182Y-0014185D02*
X-0041432Y-0014435D01*
X-0040932D02*
X-0041182Y-0014185D01*
Y-0014685D02*
X-0040932Y-0014435D01*
X-0041432D02*
X-0041182Y-0014685D01*
X-0041654Y-0013713D02*
X-0041904Y-0013963D01*
X-0041404D02*
X-0041654Y-0013713D01*
Y-0014213D02*
X-0041404Y-0013963D01*
X-0041904D02*
X-0041654Y-0014213D01*
X-0042165Y-0013241D02*
X-0042415Y-0013491D01*
X-0041915D02*
X-0042165Y-0013241D01*
Y-0013741D02*
X-0041915Y-0013491D01*
X-0042415D02*
X-0042165Y-0013741D01*
X-0042637Y-0012769D02*
X-0042887Y-0013019D01*
X-0042387D02*
X-0042637Y-0012769D01*
Y-0013269D02*
X-0042387Y-0013019D01*
X-0042887D02*
X-0042637Y-0013269D01*
X-0043109Y-0012258D02*
X-0043359Y-0012508D01*
X-0042859D02*
X-0043109Y-0012258D01*
Y-0012758D02*
X-0042859Y-0012508D01*
X-0043359D02*
X-0043109Y-0012758D01*
X-0043621Y-0011786D02*
X-0043871Y-0012036D01*
X-0043371D02*
X-0043621Y-0011786D01*
Y-0012286D02*
X-0043371Y-0012036D01*
X-0043871D02*
X-0043621Y-0012286D01*
X-0023836Y-0018984D02*
X-0024086Y-0019234D01*
X-0023586D02*
X-0023836Y-0018984D01*
Y-0019484D02*
X-0023586Y-0019234D01*
X-0024086D02*
X-0023836Y-0019484D01*
X-0023325Y-0018512D02*
X-0023575Y-0018762D01*
X-0023075D02*
X-0023325Y-0018512D01*
Y-0019012D02*
X-0023075Y-0018762D01*
X-0023575D02*
X-0023325Y-0019012D01*
X-0022853Y-0018040D02*
X-0023103Y-0018290D01*
X-0022603D02*
X-0022853Y-0018040D01*
Y-0018540D02*
X-0022603Y-0018290D01*
X-0023103D02*
X-0022853Y-0018540D01*
X-0022381Y-0017568D02*
X-0022631Y-0017818D01*
X-0022131D02*
X-0022381Y-0017568D01*
Y-0018068D02*
X-0022131Y-0017818D01*
X-0022631D02*
X-0022381Y-0018068D01*
X-0021909Y-0017057D02*
X-0022159Y-0017307D01*
X-0021659D02*
X-0021909Y-0017057D01*
Y-0017557D02*
X-0021659Y-0017307D01*
X-0022159D02*
X-0021909Y-0017557D01*
X-0021397Y-0016585D02*
X-0021647Y-0016835D01*
X-0021147D02*
X-0021397Y-0016585D01*
Y-0017085D02*
X-0021147Y-0016835D01*
X-0021647D02*
X-0021397Y-0017085D01*
X-0020925Y-0016073D02*
X-0021175Y-0016323D01*
X-0020675D02*
X-0020925Y-0016073D01*
Y-0016573D02*
X-0020675Y-0016323D01*
X-0021175D02*
X-0020925Y-0016573D01*
X-0020453Y-0015601D02*
X-0020703Y-0015851D01*
X-0020203D02*
X-0020453Y-0015601D01*
Y-0016101D02*
X-0020203Y-0015851D01*
X-0020703D02*
X-0020453Y-0016101D01*
X-0019981Y-0015129D02*
X-0020231Y-0015379D01*
X-0019731D02*
X-0019981Y-0015129D01*
Y-0015629D02*
X-0019731Y-0015379D01*
X-0020231D02*
X-0019981Y-0015629D01*
X-0019470Y-0014657D02*
X-0019720Y-0014907D01*
X-0019220D02*
X-0019470Y-0014657D01*
Y-0015157D02*
X-0019220Y-0014907D01*
X-0019720D02*
X-0019470Y-0015157D01*
X-0018998Y-0014146D02*
X-0019248Y-0014396D01*
X-0018748D02*
X-0018998Y-0014146D01*
Y-0014646D02*
X-0018748Y-0014396D01*
X-0019248D02*
X-0018998Y-0014646D01*
X-0018487Y-0013674D02*
X-0018737Y-0013924D01*
X-0018237D02*
X-0018487Y-0013674D01*
Y-0014174D02*
X-0018237Y-0013924D01*
X-0018737D02*
X-0018487Y-0014174D01*
X-0018015Y-0013163D02*
X-0018265Y-0013413D01*
X-0017765D02*
X-0018015Y-0013163D01*
Y-0013663D02*
X-0017765Y-0013413D01*
X-0018265D02*
X-0018015Y-0013663D01*
X-0017503Y-0012691D02*
X-0017753Y-0012941D01*
X-0017253D02*
X-0017503Y-0012691D01*
Y-0013191D02*
X-0017253Y-0012941D01*
X-0017753D02*
X-0017503Y-0013191D01*
X-0017031Y-0012179D02*
X-0017281Y-0012429D01*
X-0016781D02*
X-0017031Y-0012179D01*
Y-0012679D02*
X-0016781Y-0012429D01*
X-0017281D02*
X-0017031Y-0012679D01*
X-0016520Y-0011707D02*
X-0016770Y-0011957D01*
X-0016270D02*
X-0016520Y-0011707D01*
Y-0012207D02*
X-0016270Y-0011957D01*
X-0016770D02*
X-0016520Y-0012207D01*
X-0016638Y0000643D02*
X-0016888Y0000393D01*
X-0016388D02*
X-0016638Y0000643D01*
Y0000143D02*
X-0016388Y0000393D01*
X-0016888D02*
X-0016638Y0000143D01*
X-0017149Y0001115D02*
X-0017399Y0000865D01*
X-0016899D02*
X-0017149Y0001115D01*
Y0000615D02*
X-0016899Y0000865D01*
X-0017399D02*
X-0017149Y0000615D01*
X-0017582Y0001627D02*
X-0017832Y0001377D01*
X-0017332D02*
X-0017582Y0001627D01*
Y0001127D02*
X-0017332Y0001377D01*
X-0017832D02*
X-0017582Y0001127D01*
X-0018093Y0002099D02*
X-0018343Y0001849D01*
X-0017843D02*
X-0018093Y0002099D01*
Y0001599D02*
X-0017843Y0001849D01*
X-0018343D02*
X-0018093Y0001599D01*
X-0018565Y0002610D02*
X-0018815Y0002360D01*
X-0018315D02*
X-0018565Y0002610D01*
Y0002110D02*
X-0018315Y0002360D01*
X-0018815D02*
X-0018565Y0002110D01*
X-0019037Y0003082D02*
X-0019287Y0002832D01*
X-0018787D02*
X-0019037Y0003082D01*
Y0002582D02*
X-0018787Y0002832D01*
X-0019287D02*
X-0019037Y0002582D01*
X-0019549Y0003554D02*
X-0019799Y0003304D01*
X-0019299D02*
X-0019549Y0003554D01*
Y0003054D02*
X-0019299Y0003304D01*
X-0019799D02*
X-0019549Y0003054D01*
X-0020060Y0004026D02*
X-0020310Y0003776D01*
X-0019810D02*
X-0020060Y0004026D01*
Y0003526D02*
X-0019810Y0003776D01*
X-0020310D02*
X-0020060Y0003526D01*
X-0020532Y0004537D02*
X-0020782Y0004287D01*
X-0020282D02*
X-0020532Y0004537D01*
Y0004037D02*
X-0020282Y0004287D01*
X-0020782D02*
X-0020532Y0004037D01*
X-0021043Y0005009D02*
X-0021293Y0004759D01*
X-0020793D02*
X-0021043Y0005009D01*
Y0004509D02*
X-0020793Y0004759D01*
X-0021293D02*
X-0021043Y0004509D01*
X-0021515Y0005481D02*
X-0021765Y0005231D01*
X-0021265D02*
X-0021515Y0005481D01*
Y0004981D02*
X-0021265Y0005231D01*
X-0021765D02*
X-0021515Y0004981D01*
X-0021987Y0005993D02*
X-0022237Y0005743D01*
X-0021737D02*
X-0021987Y0005993D01*
Y0005493D02*
X-0021737Y0005743D01*
X-0022237D02*
X-0021987Y0005493D01*
X-0022459Y0006465D02*
X-0022709Y0006215D01*
X-0022209D02*
X-0022459Y0006465D01*
Y0005965D02*
X-0022209Y0006215D01*
X-0022709D02*
X-0022459Y0005965D01*
X-0022931Y0006937D02*
X-0023181Y0006687D01*
X-0022681D02*
X-0022931Y0006937D01*
Y0006437D02*
X-0022681Y0006687D01*
X-0023181D02*
X-0022931Y0006437D01*
X-0023403Y0007448D02*
X-0023653Y0007198D01*
X-0023153D02*
X-0023403Y0007448D01*
Y0006948D02*
X-0023153Y0007198D01*
X-0023653D02*
X-0023403Y0006948D01*
X-0023915Y0007920D02*
X-0024165Y0007670D01*
X-0023665D02*
X-0023915Y0007920D01*
Y0007420D02*
X-0023665Y0007670D01*
X-0024165D02*
X-0023915Y0007420D01*
X-0036462Y0007881D02*
X-0036712Y0007631D01*
X-0036212D02*
X-0036462Y0007881D01*
Y0007381D02*
X-0036212Y0007631D01*
X-0036712D02*
X-0036462Y0007381D01*
X-0036973Y0007409D02*
X-0037223Y0007159D01*
X-0036723D02*
X-0036973Y0007409D01*
Y0006909D02*
X-0036723Y0007159D01*
X-0037223D02*
X-0036973Y0006909D01*
X-0037445Y0006897D02*
X-0037695Y0006647D01*
X-0037195D02*
X-0037445Y0006897D01*
Y0006397D02*
X-0037195Y0006647D01*
X-0037695D02*
X-0037445Y0006397D01*
X-0037957Y0006425D02*
X-0038207Y0006175D01*
X-0037707D02*
X-0037957Y0006425D01*
Y0005925D02*
X-0037707Y0006175D01*
X-0038207D02*
X-0037957Y0005925D01*
X-0038429Y0005953D02*
X-0038679Y0005703D01*
X-0038179D02*
X-0038429Y0005953D01*
Y0005453D02*
X-0038179Y0005703D01*
X-0038679D02*
X-0038429Y0005453D01*
X-0038901Y0005442D02*
X-0039151Y0005192D01*
X-0038651D02*
X-0038901Y0005442D01*
Y0004942D02*
X-0038651Y0005192D01*
X-0039151D02*
X-0038901Y0004942D01*
X-0039373Y0005009D02*
X-0039623Y0004759D01*
X-0039123D02*
X-0039373Y0005009D01*
Y0004509D02*
X-0039123Y0004759D01*
X-0039623D02*
X-0039373Y0004509D01*
X-0039845Y0004498D02*
X-0040095Y0004248D01*
X-0039595D02*
X-0039845Y0004498D01*
Y0003998D02*
X-0039595Y0004248D01*
X-0040095D02*
X-0039845Y0003998D01*
X-0040356Y0004026D02*
X-0040606Y0003776D01*
X-0040106D02*
X-0040356Y0004026D01*
Y0003526D02*
X-0040106Y0003776D01*
X-0040606D02*
X-0040356Y0003526D01*
X-0040828Y0003554D02*
X-0041078Y0003304D01*
X-0040578D02*
X-0040828Y0003554D01*
Y0003054D02*
X-0040578Y0003304D01*
X-0041078D02*
X-0040828Y0003054D01*
X-0041339Y0003043D02*
X-0041589Y0002793D01*
X-0041089D02*
X-0041339Y0003043D01*
Y0002543D02*
X-0041089Y0002793D01*
X-0041589D02*
X-0041339Y0002543D01*
X-0041811Y0002531D02*
X-0042061Y0002281D01*
X-0041561D02*
X-0041811Y0002531D01*
Y0002031D02*
X-0041561Y0002281D01*
X-0042061D02*
X-0041811Y0002031D01*
X-0042283Y0002059D02*
X-0042533Y0001809D01*
X-0042033D02*
X-0042283Y0002059D01*
Y0001559D02*
X-0042033Y0001809D01*
X-0042533D02*
X-0042283Y0001559D01*
X-0042755Y0001548D02*
X-0043005Y0001298D01*
X-0042505D02*
X-0042755Y0001548D01*
Y0001048D02*
X-0042505Y0001298D01*
X-0043005D02*
X-0042755Y0001048D01*
X-0043267Y0001076D02*
X-0043517Y0000826D01*
X-0043017D02*
X-0043267Y0001076D01*
Y0000576D02*
X-0043017Y0000826D01*
X-0043517D02*
X-0043267Y0000576D01*
X-0043699Y0000565D02*
X-0043949Y0000315D01*
X-0043449D02*
X-0043699Y0000565D01*
Y0000065D02*
X-0043449Y0000315D01*
X-0043949D02*
X-0043699Y0000065D01*
X-0031231Y-0008089D02*
X-0031481Y-0008339D01*
X-0030981D02*
X-0031231Y-0008089D01*
Y-0008589D02*
X-0030981Y-0008339D01*
X-0031481D02*
X-0031231Y-0008589D01*
X-0030523Y-0008089D02*
X-0030773Y-0008339D01*
X-0030273D02*
X-0030523Y-0008089D01*
Y-0008589D02*
X-0030273Y-0008339D01*
X-0030773D02*
X-0030523Y-0008589D01*
X-0029815Y-0008089D02*
X-0030065Y-0008339D01*
X-0029565D02*
X-0029815Y-0008089D01*
Y-0008589D02*
X-0029565Y-0008339D01*
X-0030065D02*
X-0029815Y-0008589D01*
X-0029107Y-0008089D02*
X-0029357Y-0008339D01*
X-0028857D02*
X-0029107Y-0008089D01*
Y-0008589D02*
X-0028857Y-0008339D01*
X-0029357D02*
X-0029107Y-0008589D01*
X-0028517Y-0007735D02*
X-0028767Y-0007985D01*
X-0028267D02*
X-0028517Y-0007735D01*
Y-0008235D02*
X-0028267Y-0007985D01*
X-0028767D02*
X-0028517Y-0008235D01*
X-0027651Y-0006633D02*
X-0027901Y-0006883D01*
X-0027401D02*
X-0027651Y-0006633D01*
Y-0007133D02*
X-0027401Y-0006883D01*
X-0027901D02*
X-0027651Y-0007133D01*
Y-0005925D02*
X-0027901Y-0006175D01*
X-0027401D02*
X-0027651Y-0005925D01*
Y-0006425D02*
X-0027401Y-0006175D01*
X-0027901D02*
X-0027651Y-0006425D01*
Y-0005217D02*
X-0027901Y-0005467D01*
X-0027401D02*
X-0027651Y-0005217D01*
Y-0005717D02*
X-0027401Y-0005467D01*
X-0027901D02*
X-0027651Y-0005717D01*
Y-0004509D02*
X-0027901Y-0004759D01*
X-0027401D02*
X-0027651Y-0004509D01*
Y-0005009D02*
X-0027401Y-0004759D01*
X-0027901D02*
X-0027651Y-0005009D01*
X-0028477Y-0003369D02*
X-0028727Y-0003619D01*
X-0028227D02*
X-0028477Y-0003369D01*
Y-0003869D02*
X-0028227Y-0003619D01*
X-0028727D02*
X-0028477Y-0003869D01*
X-0029107Y-0003172D02*
X-0029357Y-0003422D01*
X-0028857D02*
X-0029107Y-0003172D01*
Y-0003672D02*
X-0028857Y-0003422D01*
X-0029357D02*
X-0029107Y-0003672D01*
X-0029815Y-0003172D02*
X-0030065Y-0003422D01*
X-0029565D02*
X-0029815Y-0003172D01*
Y-0003672D02*
X-0029565Y-0003422D01*
X-0030065D02*
X-0029815Y-0003672D01*
X-0030523Y-0003172D02*
X-0030773Y-0003422D01*
X-0030273D02*
X-0030523Y-0003172D01*
Y-0003672D02*
X-0030273Y-0003422D01*
X-0030773D02*
X-0030523Y-0003672D01*
X-0031231Y-0003172D02*
X-0031481Y-0003422D01*
X-0030981D02*
X-0031231Y-0003172D01*
Y-0003672D02*
X-0030981Y-0003422D01*
X-0031481D02*
X-0031231Y-0003672D01*
X-0032293Y-0007263D02*
X-0032543Y-0007513D01*
X-0032043D02*
X-0032293Y-0007263D01*
Y-0007763D02*
X-0032043Y-0007513D01*
X-0032543D02*
X-0032293Y-0007763D01*
X-0032647Y-0006673D02*
X-0032897Y-0006923D01*
X-0032397D02*
X-0032647Y-0006673D01*
Y-0007173D02*
X-0032397Y-0006923D01*
X-0032897D02*
X-0032647Y-0007173D01*
Y-0005965D02*
X-0032897Y-0006215D01*
X-0032397D02*
X-0032647Y-0005965D01*
Y-0006465D02*
X-0032397Y-0006215D01*
X-0032897D02*
X-0032647Y-0006465D01*
Y-0005257D02*
X-0032897Y-0005507D01*
X-0032397D02*
X-0032647Y-0005257D01*
Y-0005757D02*
X-0032397Y-0005507D01*
X-0032897D02*
X-0032647Y-0005757D01*
Y-0004549D02*
X-0032897Y-0004799D01*
X-0032397D02*
X-0032647Y-0004549D01*
Y-0005049D02*
X-0032397Y-0004799D01*
X-0032897D02*
X-0032647Y-0005049D01*
X-0031899Y-0003447D02*
X-0032149Y-0003697D01*
X-0031649D02*
X-0031899Y-0003447D01*
Y-0003947D02*
X-0031649Y-0003697D01*
X-0032149D02*
X-0031899Y-0003947D01*
X-0033892Y-0008208D02*
X-0034392Y-0008708D01*
X-0033892D02*
X-0034392Y-0008208D01*
X-0037201D02*
X-0037701Y-0008708D01*
X-0037201D02*
X-0037701Y-0008208D01*
X-0034089Y-0002819D02*
X-0034589Y-0003319D01*
X-0034089D02*
X-0034589Y-0002819D01*
X-0037398D02*
X-0037898Y-0003319D01*
X-0037398D02*
X-0037898Y-0002819D01*
X-0040459Y-0003800D02*
X-0040959Y-0004300D01*
X-0040459D02*
X-0040959Y-0003800D01*
X-0040459Y-0007109D02*
X-0040959Y-0007609D01*
X-0040459D02*
X-0040959Y-0007109D01*
X-0039436Y-0003800D02*
X-0039936Y-0004300D01*
X-0039436D02*
X-0039936Y-0003800D01*
X-0039436Y-0007109D02*
X-0039936Y-0007609D01*
X-0039436D02*
X-0039936Y-0007109D01*
X-0033773Y-0009389D02*
X-0034273Y-0009889D01*
X-0033773D02*
X-0034273Y-0009389D01*
X-0033773Y-0012698D02*
X-0034273Y-0013198D01*
X-0033773D02*
X-0034273Y-0012698D01*
X-0039162Y-0009232D02*
X-0039662Y-0009732D01*
X-0039162D02*
X-0039662Y-0009232D01*
X-0039162Y-0012540D02*
X-0039662Y-0013040D01*
X-0039162D02*
X-0039662Y-0012540D01*
X-0037709Y-0015759D02*
X-0038209Y-0016259D01*
X-0037709D02*
X-0038209Y-0015759D01*
X-0034400D02*
X-0034900Y-0016259D01*
X-0034400D02*
X-0034900Y-0015759D01*
X-0037709Y-0014697D02*
X-0038209Y-0015197D01*
X-0037709D02*
X-0038209Y-0014697D01*
X-0034400D02*
X-0034900Y-0015197D01*
X-0034400D02*
X-0034900Y-0014697D01*
X-0027126Y-0009389D02*
X-0027626Y-0009889D01*
X-0027126D02*
X-0027626Y-0009389D01*
X-0027126Y-0012698D02*
X-0027626Y-0013198D01*
X-0027126D02*
X-0027626Y-0012698D01*
X-0032593Y-0009310D02*
X-0033093Y-0009810D01*
X-0032593D02*
X-0033093Y-0009310D01*
X-0032593Y-0012619D02*
X-0033093Y-0013119D01*
X-0032593D02*
X-0033093Y-0012619D01*
X-0033102Y-0017216D02*
X-0033602Y-0017716D01*
X-0033102D02*
X-0033602Y-0017216D01*
X-0033102Y-0013908D02*
X-0033602Y-0014408D01*
X-0033102D02*
X-0033602Y-0013908D01*
X-0026966Y-0017216D02*
X-0027466Y-0017716D01*
X-0026966D02*
X-0027466Y-0017216D01*
X-0026966Y-0013908D02*
X-0027466Y-0014408D01*
X-0026966D02*
X-0027466Y-0013908D01*
X-0020636Y-0009428D02*
X-0021136Y-0009928D01*
X-0020636D02*
X-0021136Y-0009428D01*
X-0020636Y-0012737D02*
X-0021136Y-0013237D01*
X-0020636D02*
X-0021136Y-0012737D01*
X-0026025Y-0009350D02*
X-0026525Y-0009850D01*
X-0026025D02*
X-0026525Y-0009350D01*
X-0026025Y-0012658D02*
X-0026525Y-0013158D01*
X-0026025D02*
X-0026525Y-0012658D01*
X-0025988Y-0015798D02*
X-0026488Y-0016298D01*
X-0025988D02*
X-0026488Y-0015798D01*
X-0022679D02*
X-0023179Y-0016298D01*
X-0022679D02*
X-0023179Y-0015798D01*
X-0025988Y-0014775D02*
X-0026488Y-0015275D01*
X-0025988D02*
X-0026488Y-0014775D01*
X-0022679D02*
X-0023179Y-0015275D01*
X-0022679D02*
X-0023179Y-0014775D01*
X-0026082Y-0002917D02*
X-0026582Y-0003417D01*
X-0026082D02*
X-0026582Y-0002917D01*
X-0022774D02*
X-0023274Y-0003417D01*
X-0022774D02*
X-0023274Y-0002917D01*
X-0026161Y-0008345D02*
X-0026661Y-0008845D01*
X-0026161D02*
X-0026661Y-0008345D01*
X-0022852D02*
X-0023352Y-0008845D01*
X-0022852D02*
X-0023352Y-0008345D01*
X-0020539Y-0007050D02*
X-0021039Y-0007550D01*
X-0020539D02*
X-0021039Y-0007050D01*
X-0020539Y-0003741D02*
X-0021039Y-0004241D01*
X-0020539D02*
X-0021039Y-0003741D01*
X-0019437Y-0007050D02*
X-0019937Y-0007550D01*
X-0019437D02*
X-0019937Y-0007050D01*
X-0019437Y-0003741D02*
X-0019937Y-0004241D01*
X-0019437D02*
X-0019937Y-0003741D01*
X-0025985Y-0001874D02*
X-0026485Y-0002374D01*
X-0025985D02*
X-0026485Y-0001874D01*
X-0025985Y0001435D02*
X-0026485Y0000935D01*
X-0025985D02*
X-0026485Y0001435D01*
X-0020597Y-0001913D02*
X-0021097Y-0002413D01*
X-0020597D02*
X-0021097Y-0001913D01*
X-0020597Y0001395D02*
X-0021097Y0000895D01*
X-0020597D02*
X-0021097Y0001395D01*
X-0022128Y0004732D02*
X-0022628Y0004232D01*
X-0022128D02*
X-0022628Y0004732D01*
X-0025437D02*
X-0025937Y0004232D01*
X-0025437D02*
X-0025937Y0004732D01*
X-0022128Y0003630D02*
X-0022628Y0003130D01*
X-0022128D02*
X-0022628Y0003630D01*
X-0025437D02*
X-0025937Y0003130D01*
X-0025437D02*
X-0025937Y0003630D01*
X-0032966Y-0001853D02*
X-0033466Y-0002353D01*
X-0032966D02*
X-0033466Y-0001853D01*
X-0032966Y0001455D02*
X-0033466Y0000955D01*
X-0032966D02*
X-0033466Y0001455D01*
X-0027498Y-0001814D02*
X-0027998Y-0002314D01*
X-0027498D02*
X-0027998Y-0001814D01*
X-0027498Y0001495D02*
X-0027998Y0000995D01*
X-0027498D02*
X-0027998Y0001495D01*
X-0026969Y0006347D02*
X-0027469Y0005847D01*
X-0026969D02*
X-0027469Y0006347D01*
X-0026969Y0003038D02*
X-0027469Y0002538D01*
X-0026969D02*
X-0027469Y0003038D01*
X-0033459Y0006032D02*
X-0033959Y0005532D01*
X-0033459D02*
X-0033959Y0006032D01*
X-0033459Y0002723D02*
X-0033959Y0002223D01*
X-0033459D02*
X-0033959Y0002723D01*
X-0039612Y-0001857D02*
X-0040112Y-0002357D01*
X-0039612D02*
X-0040112Y-0001857D01*
X-0039612Y0001452D02*
X-0040112Y0000952D01*
X-0039612D02*
X-0040112Y0001452D01*
X-0034184Y-0001857D02*
X-0034684Y-0002357D01*
X-0034184D02*
X-0034684Y-0001857D01*
X-0034184Y0001452D02*
X-0034684Y0000952D01*
X-0034184D02*
X-0034684Y0001452D01*
X-0034499Y0004638D02*
X-0034999Y0004138D01*
X-0034499D02*
X-0034999Y0004638D01*
X-0037807D02*
X-0038307Y0004138D01*
X-0037807D02*
X-0038307Y0004638D01*
X-0034499Y0003694D02*
X-0034999Y0003194D01*
X-0034499D02*
X-0034999Y0003694D01*
X-0037807D02*
X-0038307Y0003194D01*
X-0037807D02*
X-0038307Y0003694D01*
X-0037826Y-0004404D02*
Y-0004904D01*
X-0037326Y-0004404D02*
X-0037826D01*
X-0037326Y-0004904D02*
Y-0004404D01*
X-0037826Y-0004904D02*
X-0037326D01*
Y-0004404D02*
X-0037826Y-0004904D01*
X-0037326D02*
X-0037826Y-0004404D01*
X-0038826D02*
Y-0004904D01*
X-0038326Y-0004404D02*
X-0038826D01*
X-0038326Y-0004904D02*
Y-0004404D01*
X-0038826Y-0004904D02*
X-0038326D01*
Y-0004404D02*
X-0038826Y-0004904D01*
X-0038326D02*
X-0038826Y-0004404D01*
X-0037865Y-0006528D02*
Y-0007028D01*
X-0037365Y-0006528D02*
X-0037865D01*
X-0037365Y-0007028D02*
Y-0006528D01*
X-0037865Y-0007028D02*
X-0037365D01*
Y-0006528D02*
X-0037865Y-0007028D01*
X-0037365D02*
X-0037865Y-0006528D01*
X-0038865D02*
Y-0007028D01*
X-0038365Y-0006528D02*
X-0038865D01*
X-0038365Y-0007028D02*
Y-0006528D01*
X-0038865Y-0007028D02*
X-0038365D01*
Y-0006528D02*
X-0038865Y-0007028D01*
X-0038365D02*
X-0038865Y-0006528D01*
X-0038010Y-0012536D02*
Y-0013036D01*
X-0037510Y-0012536D02*
X-0038010D01*
X-0037510Y-0013036D02*
Y-0012536D01*
X-0038010Y-0013036D02*
X-0037510D01*
Y-0012536D02*
X-0038010Y-0013036D01*
X-0037510D02*
X-0038010Y-0012536D01*
Y-0013536D02*
Y-0014036D01*
X-0037510Y-0013536D02*
X-0038010D01*
X-0037510Y-0014036D02*
Y-0013536D01*
X-0038010Y-0014036D02*
X-0037510D01*
Y-0013536D02*
X-0038010Y-0014036D01*
X-0037510D02*
X-0038010Y-0013536D01*
X-0035886Y-0012614D02*
Y-0013114D01*
X-0035386Y-0012614D02*
X-0035886D01*
X-0035386Y-0013114D02*
Y-0012614D01*
X-0035886Y-0013114D02*
X-0035386D01*
Y-0012614D02*
X-0035886Y-0013114D01*
X-0035386D02*
X-0035886Y-0012614D01*
Y-0013614D02*
Y-0014114D01*
X-0035386Y-0013614D02*
X-0035886D01*
X-0035386Y-0014114D02*
Y-0013614D01*
X-0035886Y-0014114D02*
X-0035386D01*
Y-0013614D02*
X-0035886Y-0014114D01*
X-0035386D02*
X-0035886Y-0013614D01*
X-0031441Y-0012614D02*
Y-0013114D01*
X-0030941Y-0012614D02*
X-0031441D01*
X-0030941Y-0013114D02*
Y-0012614D01*
X-0031441Y-0013114D02*
X-0030941D01*
Y-0012614D02*
X-0031441Y-0013114D01*
X-0030941D02*
X-0031441Y-0012614D01*
Y-0013614D02*
Y-0014114D01*
X-0030941Y-0013614D02*
X-0031441D01*
X-0030941Y-0014114D02*
Y-0013614D01*
X-0031441Y-0014114D02*
X-0030941D01*
Y-0013614D02*
X-0031441Y-0014114D01*
X-0030941D02*
X-0031441Y-0013614D01*
X-0029317Y-0012575D02*
Y-0013075D01*
X-0028817Y-0012575D02*
X-0029317D01*
X-0028817Y-0013075D02*
Y-0012575D01*
X-0029317Y-0013075D02*
X-0028817D01*
Y-0012575D02*
X-0029317Y-0013075D01*
X-0028817D02*
X-0029317Y-0012575D01*
Y-0013575D02*
Y-0014075D01*
X-0028817Y-0013575D02*
X-0029317D01*
X-0028817Y-0014075D02*
Y-0013575D01*
X-0029317Y-0014075D02*
X-0028817D01*
Y-0013575D02*
X-0029317Y-0014075D01*
X-0028817D02*
X-0029317Y-0013575D01*
X-0025423Y-0012693D02*
Y-0013193D01*
X-0024923Y-0012693D02*
X-0025423D01*
X-0024923Y-0013193D02*
Y-0012693D01*
X-0025423Y-0013193D02*
X-0024923D01*
Y-0012693D02*
X-0025423Y-0013193D01*
X-0024923D02*
X-0025423Y-0012693D01*
Y-0013693D02*
Y-0014193D01*
X-0024923Y-0013693D02*
X-0025423D01*
X-0024923Y-0014193D02*
Y-0013693D01*
X-0025423Y-0014193D02*
X-0024923D01*
Y-0013693D02*
X-0025423Y-0014193D01*
X-0024923D02*
X-0025423Y-0013693D01*
X-0022749Y-0012693D02*
Y-0013193D01*
X-0022249Y-0012693D02*
X-0022749D01*
X-0022249Y-0013193D02*
Y-0012693D01*
X-0022749Y-0013193D02*
X-0022249D01*
Y-0012693D02*
X-0022749Y-0013193D01*
X-0022249D02*
X-0022749Y-0012693D01*
Y-0013693D02*
Y-0014193D01*
X-0022249Y-0013693D02*
X-0022749D01*
X-0022249Y-0014193D02*
Y-0013693D01*
X-0022749Y-0014193D02*
X-0022249D01*
Y-0013693D02*
X-0022749Y-0014193D01*
X-0022249D02*
X-0022749Y-0013693D01*
X-0023149Y-0004440D02*
Y-0004940D01*
X-0022649Y-0004440D02*
X-0023149D01*
X-0022649Y-0004940D02*
Y-0004440D01*
X-0023149Y-0004940D02*
X-0022649D01*
Y-0004440D02*
X-0023149Y-0004940D01*
X-0022649D02*
X-0023149Y-0004440D01*
X-0022149D02*
Y-0004940D01*
X-0021649Y-0004440D02*
X-0022149D01*
X-0021649Y-0004940D02*
Y-0004440D01*
X-0022149Y-0004940D02*
X-0021649D01*
Y-0004440D02*
X-0022149Y-0004940D01*
X-0021649D02*
X-0022149Y-0004440D01*
X-0023228Y-0006643D02*
Y-0007143D01*
X-0022728Y-0006643D02*
X-0023228D01*
X-0022728Y-0007143D02*
Y-0006643D01*
X-0023228Y-0007143D02*
X-0022728D01*
Y-0006643D02*
X-0023228Y-0007143D01*
X-0022728D02*
X-0023228Y-0006643D01*
X-0022228D02*
Y-0007143D01*
X-0021728Y-0006643D02*
X-0022228D01*
X-0021728Y-0007143D02*
Y-0006643D01*
X-0022228Y-0007143D02*
X-0021728D01*
Y-0006643D02*
X-0022228Y-0007143D01*
X-0021728D02*
X-0022228Y-0006643D01*
X-0022788Y0001469D02*
Y0000969D01*
X-0022288Y0001469D02*
X-0022788D01*
X-0022288Y0000969D02*
Y0001469D01*
X-0022788Y0000969D02*
X-0022288D01*
Y0001469D02*
X-0022788Y0000969D01*
X-0022288D02*
X-0022788Y0001469D01*
Y0002469D02*
Y0001969D01*
X-0022288Y0002469D02*
X-0022788D01*
X-0022288Y0001969D02*
Y0002469D01*
X-0022788Y0001969D02*
X-0022288D01*
Y0002469D02*
X-0022788Y0001969D01*
X-0022288D02*
X-0022788Y0002469D01*
X-0024873Y0001469D02*
Y0000969D01*
X-0024373Y0001469D02*
X-0024873D01*
X-0024373Y0000969D02*
Y0001469D01*
X-0024873Y0000969D02*
X-0024373D01*
Y0001469D02*
X-0024873Y0000969D01*
X-0024373D02*
X-0024873Y0001469D01*
Y0002469D02*
Y0001969D01*
X-0024373Y0002469D02*
X-0024873D01*
X-0024373Y0001969D02*
Y0002469D01*
X-0024873Y0001969D02*
X-0024373D01*
Y0002469D02*
X-0024873Y0001969D01*
X-0024373D02*
X-0024873Y0002469D01*
X-0029677Y0001525D02*
Y0001025D01*
X-0029177Y0001525D02*
X-0029677D01*
X-0029177Y0001025D02*
Y0001525D01*
X-0029677Y0001025D02*
X-0029177D01*
Y0001525D02*
X-0029677Y0001025D01*
X-0029177D02*
X-0029677Y0001525D01*
Y0002525D02*
Y0002025D01*
X-0029177Y0002525D02*
X-0029677D01*
X-0029177Y0002025D02*
Y0002525D01*
X-0029677Y0002025D02*
X-0029177D01*
Y0002525D02*
X-0029677Y0002025D01*
X-0029177D02*
X-0029677Y0002525D01*
X-0031840Y0001525D02*
Y0001025D01*
X-0031340Y0001525D02*
X-0031840D01*
X-0031340Y0001025D02*
Y0001525D01*
X-0031840Y0001025D02*
X-0031340D01*
Y0001525D02*
X-0031840Y0001025D01*
X-0031340D02*
X-0031840Y0001525D01*
Y0002525D02*
Y0002025D01*
X-0031340Y0002525D02*
X-0031840D01*
X-0031340Y0002025D02*
Y0002525D01*
X-0031840Y0002025D02*
X-0031340D01*
Y0002525D02*
X-0031840Y0002025D01*
X-0031340D02*
X-0031840Y0002525D01*
X-0036323Y0001621D02*
Y0001121D01*
X-0035823Y0001621D02*
X-0036323D01*
X-0035823Y0001121D02*
Y0001621D01*
X-0036323Y0001121D02*
X-0035823D01*
Y0001621D02*
X-0036323Y0001121D01*
X-0035823D02*
X-0036323Y0001621D01*
Y0002621D02*
Y0002121D01*
X-0035823Y0002621D02*
X-0036323D01*
X-0035823Y0002121D02*
Y0002621D01*
X-0036323Y0002121D02*
X-0035823D01*
Y0002621D02*
X-0036323Y0002121D01*
X-0035823D02*
X-0036323Y0002621D01*
X-0038498Y0001632D02*
Y0001132D01*
X-0037998Y0001632D02*
X-0038498D01*
X-0037998Y0001132D02*
Y0001632D01*
X-0038498Y0001132D02*
X-0037998D01*
Y0001632D02*
X-0038498Y0001132D01*
X-0037998D02*
X-0038498Y0001632D01*
Y0002632D02*
Y0002132D01*
X-0037998Y0002632D02*
X-0038498D01*
X-0037998Y0002132D02*
Y0002632D01*
X-0038498Y0002132D02*
X-0037998D01*
Y0002632D02*
X-0038498Y0002132D01*
X-0037998D02*
X-0038498Y0002632D01*
X-0036702Y-0004443D02*
Y-0004943D01*
X-0036202Y-0004443D02*
X-0036702D01*
X-0036202Y-0004943D02*
Y-0004443D01*
X-0036702Y-0004943D02*
X-0036202D01*
Y-0004443D02*
X-0036702Y-0004943D01*
X-0036202D02*
X-0036702Y-0004443D01*
X-0035702D02*
Y-0004943D01*
X-0035202Y-0004443D02*
X-0035702D01*
X-0035202Y-0004943D02*
Y-0004443D01*
X-0035702Y-0004943D02*
X-0035202D01*
Y-0004443D02*
X-0035702Y-0004943D01*
X-0035202D02*
X-0035702Y-0004443D01*
X-0038049Y-0011395D02*
Y-0011895D01*
X-0037549Y-0011395D02*
X-0038049D01*
X-0037549Y-0011895D02*
Y-0011395D01*
X-0038049Y-0011895D02*
X-0037549D01*
Y-0011395D02*
X-0038049Y-0011895D01*
X-0037549D02*
X-0038049Y-0011395D01*
Y-0010395D02*
Y-0010895D01*
X-0037549Y-0010395D02*
X-0038049D01*
X-0037549Y-0010895D02*
Y-0010395D01*
X-0038049Y-0010895D02*
X-0037549D01*
Y-0010395D02*
X-0038049Y-0010895D01*
X-0037549D02*
X-0038049Y-0010395D01*
X-0031481Y-0011474D02*
Y-0011974D01*
X-0030981Y-0011474D02*
X-0031481D01*
X-0030981Y-0011974D02*
Y-0011474D01*
X-0031481Y-0011974D02*
X-0030981D01*
Y-0011474D02*
X-0031481Y-0011974D01*
X-0030981D02*
X-0031481Y-0011474D01*
Y-0010474D02*
Y-0010974D01*
X-0030981Y-0010474D02*
X-0031481D01*
X-0030981Y-0010974D02*
Y-0010474D01*
X-0031481Y-0010974D02*
X-0030981D01*
Y-0010474D02*
X-0031481Y-0010974D01*
X-0030981D02*
X-0031481Y-0010474D01*
X-0024912Y-0011552D02*
Y-0012052D01*
X-0024412Y-0011552D02*
X-0024912D01*
X-0024412Y-0012052D02*
Y-0011552D01*
X-0024912Y-0012052D02*
X-0024412D01*
Y-0011552D02*
X-0024912Y-0012052D01*
X-0024412D02*
X-0024912Y-0011552D01*
Y-0010552D02*
Y-0011052D01*
X-0024412Y-0010552D02*
X-0024912D01*
X-0024412Y-0011052D02*
Y-0010552D01*
X-0024912Y-0011052D02*
X-0024412D01*
Y-0010552D02*
X-0024912Y-0011052D01*
X-0024412D02*
X-0024912Y-0010552D01*
X-0024391Y-0006721D02*
Y-0007221D01*
X-0023891Y-0006721D02*
X-0024391D01*
X-0023891Y-0007221D02*
Y-0006721D01*
X-0024391Y-0007221D02*
X-0023891D01*
Y-0006721D02*
X-0024391Y-0007221D01*
X-0023891D02*
X-0024391Y-0006721D01*
X-0025391D02*
Y-0007221D01*
X-0024891Y-0006721D02*
X-0025391D01*
X-0024891Y-0007221D02*
Y-0006721D01*
X-0025391Y-0007221D02*
X-0024891D01*
Y-0006721D02*
X-0025391Y-0007221D01*
X-0024891D02*
X-0025391Y-0006721D01*
X-0022681Y0000278D02*
Y-0000222D01*
X-0022181Y0000278D02*
X-0022681D01*
X-0022181Y-0000222D02*
Y0000278D01*
X-0022681Y-0000222D02*
X-0022181D01*
Y0000278D02*
X-0022681Y-0000222D01*
X-0022181D02*
X-0022681Y0000278D01*
Y-0000722D02*
Y-0001222D01*
X-0022181Y-0000722D02*
X-0022681D01*
X-0022181Y-0001222D02*
Y-0000722D01*
X-0022681Y-0001222D02*
X-0022181D01*
Y-0000722D02*
X-0022681Y-0001222D01*
X-0022181D02*
X-0022681Y-0000722D01*
X-0029611Y0000428D02*
Y-0000072D01*
X-0029111Y0000428D02*
X-0029611D01*
X-0029111Y-0000072D02*
Y0000428D01*
X-0029611Y-0000072D02*
X-0029111D01*
Y0000428D02*
X-0029611Y-0000072D01*
X-0029111D02*
X-0029611Y0000428D01*
Y-0000572D02*
Y-0001072D01*
X-0029111Y-0000572D02*
X-0029611D01*
X-0029111Y-0001072D02*
Y-0000572D01*
X-0029611Y-0001072D02*
X-0029111D01*
Y-0000572D02*
X-0029611Y-0001072D01*
X-0029111D02*
X-0029611Y-0000572D01*
X-0036284Y0000441D02*
Y-0000059D01*
X-0035784Y0000441D02*
X-0036284D01*
X-0035784Y-0000059D02*
Y0000441D01*
X-0036284Y-0000059D02*
X-0035784D01*
Y0000441D02*
X-0036284Y-0000059D01*
X-0035784D02*
X-0036284Y0000441D01*
Y-0000559D02*
Y-0001059D01*
X-0035784Y-0000559D02*
X-0036284D01*
X-0035784Y-0001059D02*
Y-0000559D01*
X-0036284Y-0001059D02*
X-0035784D01*
Y-0000559D02*
X-0036284Y-0001059D01*
X-0035784D02*
X-0036284Y-0000559D01*
X-0036662Y-0006567D02*
Y-0007067D01*
X-0036162Y-0006567D02*
X-0036662D01*
X-0036162Y-0007067D02*
Y-0006567D01*
X-0036662Y-0007067D02*
X-0036162D01*
Y-0006567D02*
X-0036662Y-0007067D01*
X-0036162D02*
X-0036662Y-0006567D01*
X-0035662D02*
Y-0007067D01*
X-0035162Y-0006567D02*
X-0035662D01*
X-0035162Y-0007067D02*
Y-0006567D01*
X-0035662Y-0007067D02*
X-0035162D01*
Y-0006567D02*
X-0035662Y-0007067D01*
X-0035162D02*
X-0035662Y-0006567D01*
X-0035914Y-0011462D02*
Y-0011962D01*
X-0035414Y-0011462D02*
X-0035914D01*
X-0035414Y-0011962D02*
Y-0011462D01*
X-0035914Y-0011962D02*
X-0035414D01*
Y-0011462D02*
X-0035914Y-0011962D01*
X-0035414D02*
X-0035914Y-0011462D01*
Y-0010462D02*
Y-0010962D01*
X-0035414Y-0010462D02*
X-0035914D01*
X-0035414Y-0010962D02*
Y-0010462D01*
X-0035914Y-0010962D02*
X-0035414D01*
Y-0010462D02*
X-0035914Y-0010962D01*
X-0035414D02*
X-0035914Y-0010462D01*
X-0029278Y-0011434D02*
Y-0011934D01*
X-0028778Y-0011434D02*
X-0029278D01*
X-0028778Y-0011934D02*
Y-0011434D01*
X-0029278Y-0011934D02*
X-0028778D01*
Y-0011434D02*
X-0029278Y-0011934D01*
X-0028778D02*
X-0029278Y-0011434D01*
Y-0010434D02*
Y-0010934D01*
X-0028778Y-0010434D02*
X-0029278D01*
X-0028778Y-0010934D02*
Y-0010434D01*
X-0029278Y-0010934D02*
X-0028778D01*
Y-0010434D02*
X-0029278Y-0010934D01*
X-0028778D02*
X-0029278Y-0010434D01*
X-0022749Y-0011592D02*
Y-0012092D01*
X-0022249Y-0011592D02*
X-0022749D01*
X-0022249Y-0012092D02*
Y-0011592D01*
X-0022749Y-0012092D02*
X-0022249D01*
Y-0011592D02*
X-0022749Y-0012092D01*
X-0022249D02*
X-0022749Y-0011592D01*
Y-0010592D02*
Y-0011092D01*
X-0022249Y-0010592D02*
X-0022749D01*
X-0022249Y-0011092D02*
Y-0010592D01*
X-0022749Y-0011092D02*
X-0022249D01*
Y-0010592D02*
X-0022749Y-0011092D01*
X-0022249D02*
X-0022749Y-0010592D01*
X-0024352Y-0004597D02*
Y-0005097D01*
X-0023852Y-0004597D02*
X-0024352D01*
X-0023852Y-0005097D02*
Y-0004597D01*
X-0024352Y-0005097D02*
X-0023852D01*
Y-0004597D02*
X-0024352Y-0005097D01*
X-0023852D02*
X-0024352Y-0004597D01*
X-0025352D02*
Y-0005097D01*
X-0024852Y-0004597D02*
X-0025352D01*
X-0024852Y-0005097D02*
Y-0004597D01*
X-0025352Y-0005097D02*
X-0024852D01*
Y-0004597D02*
X-0025352Y-0005097D01*
X-0024852D02*
X-0025352Y-0004597D01*
X-0024912Y0000289D02*
Y-0000211D01*
X-0024412Y0000289D02*
X-0024912D01*
X-0024412Y-0000211D02*
Y0000289D01*
X-0024912Y-0000211D02*
X-0024412D01*
Y0000289D02*
X-0024912Y-0000211D01*
X-0024412D02*
X-0024912Y0000289D01*
Y-0000711D02*
Y-0001211D01*
X-0024412Y-0000711D02*
X-0024912D01*
X-0024412Y-0001211D02*
Y-0000711D01*
X-0024912Y-0001211D02*
X-0024412D01*
Y-0000711D02*
X-0024912Y-0001211D01*
X-0024412D02*
X-0024912Y-0000711D01*
X-0031774Y0000389D02*
Y-0000111D01*
X-0031274Y0000389D02*
X-0031774D01*
X-0031274Y-0000111D02*
Y0000389D01*
X-0031774Y-0000111D02*
X-0031274D01*
Y0000389D02*
X-0031774Y-0000111D01*
X-0031274D02*
X-0031774Y0000389D01*
Y-0000611D02*
Y-0001111D01*
X-0031274Y-0000611D02*
X-0031774D01*
X-0031274Y-0001111D02*
Y-0000611D01*
X-0031774Y-0001111D02*
X-0031274D01*
Y-0000611D02*
X-0031774Y-0001111D01*
X-0031274D02*
X-0031774Y-0000611D01*
X-0038487Y0000441D02*
Y-0000059D01*
X-0037987Y0000441D02*
X-0038487D01*
X-0037987Y-0000059D02*
Y0000441D01*
X-0038487Y-0000059D02*
X-0037987D01*
Y0000441D02*
X-0038487Y-0000059D01*
X-0037987D02*
X-0038487Y0000441D01*
Y-0000559D02*
Y-0001059D01*
X-0037987Y-0000559D02*
X-0038487D01*
X-0037987Y-0001059D02*
Y-0000559D01*
X-0038487Y-0001059D02*
X-0037987D01*
Y-0000559D02*
X-0038487Y-0001059D01*
X-0037987D02*
X-0038487Y-0000559D01*
X-0042230Y-0004130D02*
X-0042730D01*
X-0042480Y-0003880D02*
Y-0004380D01*
X-0042230Y-0005130D02*
X-0042730D01*
X-0042480Y-0004880D02*
Y-0005380D01*
X-0042230Y-0006130D02*
X-0042730D01*
X-0042480Y-0005880D02*
Y-0006380D01*
X-0042230Y-0007130D02*
X-0042730D01*
X-0042480Y-0006880D02*
Y-0007380D01*
G54D28*
G01X-0043975Y0008142D02*
Y-0019509D01*
X-0016323D01*
Y0008142D01*
X-0043975D01*
M02*
