%
T2C0.038F200S100
X-042480Y-007130
X-042480Y-006130
X-042480Y-005130
X-042480Y-004130
X-023875Y025999
X-023875Y026999
X-023875Y027999
X-023875Y028999
T1C0.031F200S100
X-038615Y-006778
X-038576Y-004654
X-038248Y001382
X-038248Y002382
X-038237Y-000809
X-038237Y000191
X-037799Y-011645
X-037799Y-010645
X-037760Y-013786
X-037760Y-012786
X-037615Y-006778
X-037576Y-004654
X-036452Y-004693
X-036412Y-006817
X-036073Y001371
X-036073Y002371
X-036034Y-000809
X-036034Y000191
X-035664Y-011712
X-035664Y-010712
X-035636Y-013864
X-035636Y-012864
X-035452Y-004693
X-035412Y-006817
X-031590Y001275
X-031590Y002275
X-031524Y-000861
X-031524Y000139
X-031231Y-011724
X-031231Y-010724
X-031191Y-013864
X-031191Y-012864
X-029427Y001275
X-029427Y002275
X-029361Y-000822
X-029361Y000178
X-029067Y-013825
X-029067Y-012825
X-029028Y-011684
X-029028Y-010684
X-025173Y-013943
X-025173Y-012943
X-025141Y-006971
X-025102Y-004847
X-024662Y-011802
X-024662Y-010802
X-024662Y-000961
X-024662Y000039
X-024623Y001219
X-024623Y002219
X-024141Y-006971
X-024102Y-004847
X-022978Y-006893
X-022899Y-004690
X-022538Y001219
X-022538Y002219
X-022499Y-013943
X-022499Y-012943
X-022499Y-011842
X-022499Y-010842
X-022431Y-000972
X-022431Y000028
X-021978Y-006893
X-021899Y-004690
T3C0.064F200S100
X-050268Y025999
X-050268Y029308
X-044722Y025092
X-044722Y026747
X-040709Y-007359
X-040709Y-004050
X-039862Y-002107
X-039862Y001202
X-039686Y-007359
X-039686Y-004050
X-039412Y-012790
X-039412Y-009482
X-038940Y029326
X-038940Y030326
X-038901Y024663
X-038901Y028163
X-038057Y003444
X-038057Y004388
X-037959Y-016009
X-037959Y-014947
X-037648Y-003069
X-037507Y025022
X-037507Y028022
X-037451Y-008458
X-037367Y029421
X-037367Y030367
X-035636Y025291
X-035597Y028291
X-034749Y003444
X-034749Y004388
X-034650Y-016009
X-034650Y-014947
X-034597Y025291
X-034597Y028291
X-034434Y-002107
X-034434Y001202
X-034339Y-003069
X-034142Y-008458
X-034023Y-012948
X-034023Y-009639
X-033709Y002473
X-033709Y005782
X-033597Y025291
X-033597Y028291
X-033352Y-017466
X-033352Y-014158
X-033216Y-002103
X-033216Y001205
X-032843Y-012869
X-032843Y-009560
X-032597Y025291
X-032597Y028291
X-031550Y030011
X-031427Y025095
X-031427Y028403
X-030527Y028281
X-030449Y025252
X-030444Y026550
X-029444Y027300
X-028444Y026550
X-028241Y030011
X-027748Y-002064
X-027748Y001245
X-027376Y-012948
X-027376Y-009639
X-027219Y002788
X-027219Y006097
X-027219Y028281
X-027216Y-017466
X-027216Y-014158
X-027213Y026707
X-027140Y025252
X-026411Y-008595
X-026332Y-003167
X-026275Y-012908
X-026275Y-009600
X-026238Y-016048
X-026238Y-015025
X-026235Y-002124
X-026235Y001185
X-026213Y025957
X-026117Y028562
X-026117Y030562
X-025687Y003380
X-025687Y004482
X-025367Y029562
X-025213Y026707
X-023102Y-008595
X-023024Y-003167
X-022929Y-016048
X-022929Y-015025
X-022378Y003380
X-022378Y004482
X-020886Y-012987
X-020886Y-009678
X-020847Y-002163
X-020847Y001145
X-020789Y-007300
X-020789Y-003991
X-019687Y-007300
X-019687Y-003991
T4C0.070F200S100
X-043699Y000315
X-043621Y-012036
X-043267Y000826
X-043109Y-012508
X-042755Y001298
X-042637Y-013019
X-042283Y001809
X-042165Y-013491
X-041811Y002281
X-041654Y-013963
X-041339Y002793
X-041182Y-014435
X-040828Y003304
X-040710Y-014947
X-040356Y003776
X-040199Y-015419
X-039845Y004248
X-039727Y-015930
X-039373Y004759
X-039255Y-016441
X-038901Y005192
X-038783Y-016913
X-038429Y005703
X-038311Y-017385
X-037957Y006175
X-037799Y-017857
X-037445Y006647
X-037327Y-018369
X-036973Y007159
X-036855Y-018841
X-036462Y007631
X-036383Y-019313
X-032647Y-006923
X-032647Y-006215
X-032647Y-005507
X-032647Y-004799
X-032411Y-004130
X-032293Y-007513
X-031899Y-008103
X-031899Y-003697
X-031231Y-008339
X-030523Y-008339
X-030523Y-003422
X-031231Y-003422
X-029815Y-008339
X-029107Y-008339
X-029107Y-003422
X-029815Y-003422
X-028517Y-007985
X-028477Y-003619
X-028045Y-007473
X-027651Y-006883
X-027651Y-006175
X-027651Y-005467
X-027651Y-004759
X-028045Y-004169
X-023915Y007670
X-023836Y-019234
X-023403Y007198
X-023325Y-018762
X-022931Y006687
X-022853Y-018290
X-022459Y006215
X-022381Y-017818
X-021987Y005743
X-021909Y-017307
X-021515Y005231
X-021397Y-016835
X-021043Y004759
X-020925Y-016323
X-020532Y004287
X-020453Y-015851
X-020060Y003776
X-019981Y-015379
X-019549Y003304
X-019470Y-014907
X-019037Y002832
X-018998Y-014396
X-018565Y002360
X-018487Y-013924
X-018093Y001849
X-018015Y-013413
X-017582Y001377
X-017503Y-012941
X-017149Y000865
X-017031Y-012429
X-016638Y000393
X-016520Y-011957
T6C0.129F200S100
X-030169Y-017661
X-030129Y005861
T5C0.079F200S100
X-050307Y030523
X-050268Y024544
X-048773Y028045
X-048734Y029854
X-048419Y025016
X-046419Y025016
X-045110Y028045
X-045071Y029854
X-043896Y028084
X-043857Y029893
X-040233Y028084
X-040193Y029893
M30
