*
G04 Mass Parameters ***
*
G04 Image ***
*
%INE:\DANH\ROBOT\ORCAD PROJECTS\COMERCIAL PROJECTS\COM_PRJ20\COM_PRJ20.SMT*%
%ICAS*%
%MOIN*%
%IPPOS*%
%ASAXBY*%
G74*%FSLAN2X34Y34*%
*
G04 Aperture Definitions ***
*
%ADD10C,0.0799*%
%ADD11C,0.1039*%
%ADD12C,0.0900*%
%ADD13R,0.0799X0.0799*%
%ADD14C,0.0100*%
%ADD15C,0.0080*%
%ADD16C,0.0120*%
%ADD17C,0.0787*%
%ADD18C,0.0790*%
%ADD19C,0.1181*%
%ADD20C,0.0984*%
%ADD21R,0.0984X0.0984*%
%ADD22C,0.0709*%
%ADD23C,0.0760*%
%ADD24C,0.0840*%
%ADD25C,0.0700*%
%ADD26C,0.0720*%
%ADD27C,0.0750*%
%ADD28C,0.0830*%
%ADD29C,0.0520*%
*
G04 Plot Data ***
*
G54D12*
X-0044722Y0025092D03*
G54D17*
X-0027219Y0028281D03*
X-0030527D03*
X-0028241Y0030011D03*
X-0031550D03*
X-0027140Y0025252D03*
X-0030449D03*
X-0031427Y0025095D03*
Y0028403D03*
X-0050268Y0025999D03*
Y0029308D03*
X-0038912Y0030315D03*
Y0029315D03*
X-0037367Y0029421D03*
Y0030367D03*
X-0050268Y0024544D03*
X-0050307Y0030523D03*
X-0035754Y0025173D03*
X-0034715D03*
X-0033715D03*
X-0032715D03*
Y0028173D03*
X-0033715D03*
X-0034715D03*
X-0035715D03*
G54D18*
X-0044722Y0026747D03*
G54D19*
X-0048773Y0028045D03*
X-0045110D03*
X-0043896Y0028084D03*
X-0040233D03*
X-0048734Y0029854D03*
X-0045071D03*
X-0043857Y0029893D03*
X-0040193D03*
G54D20*
X-0037501Y0025157D03*
G54D21*
Y0028157D03*
G54D22*
X-0048419Y0025016D03*
X-0046419D03*
G54D25*
X-0029444Y0027300D03*
X-0028444Y0026550D03*
X-0025096Y0029285D03*
X-0025846Y0028285D03*
X-0026173Y0026154D03*
X-0027173Y0026904D03*
G54D27*
X-0023993Y0026999D03*
Y0027999D03*
Y0028999D03*
G54D28*
X-0030444Y0026550D03*
X-0025846Y0030285D03*
X-0025173Y0026904D03*
X-0023993Y0025999D03*
G54D29*
X-0038901Y0028281D03*
Y0024781D03*
M02*
