*
G04 Mass Parameters ***
*
G04 Image ***
*
%INE:\DANH\ROBOT\ORCAD PROJECTS\COMERCIAL PROJECTS\COM_PRJ20\COM_PRJ20.AST*%
%ICAS*%
%MOIN*%
%IPPOS*%
%ASAXBY*%
G74*%FSLAN2X34Y34*%
*
G04 Aperture Definitions ***
*
%ADD10C,0.0799*%
%ADD11C,0.1039*%
%ADD12C,0.0900*%
%ADD13R,0.0799X0.0799*%
%ADD14C,0.0100*%
%ADD15C,0.0080*%
%ADD16C,0.0120*%
%ADD17C,0.0787*%
%ADD18C,0.0790*%
%ADD19C,0.1181*%
%ADD20C,0.0984*%
%ADD21R,0.0984X0.0984*%
%ADD22C,0.0709*%
%ADD23C,0.0760*%
%ADD24C,0.0840*%
%ADD25C,0.0700*%
%ADD26C,0.0720*%
%ADD27C,0.0750*%
%ADD28C,0.0830*%
%ADD29C,0.0520*%
%ADD30C,0.0039*%
%ADD31C,0.0090*%
%ADD32C,0.0083*%
%ADD33C,0.0079*%
%ADD34C,0.0020*%
%ADD35C,0.0118*%
%ADD36C,0.0010*%
%ADD37C,0.0550*%
%ADD38R,0.0550X0.0550*%
*
G04 Plot Data ***
*
G54D15*
G01X-0028475Y0026149D02*
X-0028702Y0025808D01*
X-0028694Y0025800D02*
X-0030178D01*
X-0030186Y0025808D01*
X-0030413Y0026149D01*
X-0038901Y0027531D02*
X-0039401D01*
Y0025531D01*
X-0038901D01*
X-0038401D01*
Y0027531D01*
X-0038901D01*
Y0027781D01*
Y0025281D02*
Y0025531D01*
X-0027142Y0027305D02*
X-0026915Y0027646D01*
X-0026923Y0027654D02*
X-0025439D01*
X-0025431Y0027646D01*
X-0025204Y0027305D01*
X-0026247Y0028316D02*
X-0026588Y0028543D01*
X-0026596Y0028535D02*
Y0030019D01*
X-0026588Y0030027D01*
X-0026247Y0030254D01*
G54D33*
G01X-0027246Y0028281D02*
X-0027496D01*
X-0027167Y0025252D02*
X-0027417D01*
X-0028269Y0030011D02*
X-0028519D01*
X-0031427Y0025122D02*
Y0025372D01*
X-0050268Y0026027D02*
Y0026277D01*
G54D17*
X-0027219Y0028281D03*
X-0030527D03*
X-0028241Y0030011D03*
X-0031550D03*
X-0027140Y0025252D03*
X-0030449D03*
X-0031427Y0025095D03*
Y0028403D03*
X-0050268Y0025999D03*
Y0029308D03*
X-0038912Y0030315D03*
Y0029315D03*
X-0037367Y0029421D03*
Y0030367D03*
X-0050268Y0024544D03*
X-0050307Y0030523D03*
X-0035754Y0025173D03*
X-0034715D03*
X-0033715D03*
X-0032715D03*
Y0028173D03*
X-0033715D03*
X-0034715D03*
X-0035715D03*
G54D19*
X-0048773Y0028045D03*
X-0045110D03*
X-0043896Y0028084D03*
X-0040233D03*
X-0048734Y0029854D03*
X-0045071D03*
X-0043857Y0029893D03*
X-0040193D03*
G54D29*
X-0038901Y0028281D03*
Y0024781D03*
G54D37*
X-0044722Y0025092D03*
G54D38*
Y0026747D03*
M02*
