*
G04 Mass Parameters ***
*
G04 Image ***
*
%INE:\DANH\ROBOT\ORCAD PROJECTS\COMERCIAL PROJECTS\COM_PRJ20\COM_PRJ20.BOT*%
%ICAS*%
%MOIN*%
%IPPOS*%
%ASAXBY*%
G74*%FSLAN2X34Y34*%
*
G04 Aperture Definitions ***
*
%ADD10C,0.0799*%
%ADD11C,0.1039*%
%ADD12C,0.0900*%
%ADD13R,0.0799X0.0799*%
%ADD14C,0.0100*%
%ADD15C,0.0080*%
%ADD16C,0.0120*%
*
G04 Plot Data ***
*
G54D15*
G01X-0048183Y0023561D02*
X-0023128D01*
Y0031506D01*
X-0023167Y0031585D01*
X-0051959D01*
Y0023561D01*
X-0048183D01*
G54D16*
G01X-0038912Y0029315D02*
X-0038187D01*
X-0038125D01*
Y0029421D01*
X-0037367D01*
X-0031500Y0028375D02*
X-0031375D01*
X-0031427Y0028403D01*
X-0037501Y0025157D02*
X-0038901D01*
Y0024781D01*
X-0038912Y0029315D02*
X-0038187D01*
Y0029359D01*
X-0038125Y0029421D01*
X-0037367D01*
X-0023993Y0028999D02*
X-0023375Y0029000D01*
Y0024000D01*
X-0035750D01*
X-0035754Y0025173D01*
X-0036625D01*
Y0025250D01*
X-0036750D01*
Y0025157D01*
X-0037501D01*
X-0038901Y0024781D02*
Y0025157D01*
Y0025500D01*
X-0038776Y0025625D01*
X-0038437D01*
X-0038187Y0025875D01*
Y0029315D01*
X-0038912D01*
Y0030315D02*
X-0039000D01*
Y0030500D01*
X-0039250Y0030750D01*
X-0042500D01*
X-0042750Y0030500D01*
Y0027125D01*
X-0044625Y0025250D01*
Y0025092D01*
X-0044722D01*
X-0048734Y0029854D02*
X-0047875D01*
X-0047750Y0029979D01*
Y0030500D01*
X-0047500Y0030750D01*
X-0043000D01*
X-0042750Y0030500D01*
Y0027125D01*
X-0044625Y0025250D01*
Y0025092D01*
X-0044722D01*
X-0025846Y0028285D02*
X-0026000D01*
Y0028375D01*
X-0026500D01*
Y0028750D01*
X-0026750Y0029000D01*
X-0028500D01*
X-0030625Y0031125D01*
X-0034875D01*
X-0035125Y0030875D01*
Y0029250D01*
X-0035375Y0029000D01*
X-0035590D01*
X-0035715Y0028875D01*
Y0028173D01*
X-0027173Y0026904D02*
X-0027375D01*
X-0026654Y0027625D01*
X-0026625D01*
X-0026500Y0027750D01*
Y0028375D01*
X-0026000D01*
Y0028285D01*
X-0025846D01*
X-0037501Y0028157D02*
X-0036750Y0029000D01*
X-0036625Y0029125D01*
Y0030125D01*
X-0036875Y0030375D01*
X-0037250D01*
X-0037258Y0030367D01*
X-0037367D01*
X-0038125D01*
Y0030315D01*
X-0038815D01*
X-0039000Y0030500D01*
Y0030315D01*
X-0038912D01*
X-0028444Y0026550D02*
X-0027625D01*
Y0026654D01*
X-0027375Y0026904D01*
X-0027173D01*
X-0044722Y0026747D02*
Y0026000D01*
X-0044847Y0025875D01*
X-0045250D01*
X-0045500Y0025625D01*
Y0024625D01*
X-0045250Y0024375D01*
X-0043875D01*
X-0041125Y0027125D01*
X-0040358D01*
X-0040233Y0027250D01*
Y0028084D01*
X-0045071Y0029854D02*
X-0045875D01*
X-0046000Y0029729D01*
Y0029250D01*
X-0048000Y0027250D01*
X-0049375D01*
X-0049625Y0027500D01*
Y0028250D01*
X-0049875Y0028500D01*
X-0050143D01*
X-0050268Y0028625D01*
Y0029290D01*
X-0050250Y0029308D01*
X-0050268D01*
X-0046419Y0025016D02*
Y0025875D01*
X-0046294Y0026000D01*
X-0046125D01*
X-0045875Y0026250D01*
Y0027250D01*
X-0045709D01*
X-0044914Y0028045D01*
X-0045110D01*
X-0035715Y0028173D02*
X-0036500D01*
Y0028250D01*
X-0036750D01*
Y0028157D01*
X-0037501D01*
X-0043857Y0029893D02*
X-0044000D01*
Y0030000D01*
X-0044125Y0029875D01*
Y0029854D01*
X-0045071D01*
X-0038901Y0028281D02*
X-0039000D01*
X-0039250Y0028531D01*
Y0028625D01*
X-0039375Y0028750D01*
X-0039943D01*
X-0040193Y0029000D01*
Y0029893D01*
X-0045110Y0028045D02*
X-0044914D01*
X-0044875Y0028084D01*
X-0043896D01*
X-0048419Y0025016D02*
X-0049250D01*
X-0049375Y0024891D01*
Y0024544D01*
X-0050250D01*
X-0050268D01*
X-0048773Y0028045D02*
Y0029000D01*
X-0048734D01*
Y0029854D01*
X-0045110Y0028045D02*
X-0044914D01*
X-0044875D01*
Y0028084D01*
X-0043896D01*
X-0050268Y0024544D02*
X-0050250D01*
Y0025875D01*
X-0050268D01*
Y0025999D01*
X-0023993D02*
Y0025125D01*
X-0024000D01*
X-0024250Y0024875D01*
Y0024750D01*
X-0024500Y0024500D01*
X-0028375D01*
X-0029750Y0025875D01*
X-0030444Y0026550D01*
X-0026173Y0026154D02*
X-0027000D01*
Y0026125D01*
X-0027015D01*
X-0027140Y0026000D01*
Y0025252D01*
X-0032715Y0025173D02*
X-0031875D01*
Y0025250D01*
X-0031625D01*
X-0031500Y0025125D01*
Y0025095D01*
X-0031427D01*
X-0033715Y0025173D02*
X-0033000Y0024500D01*
X-0032125D01*
X-0032000Y0024375D01*
X-0030750D01*
X-0030625Y0024500D01*
Y0025252D01*
X-0030449D01*
X-0040233Y0028084D02*
Y0029000D01*
X-0040193D01*
Y0029893D01*
X-0037367Y0030367D02*
X-0037250D01*
Y0030375D01*
X-0036875D01*
X-0036625Y0030125D01*
Y0029125D01*
X-0036750Y0029000D01*
X-0037501Y0028157D01*
X-0025096Y0029285D02*
X-0025875D01*
Y0029375D01*
X-0026000Y0029500D01*
X-0027125D01*
X-0027375Y0029750D01*
Y0029886D01*
X-0027500Y0030011D01*
X-0028241D01*
X-0050268Y0029308D02*
X-0050250D01*
Y0030375D01*
X-0050307D01*
Y0030523D01*
X-0029444Y0027300D02*
X-0028625D01*
Y0027375D01*
X-0028250D01*
X-0028000Y0027625D01*
Y0028156D01*
X-0027875Y0028281D01*
X-0027219D01*
X-0025173Y0026904D02*
X-0024750D01*
Y0027999D01*
X-0023993D01*
X-0031550Y0030011D02*
X-0032250D01*
X-0032375Y0029886D01*
Y0029500D01*
X-0033000Y0028875D01*
X-0033715Y0028173D01*
X-0025846Y0030285D02*
X-0025811Y0030250D01*
X-0025750Y0030375D01*
X-0034715Y0028173D02*
Y0028875D01*
X-0034590Y0029000D01*
X-0034250D01*
X-0034000Y0029250D01*
Y0030500D01*
X-0033750Y0030750D01*
X-0031000D01*
X-0030750Y0030500D01*
Y0028125D01*
X-0031250Y0027625D01*
X-0030527Y0028281D01*
G54D10*
X-0027219D03*
X-0030527D03*
X-0028241Y0030011D03*
X-0031550D03*
X-0027140Y0025252D03*
X-0030449D03*
X-0031427Y0025095D03*
Y0028403D03*
X-0038901Y0028281D03*
Y0024781D03*
X-0050268Y0025999D03*
Y0029308D03*
X-0030444Y0026550D03*
X-0029444Y0027300D03*
X-0028444Y0026550D03*
X-0025846Y0030285D03*
X-0025096Y0029285D03*
X-0025846Y0028285D03*
X-0025173Y0026904D03*
X-0026173Y0026154D03*
X-0027173Y0026904D03*
X-0023993Y0025999D03*
Y0026999D03*
Y0027999D03*
Y0028999D03*
X-0038912Y0030315D03*
Y0029315D03*
X-0037367Y0029421D03*
Y0030367D03*
X-0044722Y0026747D03*
Y0025092D03*
X-0035754Y0025173D03*
X-0034715D03*
X-0033715D03*
X-0032715D03*
Y0028173D03*
X-0033715D03*
X-0034715D03*
X-0035715D03*
G54D11*
X-0048419Y0025016D03*
X-0046419D03*
X-0048773Y0028045D03*
X-0045110D03*
X-0043896Y0028084D03*
X-0040233D03*
X-0048734Y0029854D03*
X-0045071D03*
X-0043857Y0029893D03*
X-0040193D03*
X-0050268Y0024544D03*
X-0050307Y0030523D03*
G54D12*
X-0037501Y0025157D03*
G54D13*
Y0028157D03*
M02*
