*
G04 Mass Parameters ***
*
G04 Image ***
*
%INE:\DANH\ROBOT\ORCAD PROJECTS\COMERCIAL PROJECTS\COM_PRJ20\COM_PRJ20.TOP*%
%ICAS*%
%MOIN*%
%IPPOS*%
%ASAXBY*%
G74*%FSLAN2X34Y34*%
*
G04 Aperture Definitions ***
*
%ADD10C,0.0799*%
%ADD11C,0.1039*%
%ADD12C,0.0900*%
%ADD13R,0.0799X0.0799*%
%ADD14C,0.0100*%
*
G04 Plot Data ***
*
G54D14*
G01X-0047294Y0024891D02*
X-0047336Y0024808D01*
X-0047419D01*
X-0047503Y0024974D01*
X-0047586D01*
X-0047628Y0024891D01*
G54D10*
X-0027219Y0028281D03*
X-0030527D03*
X-0028241Y0030011D03*
X-0031550D03*
X-0027140Y0025252D03*
X-0030449D03*
X-0031427Y0025095D03*
Y0028403D03*
X-0038901Y0028281D03*
Y0024781D03*
X-0050268Y0025999D03*
Y0029308D03*
X-0029444Y0027300D03*
X-0028444Y0026550D03*
X-0025096Y0029285D03*
X-0025846Y0028285D03*
X-0026173Y0026154D03*
X-0027173Y0026904D03*
X-0023993Y0026999D03*
Y0027999D03*
Y0028999D03*
X-0038912Y0030315D03*
Y0029315D03*
X-0037367Y0029421D03*
Y0030367D03*
X-0044722Y0026747D03*
Y0025092D03*
X-0035754Y0025173D03*
X-0034715D03*
X-0033715D03*
X-0032715D03*
Y0028173D03*
X-0033715D03*
X-0034715D03*
X-0035715D03*
G54D11*
X-0048419Y0025016D03*
X-0046419D03*
X-0048773Y0028045D03*
X-0045110D03*
X-0043896Y0028084D03*
X-0040233D03*
X-0048734Y0029854D03*
X-0045071D03*
X-0043857Y0029893D03*
X-0040193D03*
X-0050268Y0024544D03*
X-0050307Y0030523D03*
G54D12*
X-0037501Y0025157D03*
G54D13*
X-0030444Y0026550D03*
X-0025846Y0030285D03*
X-0025173Y0026904D03*
X-0023993Y0025999D03*
X-0037501Y0028157D03*
M02*
