*
G04 Mass Parameters ***
*
G04 Image ***
*
%INE:\DANH\ROBOT\ORCAD PROJECTS\COMERCIAL PROJECTS\COM_PRJ20\COM_PRJ20.DRD*%
%ICAS*%
%MOIN*%
%IPPOS*%
%ASAXBY*%
G74*%FSLAN2X34Y34*%
*
G04 Aperture Definitions ***
*
%ADD10C,0.0799*%
%ADD11C,0.1039*%
%ADD12C,0.0900*%
%ADD13R,0.0799X0.0799*%
%ADD14C,0.0100*%
%ADD15C,0.0080*%
%ADD16C,0.0120*%
%ADD17C,0.0787*%
%ADD18C,0.0790*%
%ADD19C,0.1181*%
%ADD20C,0.0984*%
%ADD21R,0.0984X0.0984*%
%ADD22C,0.0709*%
%ADD23C,0.0760*%
%ADD24C,0.0840*%
%ADD25C,0.0700*%
%ADD26C,0.0720*%
%ADD27C,0.0750*%
%ADD28C,0.0830*%
%ADD29C,0.0520*%
%ADD30C,0.0039*%
%ADD31C,0.0090*%
%ADD32C,0.0083*%
%ADD33C,0.0079*%
%ADD34C,0.0020*%
%ADD35C,0.0118*%
%ADD36C,0.0010*%
%ADD37C,0.0550*%
%ADD38R,0.0550X0.0550*%
*
G04 Plot Data ***
*
G54D14*
G01X0024042Y-0009667D02*
X0024208Y-0009833D01*
X0024542D01*
X0024708Y-0009667D01*
Y-0009500D01*
X0024375Y-0009167D01*
X0024708Y-0008833D01*
X0024042D01*
X0023092Y-0009667D02*
X0023175Y-0009833D01*
X0023675D01*
X0023758Y-0009667D01*
Y-0009333D01*
X0023592Y-0009167D01*
X0023092D01*
Y-0008833D01*
X0023758D01*
X0012312Y-0009833D02*
X0011729D01*
Y-0008833D01*
X0011446Y-0009500D02*
X0010779D01*
X0011446Y-0009833D02*
Y-0009333D01*
X0011196Y-0008833D01*
X0011029D01*
X0010779Y-0009333D01*
Y-0009833D01*
X0010162D02*
Y-0008833D01*
X0010496D02*
X0009829D01*
X0008962Y-0009833D02*
X0008879Y-0009667D01*
Y-0009000D01*
X0008962Y-0008833D01*
X0009462D01*
X0009546Y-0009000D01*
Y-0009667D01*
X0009462Y-0009833D01*
X0008962D01*
X0008262D02*
Y-0008833D01*
X0008596D02*
X0007929D01*
X0024708Y-0007972D02*
X0024264D01*
X0024708Y-0007528D01*
Y-0007417D01*
X0024653Y-0007306D01*
X0024319D01*
X0024264Y-0007417D01*
X0024008Y-0007972D02*
X0023786D01*
X0023897D02*
Y-0007306D01*
X0023786Y-0007417D01*
X0010869Y-0007972D02*
Y-0007639D01*
X0011092Y-0007972D02*
Y-0007639D01*
X0011036Y-0007528D01*
X0010925D01*
X0010869Y-0007639D01*
X0010814Y-0007528D01*
X0010703D01*
X0010647Y-0007639D01*
Y-0007972D01*
X0010169D02*
Y-0007639D01*
X0010392Y-0007972D02*
Y-0007639D01*
X0010336Y-0007528D01*
X0010225D01*
X0010169Y-0007639D01*
X0010114Y-0007528D01*
X0010003D01*
X0009947Y-0007639D01*
Y-0007972D01*
X0008686Y-0007639D02*
X0008353D01*
X0008297Y-0007528D01*
Y-0007417D01*
X0008353Y-0007306D01*
X0008686D01*
X0008742Y-0007417D01*
Y-0007528D01*
X0008519Y-0007972D01*
X0008042D02*
X0007597D01*
X0008042Y-0007528D01*
Y-0007417D01*
X0007986Y-0007306D01*
X0007653D01*
X0007597Y-0007417D01*
X0007064Y-0007972D02*
X0006953Y-0007861D01*
X0006897Y-0007750D01*
Y-0007528D01*
X0006953Y-0007417D01*
X0007064Y-0007306D01*
X0007175D01*
X0007286Y-0007417D01*
X0007342Y-0007528D01*
Y-0007750D01*
X0007286Y-0007861D01*
X0007175Y-0007972D01*
X0007064D01*
X0006531D02*
X0006642D01*
Y-0007861D01*
X0006531D01*
Y-0007972D01*
X0006164D02*
X0005719D01*
X0006164Y-0007528D01*
Y-0007417D01*
X0006108Y-0007306D01*
X0005775D01*
X0005719Y-0007417D01*
X0024430Y-0006472D02*
X0024319Y-0006361D01*
X0024264Y-0006250D01*
Y-0006028D01*
X0024319Y-0005917D01*
X0024430Y-0005806D01*
X0024542D01*
X0024653Y-0005917D01*
X0024708Y-0006028D01*
Y-0006250D01*
X0024653Y-0006361D01*
X0024542Y-0006472D01*
X0024430D01*
X0024008Y-0006250D02*
X0023564D01*
X0023786Y-0005806D01*
X0023897D01*
Y-0006472D01*
X0010869D02*
Y-0006139D01*
X0011092Y-0006472D02*
Y-0006139D01*
X0011036Y-0006028D01*
X0010925D01*
X0010869Y-0006139D01*
X0010814Y-0006028D01*
X0010703D01*
X0010647Y-0006139D01*
Y-0006472D01*
X0010169D02*
Y-0006139D01*
X0010392Y-0006472D02*
Y-0006139D01*
X0010336Y-0006028D01*
X0010225D01*
X0010169Y-0006139D01*
X0010114Y-0006028D01*
X0010003D01*
X0009947Y-0006139D01*
Y-0006472D01*
X0008464D02*
X0008353Y-0006361D01*
X0008297Y-0006250D01*
Y-0006028D01*
X0008353Y-0005917D01*
X0008464Y-0005806D01*
X0008575D01*
X0008686Y-0005917D01*
X0008742Y-0006028D01*
Y-0006250D01*
X0008686Y-0006361D01*
X0008575Y-0006472D01*
X0008464D01*
X0008042Y-0006250D02*
X0007597D01*
X0007819Y-0005806D01*
X0007930D01*
Y-0006472D01*
X0006953Y-0006139D02*
X0007286D01*
X0007342Y-0006250D01*
Y-0006361D01*
X0007286Y-0006472D01*
X0006953D01*
X0006897Y-0006361D01*
Y-0006250D01*
X0007119Y-0005806D01*
X0006531Y-0006472D02*
X0006642D01*
Y-0006361D01*
X0006531D01*
Y-0006472D01*
X0006164D02*
X0005942D01*
X0006053D02*
Y-0005806D01*
X0005942Y-0005917D01*
X0024708Y-0004972D02*
X0024486D01*
X0024597D02*
Y-0004306D01*
X0024486Y-0004417D01*
X0010869Y-0004972D02*
Y-0004639D01*
X0011092Y-0004972D02*
Y-0004639D01*
X0011036Y-0004528D01*
X0010925D01*
X0010869Y-0004639D01*
X0010814Y-0004528D01*
X0010703D01*
X0010647Y-0004639D01*
Y-0004972D01*
X0010169D02*
Y-0004639D01*
X0010392Y-0004972D02*
Y-0004639D01*
X0010336Y-0004528D01*
X0010225D01*
X0010169Y-0004639D01*
X0010114Y-0004528D01*
X0010003D01*
X0009947Y-0004639D01*
Y-0004972D01*
X0008464D02*
X0008353Y-0004861D01*
X0008297Y-0004750D01*
Y-0004528D01*
X0008353Y-0004417D01*
X0008464Y-0004306D01*
X0008575D01*
X0008686Y-0004417D01*
X0008742Y-0004528D01*
Y-0004750D01*
X0008686Y-0004861D01*
X0008575Y-0004972D01*
X0008464D01*
X0007764D02*
X0007653Y-0004861D01*
X0007597Y-0004750D01*
Y-0004528D01*
X0007653Y-0004417D01*
X0007764Y-0004306D01*
X0007875D01*
X0007986Y-0004417D01*
X0008042Y-0004528D01*
Y-0004750D01*
X0007986Y-0004861D01*
X0007875Y-0004972D01*
X0007764D01*
X0007286Y-0004639D02*
X0007342Y-0004528D01*
Y-0004417D01*
X0007286Y-0004306D01*
X0006953D01*
X0006897Y-0004417D01*
Y-0004528D01*
X0006953Y-0004639D01*
X0007286D01*
X0007342Y-0004750D01*
Y-0004861D01*
X0007286Y-0004972D01*
X0006953D01*
X0006897Y-0004861D01*
Y-0004750D01*
X0006953Y-0004639D01*
X0006531Y-0004972D02*
X0006642D01*
Y-0004861D01*
X0006531D01*
Y-0004972D01*
X0005886D02*
X0005775Y-0004861D01*
X0005719Y-0004750D01*
Y-0004528D01*
X0005775Y-0004417D01*
X0005886Y-0004306D01*
X0005997D01*
X0006108Y-0004417D01*
X0006164Y-0004528D01*
Y-0004750D01*
X0006108Y-0004861D01*
X0005997Y-0004972D01*
X0005886D01*
X0033112Y-0002833D02*
X0032612D01*
X0033279Y-0003333D02*
X0032612D01*
Y-0002333D01*
X0033279D01*
X0031996Y-0003333D02*
Y-0002333D01*
X0032329D02*
X0031662D01*
X0030796Y-0003333D02*
X0030712Y-0003167D01*
Y-0002500D01*
X0030796Y-0002333D01*
X0031296D01*
X0031379Y-0002500D01*
Y-0003167D01*
X0031296Y-0003333D01*
X0030796D01*
X0030429Y-0002333D02*
Y-0003333D01*
X0030262Y-0003167D01*
X0029929Y-0002500D01*
X0029762Y-0002333D01*
Y-0003333D01*
X0023925D02*
Y-0002833D01*
X0024258Y-0002333D02*
X0024008Y-0002833D01*
X0023842D01*
X0023592Y-0002333D01*
X0022975Y-0003333D02*
Y-0002333D01*
X0023308D02*
X0022642D01*
X0022025Y-0003000D02*
X0022358Y-0003333D01*
X0021692Y-0003167D02*
X0021775Y-0003333D01*
X0022108D01*
X0022192Y-0003167D01*
X0022358Y-0003000D01*
Y-0002500D01*
X0022275Y-0002333D01*
X0021775D01*
X0021692Y-0002500D01*
Y-0003167D01*
X0017408Y-0003333D02*
X0016825D01*
Y-0002333D01*
X0015958Y-0003333D02*
X0015875Y-0003167D01*
Y-0002500D01*
X0015958Y-0002333D01*
X0016458D01*
X0016542Y-0002500D01*
Y-0003167D01*
X0016458Y-0003333D01*
X0015958D01*
X0015258D02*
Y-0002333D01*
X0015592D02*
X0014925D01*
X0009587Y-0003333D02*
Y-0002333D01*
X0009421Y-0002500D01*
X0009254Y-0002833D01*
X0009087Y-0002500D01*
X0008921Y-0002333D01*
Y-0003333D01*
X0008637Y-0003000D02*
X0007971D01*
X0008637Y-0003333D02*
Y-0002833D01*
X0008387Y-0002333D01*
X0008221D01*
X0007971Y-0002833D01*
Y-0003333D01*
X0007687D02*
X0007354D01*
X0007521D02*
Y-0002333D01*
X0007687D02*
X0007354D01*
X0006321Y-0003333D02*
Y-0002333D01*
X0006237Y-0003333D02*
X0006737D01*
X0006904Y-0003000D01*
Y-0002667D01*
X0006737Y-0002333D01*
X0006237D01*
X0003150Y-0003333D02*
Y-0002333D01*
X0002983Y-0002500D01*
X0002817Y-0002833D01*
X0002650Y-0002500D01*
X0002483Y-0002333D01*
Y-0003333D01*
X0001867D02*
Y-0002833D01*
X0002200Y-0002333D02*
X0001950Y-0002833D01*
X0001783D01*
X0001533Y-0002333D01*
X0001250Y-0002500D02*
X0001167Y-0002333D01*
X0000667D01*
X0000583Y-0002500D01*
Y-0002667D01*
X0000667Y-0002833D01*
X0001167D01*
X0001250Y-0003000D01*
Y-0003167D01*
X0001167Y-0003333D01*
X0000667D01*
X0000583Y-0003167D01*
X0023437Y-0001333D02*
Y-0000333D01*
X0023771D02*
X0023104D01*
X0022571Y-0000833D02*
X0022821Y-0001333D01*
X0022154Y-0000833D02*
X0022654D01*
X0022821Y-0000667D01*
Y-0000500D01*
X0022654Y-0000333D01*
X0022154D01*
Y-0001333D01*
X0021871Y-0001000D02*
X0021204D01*
X0021871Y-0001333D02*
Y-0000833D01*
X0021621Y-0000333D01*
X0021454D01*
X0021204Y-0000833D01*
Y-0001333D01*
X0020921Y-0000833D02*
X0020254D01*
X0020921Y-0001333D02*
Y-0000333D01*
X0020254Y-0001333D02*
Y-0000333D01*
X0019971Y-0001167D02*
X0019887Y-0001333D01*
X0019387D01*
X0019304Y-0001167D01*
Y-0000500D01*
X0019387Y-0000333D01*
X0019887D01*
X0019971Y-0000500D01*
X0017696Y-0001333D02*
X0017112D01*
Y-0000333D01*
X0016829Y-0001333D02*
X0016246D01*
Y-0000333D01*
X0015962Y-0001333D02*
X0015629D01*
X0015796D02*
Y-0000333D01*
X0015962D02*
X0015629D01*
X0014929Y-0000833D02*
X0015179Y-0001333D01*
X0014512Y-0000833D02*
X0015012D01*
X0015179Y-0000667D01*
Y-0000500D01*
X0015012Y-0000333D01*
X0014512D01*
Y-0001333D01*
X0013646D02*
Y-0000333D01*
X0013562Y-0001333D02*
X0014062D01*
X0014229Y-0001000D01*
Y-0000667D01*
X0014062Y-0000333D01*
X0013562D01*
X0001825Y-0007500D02*
X0001575Y-0007750D01*
X0002075D02*
X0001825Y-0007500D01*
Y-0008000D02*
X0002075Y-0007750D01*
X0001575D02*
X0001825Y-0008000D01*
X0002075Y-0006000D02*
X0001575Y-0006500D01*
X0002075D02*
X0001575Y-0006000D01*
X0002075Y-0004750D02*
X0001575D01*
X0001825Y-0004500D02*
Y-0005000D01*
X0037300Y-0010550D02*
X-0000050D01*
X0037250Y-0010500D02*
X0000000D01*
X0037250Y-0008500D02*
X0000000D01*
X0037250Y-0007000D02*
X0000000D01*
X0037250Y-0005500D02*
X0000000D01*
X0037250Y-0004000D02*
X0000000D01*
X0037250Y-0003950D02*
X0000000D01*
X0037250Y-0002000D02*
X0000000D01*
X0037250Y-0001950D02*
X0000000D01*
X0037250Y0000000D02*
X0000000D01*
X0037300Y0000050D02*
X-0000050D01*
X0037300Y-0010500D02*
Y0000000D01*
X0037250Y-0010500D02*
Y0000000D01*
X0025708Y-0010500D02*
Y-0002000D01*
X0020158Y-0010500D02*
Y-0002000D01*
X0012092Y-0008500D02*
Y-0002000D01*
X0003700Y-0008500D02*
Y-0002000D01*
X0003650Y-0008500D02*
Y-0002000D01*
X-0000050Y-0010500D02*
Y0000000D01*
X0000000Y-0010500D02*
Y0000000D01*
X-0026969Y0028531D02*
X-0027469Y0028031D01*
X-0026969D02*
X-0027469Y0028531D01*
X-0030277D02*
X-0030777Y0028031D01*
X-0030277D02*
X-0030777Y0028531D01*
X-0027991Y0030261D02*
X-0028491Y0029761D01*
X-0027991D02*
X-0028491Y0030261D01*
X-0031300D02*
X-0031800Y0029761D01*
X-0031300D02*
X-0031800Y0030261D01*
X-0026890Y0025502D02*
X-0027390Y0025002D01*
X-0026890D02*
X-0027390Y0025502D01*
X-0030199D02*
X-0030699Y0025002D01*
X-0030199D02*
X-0030699Y0025502D01*
X-0031177Y0025345D02*
X-0031677Y0024845D01*
X-0031177D02*
X-0031677Y0025345D01*
X-0031177Y0028653D02*
X-0031677Y0028153D01*
X-0031177D02*
X-0031677Y0028653D01*
X-0038651Y0028531D02*
X-0039151Y0028031D01*
X-0038651D02*
X-0039151Y0028531D01*
X-0038651Y0025031D02*
X-0039151Y0024531D01*
X-0038651D02*
X-0039151Y0025031D01*
X-0050018Y0026249D02*
X-0050518Y0025749D01*
X-0050018D02*
X-0050518Y0026249D01*
X-0050018Y0029558D02*
X-0050518Y0029058D01*
X-0050018D02*
X-0050518Y0029558D01*
X-0030194Y0026800D02*
X-0030694Y0026300D01*
X-0030194D02*
X-0030694Y0026800D01*
X-0029194Y0027550D02*
X-0029694Y0027050D01*
X-0029194D02*
X-0029694Y0027550D01*
X-0028194Y0026800D02*
X-0028694Y0026300D01*
X-0028194D02*
X-0028694Y0026800D01*
X-0025596Y0030535D02*
X-0026096Y0030035D01*
X-0025596D02*
X-0026096Y0030535D01*
X-0024846Y0029535D02*
X-0025346Y0029035D01*
X-0024846D02*
X-0025346Y0029535D01*
X-0025596Y0028535D02*
X-0026096Y0028035D01*
X-0025596D02*
X-0026096Y0028535D01*
X-0024923Y0027154D02*
X-0025423Y0026654D01*
X-0024923D02*
X-0025423Y0027154D01*
X-0025923Y0026404D02*
X-0026423Y0025904D01*
X-0025923D02*
X-0026423Y0026404D01*
X-0026923Y0027154D02*
X-0027423Y0026654D01*
X-0026923D02*
X-0027423Y0027154D01*
X-0023743Y0026249D02*
X-0024243Y0025749D01*
X-0023743D02*
X-0024243Y0026249D01*
X-0023743Y0027249D02*
X-0024243Y0026749D01*
X-0023743D02*
X-0024243Y0027249D01*
X-0023743Y0028249D02*
X-0024243Y0027749D01*
X-0023743D02*
X-0024243Y0028249D01*
X-0023743Y0029249D02*
X-0024243Y0028749D01*
X-0023743D02*
X-0024243Y0029249D01*
X-0048419Y0025266D02*
X-0048669Y0025016D01*
X-0048169D02*
X-0048419Y0025266D01*
Y0024766D02*
X-0048169Y0025016D01*
X-0048669D02*
X-0048419Y0024766D01*
X-0046419Y0025266D02*
X-0046669Y0025016D01*
X-0046169D02*
X-0046419Y0025266D01*
Y0024766D02*
X-0046169Y0025016D01*
X-0046669D02*
X-0046419Y0024766D01*
X-0037251Y0028407D02*
X-0037751Y0027907D01*
X-0037251D02*
X-0037751Y0028407D01*
X-0037251Y0025157D02*
X-0037751D01*
X-0037501Y0025407D02*
Y0024907D01*
X-0048773Y0028295D02*
X-0049023Y0028045D01*
X-0048523D02*
X-0048773Y0028295D01*
Y0027795D02*
X-0048523Y0028045D01*
X-0049023D02*
X-0048773Y0027795D01*
X-0045110Y0028295D02*
X-0045360Y0028045D01*
X-0044860D02*
X-0045110Y0028295D01*
Y0027795D02*
X-0044860Y0028045D01*
X-0045360D02*
X-0045110Y0027795D01*
X-0043896Y0028334D02*
X-0044146Y0028084D01*
X-0043646D02*
X-0043896Y0028334D01*
Y0027834D02*
X-0043646Y0028084D01*
X-0044146D02*
X-0043896Y0027834D01*
X-0040233Y0028334D02*
X-0040483Y0028084D01*
X-0039983D02*
X-0040233Y0028334D01*
Y0027834D02*
X-0039983Y0028084D01*
X-0040483D02*
X-0040233Y0027834D01*
X-0048734Y0030104D02*
X-0048984Y0029854D01*
X-0048484D02*
X-0048734Y0030104D01*
Y0029604D02*
X-0048484Y0029854D01*
X-0048984D02*
X-0048734Y0029604D01*
X-0045071Y0030104D02*
X-0045321Y0029854D01*
X-0044821D02*
X-0045071Y0030104D01*
Y0029604D02*
X-0044821Y0029854D01*
X-0045321D02*
X-0045071Y0029604D01*
X-0043857Y0030143D02*
X-0044107Y0029893D01*
X-0043607D02*
X-0043857Y0030143D01*
Y0029643D02*
X-0043607Y0029893D01*
X-0044107D02*
X-0043857Y0029643D01*
X-0040193Y0030143D02*
X-0040443Y0029893D01*
X-0039943D02*
X-0040193Y0030143D01*
Y0029643D02*
X-0039943Y0029893D01*
X-0040443D02*
X-0040193Y0029643D01*
X-0038662Y0030565D02*
X-0039162Y0030065D01*
X-0038662D02*
X-0039162Y0030565D01*
X-0038662Y0029565D02*
X-0039162Y0029065D01*
X-0038662D02*
X-0039162Y0029565D01*
X-0037117Y0029671D02*
X-0037617Y0029171D01*
X-0037117D02*
X-0037617Y0029671D01*
X-0037117Y0030617D02*
X-0037617Y0030117D01*
X-0037117D02*
X-0037617Y0030617D01*
X-0044472Y0026997D02*
X-0044972Y0026497D01*
X-0044472D02*
X-0044972Y0026997D01*
X-0044472Y0025342D02*
X-0044972Y0024842D01*
X-0044472D02*
X-0044972Y0025342D01*
X-0050268Y0024794D02*
X-0050518Y0024544D01*
X-0050018D02*
X-0050268Y0024794D01*
Y0024294D02*
X-0050018Y0024544D01*
X-0050518D02*
X-0050268Y0024294D01*
X-0050307Y0030773D02*
X-0050557Y0030523D01*
X-0050057D02*
X-0050307Y0030773D01*
Y0030273D02*
X-0050057Y0030523D01*
X-0050557D02*
X-0050307Y0030273D01*
X-0035504Y0025423D02*
X-0036004Y0024923D01*
X-0035504D02*
X-0036004Y0025423D01*
X-0034465D02*
X-0034965Y0024923D01*
X-0034465D02*
X-0034965Y0025423D01*
X-0033465D02*
X-0033965Y0024923D01*
X-0033465D02*
X-0033965Y0025423D01*
X-0032465D02*
X-0032965Y0024923D01*
X-0032465D02*
X-0032965Y0025423D01*
X-0032465Y0028423D02*
X-0032965Y0027923D01*
X-0032465D02*
X-0032965Y0028423D01*
X-0033465D02*
X-0033965Y0027923D01*
X-0033465D02*
X-0033965Y0028423D01*
X-0034465D02*
X-0034965Y0027923D01*
X-0034465D02*
X-0034965Y0028423D01*
X-0035465D02*
X-0035965Y0027923D01*
X-0035465D02*
X-0035965Y0028423D01*
M02*
