%
T1C0.031F200S100
X-037501Y025157
T2C0.064F200S100
X-050268Y025999
X-050268Y029308
X-044722Y025092
X-044722Y026747
X-038912Y029315
X-038912Y030315
X-038901Y024781
X-038901Y028281
X-037501Y028157
X-037367Y029421
X-037367Y030367
X-035754Y025173
X-035715Y028173
X-034715Y025173
X-033715Y025173
X-033715Y028173
X-034715Y028173
X-032715Y025173
X-032715Y028173
X-031550Y030011
X-031427Y025095
X-031427Y028403
X-030527Y028281
X-030449Y025252
X-030444Y026550
X-029444Y027300
X-028444Y026550
X-028241Y030011
X-027219Y028281
X-027173Y026904
X-027140Y025252
X-026173Y026154
X-025846Y028285
X-025846Y030285
X-025173Y026904
X-025096Y029285
X-023993Y025999
X-023993Y026999
X-023993Y027999
X-023993Y028999
T3C0.079F200S100
X-050307Y030523
X-050268Y024544
X-048773Y028045
X-048734Y029854
X-048419Y025016
X-046419Y025016
X-045110Y028045
X-045071Y029854
X-043896Y028084
X-043857Y029893
X-040233Y028084
X-040193Y029893
M30
