*
G04 Mass Parameters ***
*
G04 Image ***
*
%IND:\WORKING\WORKING\DANHLL\ORCAD PROJECTS\COMERCIAL PROJECTS\CRYSTAL_BASE\CRYSTAL_BASE_V1.SST*%
%ICAS*%
%MOIN*%
%IPPOS*%
%ASAXBY*%
G74*%FSLAN2X34Y34*%
*
G04 Aperture Definitions ***
*
%ADD10C,0.1039*%
%ADD11O,0.0256X0.0866*%
%ADD12R,0.0500X0.0340*%
%ADD13R,0.0400X0.0340*%
%ADD14R,0.0380X0.0320*%
%ADD15R,0.0320X0.0380*%
%ADD16C,0.0799*%
%ADD17R,0.0799X0.0799*%
%ADD18R,0.0640X0.0320*%
%ADD19R,0.0940X0.0320*%
%ADD20C,0.0010*%
%ADD21C,0.0080*%
%ADD22C,0.0100*%
%ADD23C,0.0709*%
%ADD24C,0.0760*%
%ADD25C,0.0840*%
%ADD26C,0.0750*%
%ADD27C,0.0830*%
%ADD28C,0.0060*%
%ADD29C,0.0039*%
%ADD30C,0.0394*%
%ADD31R,0.1181X0.0787*%
%ADD32O,0.0866X0.0256*%
%ADD33R,0.0340X0.0500*%
%ADD34R,0.0340X0.0400*%
%ADD35R,0.0320X0.0640*%
%ADD36R,0.0320X0.0940*%
%ADD37R,0.0799X0.1181*%
%ADD38R,0.0787X0.1181*%
%ADD39C,0.0197*%
%ADD40C,0.0079*%
*
G04 Plot Data ***
*
G54D20*
G01X-0007552Y-0000039D02*
X-0003540D01*
Y-0019745D01*
X-0007552D01*
Y-0000039D01*
X-0015773Y-0019745D02*
X-0015784Y-0000039D01*
X-0019785D01*
Y-0019745D01*
X-0015773D01*
X-0015733Y-0000039D02*
X-0011721D01*
Y-0019745D01*
X-0015733D01*
Y-0000039D01*
X-0023915D02*
X-0019903D01*
Y-0019745D01*
X-0023915D01*
Y-0000039D01*
X-0007631Y-0019745D02*
X-0007642Y-0000039D01*
X-0011643D01*
Y-0019745D01*
X-0007631D01*
G54D22*
G01X-0027157Y-0011277D02*
X-0027241D01*
Y-0009185D01*
X-0025429D01*
Y-0011277D01*
X-0027157D01*
G54D28*
G01X-0027912Y-0008728D02*
X-0027801D01*
X-0027856D02*
Y-0009061D01*
X-0027801Y-0009005D01*
X-0027597Y-0008728D02*
X-0027486D01*
X-0027542D02*
Y-0009061D01*
X-0027486Y-0009005D01*
X-0025834Y-0014072D02*
X-0025779Y-0014128D01*
X-0025751Y-0014183D01*
Y-0014294D01*
X-0025779Y-0014350D01*
X-0025834Y-0014406D01*
X-0025890D01*
X-0025945Y-0014350D01*
X-0025973Y-0014294D01*
Y-0014183D01*
X-0025945Y-0014128D01*
X-0025890Y-0014072D01*
X-0025834D01*
X-0025603D02*
X-0025492D01*
X-0025548D02*
Y-0014406D01*
X-0025492Y-0014350D01*
X-0025834Y-0008806D02*
X-0026001Y-0009140D01*
X-0025779D01*
X-0027147Y-0005997D02*
X-0026981D01*
X-0026953Y-0006052D01*
Y-0006108D01*
X-0026981Y-0006164D01*
X-0027147D01*
X-0027175Y-0006108D01*
Y-0006052D01*
X-0027064Y-0005830D01*
X-0028813Y-0006086D02*
X-0028786Y-0006142D01*
X-0028619D01*
X-0028591Y-0006086D01*
Y-0005975D01*
X-0028647Y-0005920D01*
X-0028813D01*
Y-0005809D01*
X-0028591D01*
X-0025340Y-0006052D02*
X-0025562D01*
X-0025451Y-0005830D01*
X-0025396D01*
Y-0006164D01*
X-0026602Y-0011074D02*
X-0026546Y-0011018D01*
Y-0010907D01*
X-0026602Y-0010851D01*
X-0026658D01*
X-0026769Y-0010962D01*
X-0026880Y-0010851D01*
Y-0011074D01*
X-0025173Y-0012467D02*
X-0025117Y-0012411D01*
Y-0012300D01*
X-0025173Y-0012245D01*
X-0025228D01*
X-0025339Y-0012356D01*
X-0025451Y-0012245D01*
Y-0012467D01*
X-0025117Y-0012615D02*
Y-0012726D01*
Y-0012670D02*
X-0025451D01*
X-0025395Y-0012726D01*
X-0024703Y-0008806D02*
X-0024480D01*
X-0024703Y-0009028D01*
Y-0009084D01*
X-0024675Y-0009140D01*
X-0024508D01*
X-0024480Y-0009084D01*
X-0024333Y-0008806D02*
X-0024222D01*
X-0024277D02*
Y-0009140D01*
X-0024222Y-0009084D01*
X-0025823Y-0013425D02*
X-0025453D01*
Y-0012425D01*
X-0027253D02*
Y-0013425D01*
X-0026883D01*
X-0025908Y-0007016D02*
Y-0006716D01*
X-0026168D01*
X-0026848D02*
X-0027108D01*
Y-0007016D01*
X-0027158D01*
X-0028487Y-0006695D02*
X-0028747D01*
Y-0006995D01*
X-0028797D01*
X-0027547D02*
Y-0006695D01*
X-0027807D01*
X-0024296Y-0007016D02*
Y-0006716D01*
X-0024556D01*
X-0025236D02*
X-0025496D01*
Y-0007016D01*
X-0025546D01*
X-0024460Y-0012690D02*
Y-0011540D01*
X-0025105D01*
Y-0012690D01*
X-0024460D01*
X-0024258Y-0008149D02*
X-0025408D01*
Y-0008794D01*
X-0024258D01*
Y-0008149D01*
X-0027523Y-0008070D02*
X-0028673D01*
Y-0008715D01*
X-0027523D01*
Y-0008070D01*
X-0025871Y-0008149D02*
X-0027021D01*
Y-0008794D01*
X-0025871D01*
Y-0008149D01*
G54D29*
G01X-0015293Y0001210D02*
X-0015381D01*
X-0015337D02*
Y0001472D01*
X-0015381Y0001429D01*
X-0015525Y0001210D02*
X-0015700D01*
X-0015525Y0001385D01*
Y0001429D01*
X-0015547Y0001472D01*
X-0015678D01*
X-0015700Y0001429D01*
X-0016147Y-0000109D02*
X-0016103Y-0000152D01*
X-0016081Y-0000196D01*
Y-0000283D01*
X-0016103Y-0000327D01*
X-0016147Y-0000371D01*
X-0016191D01*
X-0016234Y-0000327D01*
X-0016256Y-0000283D01*
Y-0000196D01*
X-0016234Y-0000152D01*
X-0016191Y-0000109D01*
X-0016147D01*
X-0015981D02*
X-0015806D01*
X-0015981Y-0000283D01*
Y-0000327D01*
X-0015959Y-0000371D01*
X-0015828D01*
X-0015806Y-0000327D01*
X-0007243Y0001254D02*
X-0007200Y0001210D01*
X-0007112D01*
X-0007068Y0001254D01*
Y0001297D01*
X-0007156Y0001385D01*
X-0007068Y0001472D01*
X-0007243D01*
X-0007344Y0001210D02*
X-0007519D01*
X-0007344Y0001385D01*
Y0001429D01*
X-0007366Y0001472D01*
X-0007497D01*
X-0007519Y0001429D01*
X-0023497Y0001341D02*
X-0023628D01*
X-0023650Y0001385D01*
Y0001429D01*
X-0023628Y0001472D01*
X-0023497D01*
X-0023475Y0001429D01*
Y0001385D01*
X-0023562Y0001210D01*
X-0023750D02*
X-0023838D01*
X-0023794D02*
Y0001472D01*
X-0023838Y0001429D01*
X-0008114Y-0000109D02*
X-0007939D01*
X-0008114Y-0000283D01*
Y-0000327D01*
X-0008092Y-0000371D01*
X-0007961D01*
X-0007939Y-0000327D01*
X-0007839Y-0000109D02*
X-0007664D01*
X-0007839Y-0000283D01*
Y-0000327D01*
X-0007817Y-0000371D01*
X-0007686D01*
X-0007664Y-0000327D01*
X-0007541Y0001051D02*
Y0000051D01*
X-0003541D01*
Y0001051D01*
X-0007541D01*
X-0023903D02*
Y0000051D01*
X-0019903D01*
Y0001051D01*
X-0023903D01*
X-0015722D02*
Y0000051D01*
X-0011722D01*
Y0001051D01*
X-0015722D01*
X-0015784Y0000051D02*
Y0001051D01*
X-0019784D01*
Y0000051D01*
X-0015784D01*
X-0007642D02*
Y0001051D01*
X-0011642D01*
Y0000051D01*
X-0007642D01*
G54D30*
G01X-0025881Y-0010853D02*
G03X-0025841Y-0010813I0000000J0000040D01*
G01X-0025921D02*
G03X-0025881Y-0010853I0000040J0000000D01*
Y-0010773D02*
G03X-0025921Y-0010813I0000000J0000040D01*
G01X-0025841D02*
G03X-0025881Y-0010773I0000040J0000000D01*
M02*
