*
G04 Mass Parameters ***
*
G04 Image ***
*
%IND:\WORKING\WORKING\DANHLL\ORCAD PROJECTS\COMERCIAL PROJECTS\CRYSTAL_BASE\CRYSTAL_BASE_V1.DRD*%
%ICAS*%
%MOIN*%
%IPPOS*%
%ASAXBY*%
G74*%FSLAN2X34Y34*%
*
G04 Aperture Definitions ***
*
%ADD10C,0.1039*%
%ADD11O,0.0256X0.0866*%
%ADD12R,0.0500X0.0340*%
%ADD13R,0.0400X0.0340*%
%ADD14R,0.0380X0.0320*%
%ADD15R,0.0320X0.0380*%
%ADD16C,0.0799*%
%ADD17R,0.0799X0.0799*%
%ADD18R,0.0640X0.0320*%
%ADD19R,0.0940X0.0320*%
%ADD20C,0.0010*%
%ADD21C,0.0080*%
%ADD22C,0.0100*%
%ADD23C,0.0709*%
%ADD24C,0.0760*%
%ADD25C,0.0840*%
%ADD26C,0.0750*%
%ADD27C,0.0830*%
%ADD28C,0.0060*%
%ADD29C,0.0039*%
%ADD30C,0.0394*%
%ADD31R,0.1181X0.0787*%
%ADD32O,0.0866X0.0256*%
%ADD33R,0.0340X0.0500*%
%ADD34R,0.0340X0.0400*%
%ADD35R,0.0320X0.0640*%
%ADD36R,0.0320X0.0940*%
%ADD37R,0.0799X0.1181*%
%ADD38R,0.0787X0.1181*%
%ADD39C,0.0197*%
%ADD40C,0.0079*%
*
G04 Plot Data ***
*
G54D22*
G01X0023876Y0000654D02*
X0023209D01*
X0023543Y0001321D01*
X0023709D01*
Y0000321D01*
X0022926D02*
X0022259D01*
X0022926Y0000987D01*
Y0001154D01*
X0022843Y0001321D01*
X0022343D01*
X0022259Y0001154D01*
X0011480Y0000321D02*
X0010897D01*
Y0001321D01*
X0010613Y0000654D02*
X0009947D01*
X0010613Y0000321D02*
Y0000821D01*
X0010363Y0001321D01*
X0010197D01*
X0009947Y0000821D01*
Y0000321D01*
X0009330D02*
Y0001321D01*
X0009663D02*
X0008997D01*
X0008130Y0000321D02*
X0008047Y0000487D01*
Y0001154D01*
X0008130Y0001321D01*
X0008630D01*
X0008713Y0001154D01*
Y0000487D01*
X0008630Y0000321D01*
X0008130D01*
X0007430D02*
Y0001321D01*
X0007763D02*
X0007097D01*
X0023876Y0002404D02*
X0023431D01*
X0023654Y0002848D01*
X0023765D01*
Y0002182D01*
X0010037D02*
Y0002515D01*
X0010259Y0002182D02*
Y0002515D01*
X0010204Y0002626D01*
X0010093D01*
X0010037Y0002515D01*
X0009981Y0002626D01*
X0009870D01*
X0009815Y0002515D01*
Y0002182D01*
X0009337D02*
Y0002515D01*
X0009559Y0002182D02*
Y0002515D01*
X0009504Y0002626D01*
X0009393D01*
X0009337Y0002515D01*
X0009281Y0002626D01*
X0009170D01*
X0009115Y0002515D01*
Y0002182D01*
X0007854Y0002515D02*
X0007520D01*
X0007465Y0002626D01*
Y0002737D01*
X0007520Y0002848D01*
X0007854D01*
X0007909Y0002737D01*
Y0002626D01*
X0007687Y0002182D01*
X0007209D02*
X0006765D01*
X0007209Y0002626D01*
Y0002737D01*
X0007154Y0002848D01*
X0006820D01*
X0006765Y0002737D01*
X0006231Y0002182D02*
X0006120Y0002293D01*
X0006065Y0002404D01*
Y0002626D01*
X0006120Y0002737D01*
X0006231Y0002848D01*
X0006343D01*
X0006454Y0002737D01*
X0006509Y0002626D01*
Y0002404D01*
X0006454Y0002293D01*
X0006343Y0002182D01*
X0006231D01*
X0005698D02*
X0005809D01*
Y0002293D01*
X0005698D01*
Y0002182D01*
X0005332D02*
X0004887D01*
X0005332Y0002626D01*
Y0002737D01*
X0005276Y0002848D01*
X0004943D01*
X0004887Y0002737D01*
X0023598Y0003682D02*
X0023487Y0003793D01*
X0023431Y0003904D01*
Y0004126D01*
X0023487Y0004237D01*
X0023598Y0004348D01*
X0023709D01*
X0023820Y0004237D01*
X0023876Y0004126D01*
Y0003904D01*
X0023820Y0003793D01*
X0023709Y0003682D01*
X0023598D01*
X0023176D02*
X0022731D01*
X0023176Y0004126D01*
Y0004237D01*
X0023120Y0004348D01*
X0022787D01*
X0022731Y0004237D01*
X0010037Y0003682D02*
Y0004015D01*
X0010259Y0003682D02*
Y0004015D01*
X0010204Y0004126D01*
X0010093D01*
X0010037Y0004015D01*
X0009981Y0004126D01*
X0009870D01*
X0009815Y0004015D01*
Y0003682D01*
X0009337D02*
Y0004015D01*
X0009559Y0003682D02*
Y0004015D01*
X0009504Y0004126D01*
X0009393D01*
X0009337Y0004015D01*
X0009281Y0004126D01*
X0009170D01*
X0009115Y0004015D01*
Y0003682D01*
X0007631D02*
X0007520Y0003793D01*
X0007465Y0003904D01*
Y0004126D01*
X0007520Y0004237D01*
X0007631Y0004348D01*
X0007743D01*
X0007854Y0004237D01*
X0007909Y0004126D01*
Y0003904D01*
X0007854Y0003793D01*
X0007743Y0003682D01*
X0007631D01*
X0007209Y0003904D02*
X0006765D01*
X0006987Y0004348D01*
X0007098D01*
Y0003682D01*
X0006120Y0004015D02*
X0006454D01*
X0006509Y0003904D01*
Y0003793D01*
X0006454Y0003682D01*
X0006120D01*
X0006065Y0003793D01*
Y0003904D01*
X0006287Y0004348D01*
X0005698Y0003682D02*
X0005809D01*
Y0003793D01*
X0005698D01*
Y0003682D01*
X0005332D02*
X0005109D01*
X0005220D02*
Y0004348D01*
X0005109Y0004237D01*
X0032280Y0005821D02*
X0031780D01*
X0032447Y0005321D02*
X0031780D01*
Y0006321D01*
X0032447D01*
X0031163Y0005321D02*
Y0006321D01*
X0031497D02*
X0030830D01*
X0029963Y0005321D02*
X0029880Y0005487D01*
Y0006154D01*
X0029963Y0006321D01*
X0030463D01*
X0030547Y0006154D01*
Y0005487D01*
X0030463Y0005321D01*
X0029963D01*
X0029597Y0006321D02*
Y0005321D01*
X0029430Y0005487D01*
X0029097Y0006154D01*
X0028930Y0006321D01*
Y0005321D01*
X0023093D02*
Y0005821D01*
X0023426Y0006321D02*
X0023176Y0005821D01*
X0023009D01*
X0022759Y0006321D01*
X0022143Y0005321D02*
Y0006321D01*
X0022476D02*
X0021809D01*
X0021193Y0005654D02*
X0021526Y0005321D01*
X0020859Y0005487D02*
X0020943Y0005321D01*
X0021276D01*
X0021359Y0005487D01*
X0021526Y0005654D01*
Y0006154D01*
X0021443Y0006321D01*
X0020943D01*
X0020859Y0006154D01*
Y0005487D01*
X0016576Y0005321D02*
X0015993D01*
Y0006321D01*
X0015126Y0005321D02*
X0015043Y0005487D01*
Y0006154D01*
X0015126Y0006321D01*
X0015626D01*
X0015709Y0006154D01*
Y0005487D01*
X0015626Y0005321D01*
X0015126D01*
X0014426D02*
Y0006321D01*
X0014759D02*
X0014093D01*
X0008755Y0005321D02*
Y0006321D01*
X0008588Y0006154D01*
X0008422Y0005821D01*
X0008255Y0006154D01*
X0008088Y0006321D01*
Y0005321D01*
X0007805Y0005654D02*
X0007138D01*
X0007805Y0005321D02*
Y0005821D01*
X0007555Y0006321D01*
X0007388D01*
X0007138Y0005821D01*
Y0005321D01*
X0006855D02*
X0006522D01*
X0006688D02*
Y0006321D01*
X0006855D02*
X0006522D01*
X0005488Y0005321D02*
Y0006321D01*
X0005405Y0005321D02*
X0005905D01*
X0006072Y0005654D01*
Y0005987D01*
X0005905Y0006321D01*
X0005405D01*
X0002318Y0005321D02*
Y0006321D01*
X0002151Y0006154D01*
X0001984Y0005821D01*
X0001818Y0006154D01*
X0001651Y0006321D01*
Y0005321D01*
X0001034D02*
Y0005821D01*
X0001368Y0006321D02*
X0001118Y0005821D01*
X0000951D01*
X0000701Y0006321D01*
X0000418Y0006154D02*
X0000334Y0006321D01*
X-0000166D01*
X-0000249Y0006154D01*
Y0005987D01*
X-0000166Y0005821D01*
X0000334D01*
X0000418Y0005654D01*
Y0005487D01*
X0000334Y0005321D01*
X-0000166D01*
X-0000249Y0005487D01*
X0022605Y0007321D02*
Y0008321D01*
X0022938D02*
X0022272D01*
X0021738Y0007821D02*
X0021988Y0007321D01*
X0021322Y0007821D02*
X0021822D01*
X0021988Y0007987D01*
Y0008154D01*
X0021822Y0008321D01*
X0021322D01*
Y0007321D01*
X0021038Y0007654D02*
X0020372D01*
X0021038Y0007321D02*
Y0007821D01*
X0020788Y0008321D01*
X0020622D01*
X0020372Y0007821D01*
Y0007321D01*
X0020088Y0007821D02*
X0019422D01*
X0020088Y0007321D02*
Y0008321D01*
X0019422Y0007321D02*
Y0008321D01*
X0019138Y0007487D02*
X0019055Y0007321D01*
X0018555D01*
X0018472Y0007487D01*
Y0008154D01*
X0018555Y0008321D01*
X0019055D01*
X0019138Y0008154D01*
X0016863Y0007321D02*
X0016280D01*
Y0008321D01*
X0015997Y0007321D02*
X0015413D01*
Y0008321D01*
X0015130Y0007321D02*
X0014797D01*
X0014963D02*
Y0008321D01*
X0015130D02*
X0014797D01*
X0014097Y0007821D02*
X0014347Y0007321D01*
X0013680Y0007821D02*
X0014180D01*
X0014347Y0007987D01*
Y0008154D01*
X0014180Y0008321D01*
X0013680D01*
Y0007321D01*
X0012813D02*
Y0008321D01*
X0012730Y0007321D02*
X0013230D01*
X0013397Y0007654D01*
Y0007987D01*
X0013230Y0008321D01*
X0012730D01*
X0001243Y0002404D02*
X0000743D01*
X0000993Y0002654D02*
Y0002154D01*
X0001243Y0004154D02*
X0000743Y0003654D01*
X0001243D02*
X0000743Y0004154D01*
X0036468Y-0000396D02*
X-0000882D01*
X0036418Y-0000346D02*
X-0000832D01*
X0036418Y0001654D02*
X-0000832D01*
X0036418Y0003154D02*
X-0000832D01*
X0036418Y0004654D02*
X-0000832D01*
X0036418Y0004704D02*
X-0000832D01*
X0036418Y0006654D02*
X-0000832D01*
X0036418Y0006704D02*
X-0000832D01*
X0036418Y0008654D02*
X-0000832D01*
X0036468Y0008704D02*
X-0000882D01*
X0036468Y-0000346D02*
Y0008654D01*
X0036418Y-0000346D02*
Y0008654D01*
X0024876Y-0000346D02*
Y0006654D01*
X0019326Y-0000346D02*
Y0006654D01*
X0011259Y0001654D02*
Y0006654D01*
X0002868Y0001654D02*
Y0006654D01*
X0002818Y0001654D02*
Y0006654D01*
X-0000882Y-0000346D02*
Y0008654D01*
X-0000832Y-0000346D02*
Y0008654D01*
X-0016073Y-0019155D02*
X-0016573D01*
X-0016323Y-0018905D02*
Y-0019405D01*
X-0014972Y-0019155D02*
X-0015472D01*
X-0015222Y-0018905D02*
Y-0019405D01*
X-0006791Y0000801D02*
X-0007291Y0000301D01*
X-0006791D02*
X-0007291Y0000801D01*
X-0005791D02*
X-0006291Y0000301D01*
X-0005791D02*
X-0006291Y0000801D01*
X-0004791D02*
X-0005291Y0000301D01*
X-0004791D02*
X-0005291Y0000801D01*
X-0003791D02*
X-0004291Y0000301D01*
X-0003791D02*
X-0004291Y0000801D01*
X-0007892D02*
X-0008392Y0000301D01*
X-0007892D02*
X-0008392Y0000801D01*
X-0008892D02*
X-0009392Y0000301D01*
X-0008892D02*
X-0009392Y0000801D01*
X-0009892D02*
X-0010392Y0000301D01*
X-0009892D02*
X-0010392Y0000801D01*
X-0010892D02*
X-0011392Y0000301D01*
X-0010892D02*
X-0011392Y0000801D01*
X-0014972D02*
X-0015472Y0000301D01*
X-0014972D02*
X-0015472Y0000801D01*
X-0013972D02*
X-0014472Y0000301D01*
X-0013972D02*
X-0014472Y0000801D01*
X-0012972D02*
X-0013472Y0000301D01*
X-0012972D02*
X-0013472Y0000801D01*
X-0011972D02*
X-0012472Y0000301D01*
X-0011972D02*
X-0012472Y0000801D01*
X-0016034D02*
X-0016534Y0000301D01*
X-0016034D02*
X-0016534Y0000801D01*
X-0017034D02*
X-0017534Y0000301D01*
X-0017034D02*
X-0017534Y0000801D01*
X-0018034D02*
X-0018534Y0000301D01*
X-0018034D02*
X-0018534Y0000801D01*
X-0019034D02*
X-0019534Y0000301D01*
X-0019034D02*
X-0019534Y0000801D01*
X-0023153D02*
X-0023653Y0000301D01*
X-0023153D02*
X-0023653Y0000801D01*
X-0022153D02*
X-0022653Y0000301D01*
X-0022153D02*
X-0022653Y0000801D01*
X-0021153D02*
X-0021653Y0000301D01*
X-0021153D02*
X-0021653Y0000801D01*
X-0020153D02*
X-0020653Y0000301D01*
X-0020153D02*
X-0020653Y0000801D01*
X-0027834Y-0012036D02*
X-0028334D01*
X-0028084Y-0011786D02*
Y-0012286D01*
X-0027834Y-0013137D02*
X-0028334D01*
X-0028084Y-0012887D02*
Y-0013387D01*
M02*
