*
G04 Mass Parameters ***
*
G04 Image ***
*
%IND:\WORKING\WORKING\DANHLL\ORCAD PROJECTS\COMERCIAL PROJECTS\CRYSTAL_BASE\CRYSTAL_BASE.SST*%
%ICAS*%
%MOIN*%
%IPPOS*%
%ASAXBY*%
G74*%FSLAN2X34Y34*%
*
G04 Aperture Definitions ***
*
%ADD10C,0.1039*%
%ADD11O,0.0256X0.0866*%
%ADD12R,0.0500X0.0340*%
%ADD13R,0.0400X0.0340*%
%ADD14R,0.0380X0.0320*%
%ADD15R,0.0320X0.0380*%
%ADD16C,0.0799*%
%ADD17R,0.0799X0.0799*%
%ADD18R,0.0640X0.0320*%
%ADD19R,0.0940X0.0320*%
%ADD20C,0.0010*%
%ADD21C,0.0080*%
%ADD22C,0.0100*%
%ADD23C,0.0709*%
%ADD24C,0.0760*%
%ADD25C,0.0840*%
%ADD26C,0.0750*%
%ADD27C,0.0830*%
%ADD28C,0.0060*%
%ADD29C,0.0039*%
%ADD30C,0.0394*%
*
G04 Plot Data ***
*
G54D22*
G01X-0014403Y0006479D02*
Y0006563D01*
X-0012311D01*
Y0004751D01*
X-0014403D01*
Y0006479D01*
G54D28*
G01X-0015763Y0003699D02*
X-0015707Y0003754D01*
Y0003865D01*
X-0015763Y0003921D01*
X-0015818D01*
X-0015929Y0003810D01*
X-0016041Y0003921D01*
Y0003699D01*
X-0015707Y0003551D02*
Y0003440D01*
Y0003496D02*
X-0016041D01*
X-0015985Y0003440D01*
X-0011735Y0003960D02*
Y0003738D01*
X-0011957Y0003960D01*
X-0012012D01*
X-0012068Y0003933D01*
Y0003766D01*
X-0012012Y0003738D01*
X-0011735Y0003590D02*
Y0003479D01*
Y0003535D02*
X-0012068D01*
X-0012012Y0003479D01*
X-0011735Y0007091D02*
Y0006980D01*
Y0007035D02*
X-0012068D01*
X-0012012Y0006980D01*
X-0011735Y0006776D02*
Y0006665D01*
Y0006721D02*
X-0012068D01*
X-0012012Y0006665D01*
X-0017494Y0005695D02*
X-0017550Y0005640D01*
X-0017605Y0005612D01*
X-0017716D01*
X-0017772Y0005640D01*
X-0017828Y0005695D01*
Y0005751D01*
X-0017772Y0005807D01*
X-0017716Y0005834D01*
X-0017605D01*
X-0017550Y0005807D01*
X-0017494Y0005751D01*
Y0005695D01*
Y0005464D02*
Y0005353D01*
Y0005409D02*
X-0017828D01*
X-0017772Y0005353D01*
X-0002312Y0000379D02*
X-0002284Y0000435D01*
Y0000490D01*
X-0002312Y0000546D01*
X-0002479D01*
X-0002507Y0000490D01*
Y0000435D01*
X-0002479Y0000379D01*
X-0002312D01*
X-0002284Y0000324D01*
Y0000268D01*
X-0002312Y0000213D01*
X-0002479D01*
X-0002507Y0000268D01*
Y0000324D01*
X-0002479Y0000379D01*
X-0011735Y0005092D02*
X-0012068Y0005259D01*
Y0005036D01*
X-0008729Y0006287D02*
Y0006120D01*
X-0008784Y0006092D01*
X-0008840D01*
X-0008895Y0006120D01*
Y0006287D01*
X-0008840Y0006315D01*
X-0008784D01*
X-0008562Y0006204D01*
X-0008840Y0007888D02*
X-0008895Y0007860D01*
Y0007694D01*
X-0008840Y0007666D01*
X-0008729D01*
X-0008673Y0007721D01*
Y0007888D01*
X-0008562D01*
Y0007666D01*
X-0008767Y0004517D02*
Y0004740D01*
X-0008545Y0004629D01*
Y0004573D01*
X-0008878D01*
X-0014199Y0005925D02*
X-0014143Y0005869D01*
X-0014032D01*
X-0013977Y0005925D01*
Y0005980D01*
X-0014088Y0006091D01*
X-0013977Y0006202D01*
X-0014199D01*
X-0015050Y0003476D02*
Y0004626D01*
X-0015695D01*
Y0003476D01*
X-0015050D01*
X-0011077Y0003516D02*
Y0004666D01*
X-0011722D01*
Y0003516D01*
X-0011077D01*
Y0006702D02*
Y0007852D01*
X-0011722D01*
Y0006702D01*
X-0011077D01*
X-0016847Y0005685D02*
Y0005315D01*
X-0015847D01*
Y0007115D02*
X-0016847D01*
Y0006745D01*
X-0009748Y0005048D02*
X-0009448D01*
Y0005308D01*
Y0005988D02*
Y0006248D01*
X-0009748D01*
Y0006298D01*
X-0009448Y0007561D02*
Y0007821D01*
X-0009748D01*
Y0007871D01*
Y0006621D02*
X-0009448D01*
Y0006881D01*
X-0009731Y0003473D02*
X-0009431D01*
Y0003733D01*
Y0004413D02*
Y0004673D01*
X-0009731D01*
Y0004723D01*
X-0002415Y-0000445D02*
X-0001265D01*
Y0000200D01*
X-0002415D01*
Y-0000445D01*
X-0011077Y0005128D02*
Y0006278D01*
X-0011722D01*
Y0005128D01*
X-0011077D01*
G54D29*
G01X-0007194Y0007208D02*
Y0007340D01*
X-0007150Y0007361D01*
X-0007107D01*
X-0007063Y0007340D01*
Y0007208D01*
X-0007107Y0007186D01*
X-0007150D01*
X-0007325Y0007274D01*
X-0007485Y0007383D02*
X-0008485D01*
Y0003383D01*
X-0007485D01*
Y0007383D01*
G54D30*
G01X-0013939Y0005163D02*
G03X-0013899Y0005203I0000000J0000040D01*
G01X-0013979D02*
G03X-0013939Y0005163I0000040J0000000D01*
Y0005243D02*
G03X-0013979Y0005203I0000000J0000040D01*
G01X-0013899D02*
G03X-0013939Y0005243I0000040J0000000D01*
M02*
