*
G04 Mass Parameters ***
*
G04 Image ***
*
%IND:\WORKING\WORKING\DANHLL\ORCAD PROJECTS\COMERCIAL PROJECTS\CRYSTAL_BASE\CRYSTAL_BASE.SMT*%
%ICAS*%
%MOIN*%
%IPPOS*%
%ASAXBY*%
G74*%FSLAN2X34Y34*%
*
G04 Aperture Definitions ***
*
%ADD10C,0.1039*%
%ADD11O,0.0256X0.0866*%
%ADD12R,0.0500X0.0340*%
%ADD13R,0.0400X0.0340*%
%ADD14R,0.0380X0.0320*%
%ADD15R,0.0320X0.0380*%
%ADD16C,0.0799*%
%ADD17R,0.0799X0.0799*%
%ADD18R,0.0640X0.0320*%
%ADD19R,0.0940X0.0320*%
%ADD20C,0.0010*%
%ADD21C,0.0080*%
%ADD22C,0.0100*%
%ADD23C,0.0709*%
%ADD24C,0.0760*%
%ADD25C,0.0840*%
%ADD26C,0.0750*%
%ADD27C,0.0830*%
*
G04 Plot Data ***
*
G54D20*
G01X-0016171Y0005829D02*
X-0017002D01*
X-0016227Y0006605D02*
X-0016947D01*
X-0016227Y0005825D02*
X-0016947D01*
X-0015839Y0006254D02*
Y0006175D01*
X-0015848Y0006306D02*
Y0006123D01*
X-0015857Y0006338D02*
Y0006091D01*
X-0015866Y0006362D02*
Y0006067D01*
X-0015875Y0006382D02*
Y0006047D01*
X-0015884Y0006400D02*
Y0006029D01*
X-0015893Y0006416D02*
Y0006013D01*
X-0015902Y0006430D02*
Y0005999D01*
X-0015911Y0006443D02*
Y0005986D01*
X-0015920Y0006455D02*
Y0005974D01*
X-0015929Y0006466D02*
Y0005963D01*
X-0015938Y0006476D02*
Y0005953D01*
X-0015947Y0006486D02*
Y0005943D01*
X-0015956Y0006495D02*
Y0005934D01*
X-0015965Y0006503D02*
Y0005926D01*
X-0015974Y0006511D02*
Y0005918D01*
X-0015983Y0006519D02*
Y0005910D01*
X-0015992Y0006526D02*
Y0005903D01*
X-0016001Y0006532D02*
Y0005897D01*
X-0016010Y0006539D02*
Y0005890D01*
X-0016019Y0006544D02*
Y0005885D01*
X-0016028Y0006550D02*
Y0005879D01*
X-0016037Y0006555D02*
Y0005874D01*
X-0016046Y0006560D02*
Y0005869D01*
X-0016055Y0006565D02*
Y0005864D01*
X-0016064Y0006569D02*
Y0005860D01*
X-0016073Y0006573D02*
Y0005856D01*
X-0016082Y0006577D02*
Y0005852D01*
X-0016091Y0006580D02*
Y0005849D01*
X-0016100Y0006583D02*
Y0005846D01*
X-0016109Y0006586D02*
Y0005843D01*
X-0016118Y0006589D02*
Y0005840D01*
X-0016127Y0006591D02*
Y0005838D01*
X-0016136Y0006594D02*
Y0005835D01*
X-0016145Y0006596D02*
Y0005833D01*
X-0016154Y0006598D02*
Y0005831D01*
X-0016163Y0006599D02*
Y0005830D01*
X-0016172Y0006601D02*
Y0005828D01*
X-0016181Y0006602D02*
Y0005827D01*
X-0016190Y0006603D02*
Y0005826D01*
X-0016199Y0006603D02*
Y0005826D01*
X-0016208Y0006604D02*
Y0005825D01*
X-0016217Y0006604D02*
Y0005825D01*
X-0016226Y0006608D02*
Y0005825D01*
X-0016235Y0006605D02*
Y0005825D01*
X-0016244Y0006605D02*
Y0005825D01*
X-0016253Y0006605D02*
Y0005825D01*
X-0016262Y0006605D02*
Y0005825D01*
X-0016271Y0006605D02*
Y0005825D01*
X-0016280Y0006605D02*
Y0005825D01*
X-0016289Y0006605D02*
Y0005825D01*
X-0016298Y0006605D02*
Y0005825D01*
X-0016307Y0006605D02*
Y0005825D01*
X-0016316Y0006605D02*
Y0005825D01*
X-0016325Y0006605D02*
Y0005825D01*
X-0016334Y0006605D02*
Y0005825D01*
X-0016343Y0006605D02*
Y0005825D01*
X-0016352Y0006605D02*
Y0005825D01*
X-0016361Y0006605D02*
Y0005825D01*
X-0016370Y0006605D02*
Y0005825D01*
X-0016379Y0006605D02*
Y0005825D01*
X-0016388Y0006605D02*
Y0005825D01*
X-0016397Y0006605D02*
Y0005825D01*
X-0016406Y0006605D02*
Y0005825D01*
X-0016415Y0006605D02*
Y0005825D01*
X-0016424Y0006605D02*
Y0005825D01*
X-0016433Y0006605D02*
Y0005825D01*
X-0016442Y0006605D02*
Y0005825D01*
X-0016451Y0006605D02*
Y0005825D01*
X-0016460Y0006605D02*
Y0005825D01*
X-0016469Y0006605D02*
Y0005825D01*
X-0016478Y0006605D02*
Y0005825D01*
X-0016487Y0006605D02*
Y0005825D01*
X-0016496Y0006605D02*
Y0005825D01*
X-0016505Y0006605D02*
Y0005825D01*
X-0016514Y0006605D02*
Y0005825D01*
X-0016523Y0006605D02*
Y0005825D01*
X-0016532Y0006605D02*
Y0005825D01*
X-0016541Y0006605D02*
Y0005825D01*
X-0016550Y0006605D02*
Y0005825D01*
X-0016559Y0006605D02*
Y0005825D01*
X-0016568Y0006605D02*
Y0005825D01*
X-0016577Y0006605D02*
Y0005825D01*
X-0016586Y0006605D02*
Y0005825D01*
X-0016595Y0006605D02*
Y0005825D01*
X-0016604Y0006605D02*
Y0005825D01*
X-0016613Y0006605D02*
Y0005825D01*
X-0016622Y0006605D02*
Y0005825D01*
X-0016631Y0006605D02*
Y0005825D01*
X-0016640Y0006605D02*
Y0005825D01*
X-0016649Y0006605D02*
Y0005825D01*
X-0016658Y0006605D02*
Y0005825D01*
X-0016667Y0006605D02*
Y0005825D01*
X-0016676Y0006605D02*
Y0005825D01*
X-0016685Y0006605D02*
Y0005825D01*
X-0016694Y0006605D02*
Y0005825D01*
X-0016703Y0006605D02*
Y0005825D01*
X-0016712Y0006605D02*
Y0005825D01*
X-0016721Y0006605D02*
Y0005825D01*
X-0016730Y0006605D02*
Y0005825D01*
X-0016739Y0006605D02*
Y0005825D01*
X-0016748Y0006605D02*
Y0005825D01*
X-0016757Y0006605D02*
Y0005825D01*
X-0016766Y0006605D02*
Y0005825D01*
X-0016775Y0006605D02*
Y0005825D01*
X-0016784Y0006605D02*
Y0005825D01*
X-0016793Y0006605D02*
Y0005825D01*
X-0016802Y0006605D02*
Y0005825D01*
X-0016811Y0006605D02*
Y0005825D01*
X-0016820Y0006605D02*
Y0005825D01*
X-0016829Y0006605D02*
Y0005825D01*
X-0016838Y0006605D02*
Y0005825D01*
X-0016847Y0006605D02*
Y0005825D01*
X-0016856Y0006605D02*
Y0005825D01*
X-0016865Y0006605D02*
Y0005825D01*
X-0016874Y0006605D02*
Y0005825D01*
X-0016883Y0006605D02*
Y0005825D01*
X-0016892Y0006605D02*
Y0005825D01*
X-0016901Y0006605D02*
Y0005825D01*
X-0016910Y0006605D02*
Y0005825D01*
X-0016919Y0006605D02*
Y0005825D01*
X-0016928Y0006605D02*
Y0005825D01*
X-0016937Y0006605D02*
Y0005825D01*
X-0016946Y0006608D02*
Y0005825D01*
X-0016955Y0006604D02*
Y0005825D01*
X-0016964Y0006604D02*
Y0005825D01*
X-0016973Y0006604D02*
Y0005825D01*
X-0016982Y0006603D02*
Y0005826D01*
X-0016991Y0006602D02*
Y0005827D01*
X-0017000Y0006601D02*
Y0005828D01*
X-0017009Y0006600D02*
Y0005829D01*
X-0017018Y0006598D02*
Y0005831D01*
X-0017027Y0006596D02*
Y0005833D01*
X-0017036Y0006594D02*
Y0005835D01*
X-0017045Y0006592D02*
Y0005837D01*
X-0017054Y0006590D02*
Y0005839D01*
X-0017063Y0006587D02*
Y0005842D01*
X-0017072Y0006584D02*
Y0005845D01*
X-0017081Y0006581D02*
Y0005848D01*
X-0017090Y0006577D02*
Y0005852D01*
X-0017099Y0006574D02*
Y0005855D01*
X-0017108Y0006570D02*
Y0005859D01*
X-0017117Y0006565D02*
Y0005864D01*
X-0017126Y0006561D02*
Y0005868D01*
X-0017135Y0006556D02*
Y0005873D01*
X-0017144Y0006551D02*
Y0005878D01*
X-0017153Y0006546D02*
Y0005883D01*
X-0017162Y0006540D02*
Y0005889D01*
X-0017171Y0006534D02*
Y0005895D01*
X-0017180Y0006527D02*
Y0005902D01*
X-0017189Y0006520D02*
Y0005909D01*
X-0017198Y0006513D02*
Y0005916D01*
X-0017207Y0006505D02*
Y0005924D01*
X-0017216Y0006497D02*
Y0005932D01*
X-0017225Y0006488D02*
Y0005941D01*
X-0017234Y0006479D02*
Y0005950D01*
X-0017243Y0006468D02*
Y0005961D01*
X-0017252Y0006458D02*
Y0005971D01*
X-0017261Y0006446D02*
Y0005983D01*
X-0017270Y0006433D02*
Y0005996D01*
X-0017279Y0006419D02*
Y0006010D01*
X-0017288Y0006404D02*
Y0006025D01*
X-0017297Y0006387D02*
Y0006042D01*
X-0017306Y0006367D02*
Y0006062D01*
X-0017315Y0006344D02*
Y0006085D01*
X-0017324Y0006314D02*
Y0006115D01*
X-0017333Y0006270D02*
Y0006159D01*
X-0016187Y0006603D02*
X-0016986D01*
X-0016135Y0006594D02*
X-0017038D01*
X-0016103Y0006585D02*
X-0017070D01*
X-0016079Y0006576D02*
X-0017094D01*
X-0016059Y0006567D02*
X-0017114D01*
X-0016041Y0006558D02*
X-0017132D01*
X-0016025Y0006549D02*
X-0017148D01*
X-0016011Y0006540D02*
X-0017162D01*
X-0015998Y0006531D02*
X-0017175D01*
X-0015986Y0006522D02*
X-0017187D01*
X-0015975Y0006513D02*
X-0017198D01*
X-0015965Y0006504D02*
X-0017208D01*
X-0015955Y0006495D02*
X-0017218D01*
X-0015946Y0006486D02*
X-0017227D01*
X-0015938Y0006477D02*
X-0017235D01*
X-0015930Y0006468D02*
X-0017243D01*
X-0015922Y0006459D02*
X-0017251D01*
X-0015915Y0006450D02*
X-0017258D01*
X-0015909Y0006441D02*
X-0017264D01*
X-0015902Y0006432D02*
X-0017271D01*
X-0015897Y0006423D02*
X-0017276D01*
X-0015891Y0006414D02*
X-0017282D01*
X-0015886Y0006405D02*
X-0017287D01*
X-0015881Y0006396D02*
X-0017292D01*
X-0015876Y0006387D02*
X-0017297D01*
X-0015872Y0006378D02*
X-0017301D01*
X-0015868Y0006369D02*
X-0017305D01*
X-0015864Y0006360D02*
X-0017309D01*
X-0015861Y0006351D02*
X-0017312D01*
X-0015858Y0006342D02*
X-0017315D01*
X-0015855Y0006333D02*
X-0017318D01*
X-0015852Y0006324D02*
X-0017321D01*
X-0015850Y0006315D02*
X-0017323D01*
X-0015847Y0006306D02*
X-0017326D01*
X-0015845Y0006297D02*
X-0017328D01*
X-0015843Y0006288D02*
X-0017330D01*
X-0015842Y0006279D02*
X-0017331D01*
X-0015840Y0006270D02*
X-0017333D01*
X-0015839Y0006261D02*
X-0017334D01*
X-0015838Y0006252D02*
X-0017335D01*
X-0015838Y0006243D02*
X-0017335D01*
X-0015837Y0006234D02*
X-0017336D01*
X-0015837Y0006225D02*
X-0017336D01*
X-0015834Y0006216D02*
X-0017336D01*
X-0015837Y0006207D02*
X-0017336D01*
X-0015837Y0006198D02*
X-0017336D01*
X-0015837Y0006189D02*
X-0017336D01*
X-0015838Y0006180D02*
X-0017335D01*
X-0015839Y0006171D02*
X-0017334D01*
X-0015840Y0006162D02*
X-0017333D01*
X-0015841Y0006153D02*
X-0017332D01*
X-0015843Y0006144D02*
X-0017330D01*
X-0015845Y0006135D02*
X-0017328D01*
X-0015847Y0006126D02*
X-0017326D01*
X-0015849Y0006117D02*
X-0017324D01*
X-0015851Y0006108D02*
X-0017322D01*
X-0015854Y0006099D02*
X-0017319D01*
X-0015857Y0006090D02*
X-0017316D01*
X-0015860Y0006081D02*
X-0017313D01*
X-0015864Y0006072D02*
X-0017309D01*
X-0015867Y0006063D02*
X-0017306D01*
X-0015871Y0006054D02*
X-0017302D01*
X-0015876Y0006045D02*
X-0017297D01*
X-0015880Y0006036D02*
X-0017293D01*
X-0015885Y0006027D02*
X-0017288D01*
X-0015890Y0006018D02*
X-0017283D01*
X-0015895Y0006009D02*
X-0017278D01*
X-0015901Y0006000D02*
X-0017272D01*
X-0015907Y0005991D02*
X-0017266D01*
X-0015914Y0005982D02*
X-0017259D01*
X-0015921Y0005973D02*
X-0017252D01*
X-0015928Y0005964D02*
X-0017245D01*
X-0015936Y0005955D02*
X-0017237D01*
X-0015944Y0005946D02*
X-0017229D01*
X-0015953Y0005937D02*
X-0017220D01*
X-0015962Y0005928D02*
X-0017211D01*
X-0015973Y0005919D02*
X-0017200D01*
X-0015983Y0005910D02*
X-0017190D01*
X-0015995Y0005901D02*
X-0017178D01*
X-0016008Y0005892D02*
X-0017165D01*
X-0016022Y0005883D02*
X-0017151D01*
X-0016037Y0005874D02*
X-0017136D01*
X-0016054Y0005865D02*
X-0017119D01*
X-0016074Y0005856D02*
X-0017099D01*
X-0016097Y0005847D02*
X-0017076D01*
X-0016127Y0005838D02*
X-0017046D01*
G01X-0015837Y0006215D02*
G03X-0016227Y0006605I0000390J0000000D01*
Y0005825D02*
G03X-0015837Y0006215I0000000J0000390D01*
G01X-0017337D02*
G03X-0016947Y0005825I0000390J0000000D01*
Y0006605D02*
G03X-0017337Y0006215I0000000J0000390D01*
G54D11*
X-0014107Y0004119D03*
X-0013607D03*
X-0013107D03*
X-0012607D03*
Y0007199D03*
X-0013107D03*
X-0013607D03*
X-0014107D03*
G54D12*
X-0009358Y0005648D03*
Y0007221D03*
X-0009341Y0004073D03*
G54D13*
X-0010148Y0006018D03*
Y0005278D03*
Y0007591D03*
Y0006851D03*
X-0010131Y0004443D03*
Y0003703D03*
G54D14*
X-0015375Y0003771D03*
Y0004331D03*
X-0011402Y0003811D03*
Y0004371D03*
Y0006997D03*
Y0007557D03*
Y0005423D03*
Y0005983D03*
G54D15*
X-0002120Y-0000120D03*
X-0001560D03*
G54D18*
X-0015537Y0005625D03*
Y0006805D03*
G54D19*
X-0015687Y0006215D03*
G54D23*
X-0018225Y0006505D03*
Y0004341D03*
G54D26*
X-0007985Y0005883D03*
Y0004883D03*
Y0003883D03*
G54D27*
Y0006883D03*
M02*
