%
T1C0.039F200S100
X-028084Y-013137
X-028084Y-012036
X-023403Y000551
X-022403Y000551
X-021403Y000551
X-020403Y000551
X-019284Y000551
X-018284Y000551
X-017284Y000551
X-016323Y-019155
X-016284Y000551
X-015222Y-019155
X-015222Y000551
X-014222Y000551
X-013222Y000551
X-012222Y000551
X-011142Y000551
X-010142Y000551
X-009142Y000551
X-008142Y000551
X-007041Y000551
X-006041Y000551
X-005041Y000551
X-004041Y000551
M30
