*
G04 Mass Parameters ***
*
G04 Image ***
*
%IND:\DANH\ORCAD PROJECTS\COMERCIAL PROJECTS\COM_PRJ47\COM_PRJ47_3LEDS.PWR*%
%ICAS*%
%MOIN*%
%IPPOS*%
%ASAXBY*%
G74*%FSLAN2X34Y34*%
*
G04 Aperture Definitions ***
*
%ADD10C,0.1039*%
%ADD11C,0.0620*%
%ADD12C,0.0840*%
%ADD13R,0.0840X0.0840*%
%ADD14C,0.3150*%
%ADD15C,0.0799*%
%ADD16C,0.0079*%
%ADD17C,0.0827*%
%ADD18C,0.0080*%
%ADD19C,0.0120*%
%ADD20C,0.0118*%
%ADD21C,0.0700*%
%ADD22C,0.0900*%
%ADD23C,0.0920*%
%ADD24C,0.0720*%
*
G04 Plot Data ***
*
G54D21*
X-0081853Y-0026275D03*
X-0080853D03*
X-0079853D03*
X-0078853D03*
G54D22*
X-0084488Y-0027651D03*
X-0086488Y-0025651D03*
Y-0027651D03*
X-0084488Y-0025651D03*
X-0077133Y-0025455D03*
X-0075133Y-0027455D03*
Y-0025455D03*
X-0077133Y-0027455D03*
X-0079729Y-0015936D03*
X-0081729Y-0017936D03*
X-0079729D03*
X-0081729Y-0015936D03*
G54D23*
X-0085853Y-0019341D03*
X-0098676Y-0017846D03*
G54D24*
X-0078352Y-0019509D03*
X-0078273Y-0020296D03*
Y-0021083D03*
X-0078313Y-0021869D03*
Y-0022656D03*
X-0078273Y-0023443D03*
X-0078588Y-0024190D03*
X-0079375D03*
X-0080122D03*
X-0080909D03*
X-0081695Y-0024151D03*
X-0082482Y-0024111D03*
X-0083072Y-0023600D03*
Y-0022813D03*
Y-0022027D03*
Y-0021240D03*
X-0083111Y-0020453D03*
X-0082875Y-0019667D03*
X-0079099Y-0019313D03*
X-0079886D03*
X-0080673D03*
X-0081420D03*
X-0082207D03*
M02*
