*
G04 Mass Parameters ***
*
G04 Image ***
*
%IND:\DANH\ORCAD PROJECTS\COMERCIAL PROJECTS\COM_PRJ47\COM_PRJ47_3LEDS.SST*%
%ICAS*%
%MOIN*%
%IPPOS*%
%ASAXBY*%
G74*%FSLAN2X34Y34*%
*
G04 Aperture Definitions ***
*
%ADD10C,0.1039*%
%ADD11C,0.0620*%
%ADD12C,0.0840*%
%ADD13R,0.0840X0.0840*%
%ADD14C,0.3150*%
%ADD15C,0.0799*%
%ADD16C,0.0079*%
%ADD17C,0.0827*%
%ADD18C,0.0080*%
%ADD19C,0.0120*%
%ADD20C,0.0118*%
%ADD21C,0.0700*%
%ADD22C,0.0900*%
%ADD23C,0.0920*%
%ADD24C,0.0720*%
%ADD25C,0.0750*%
%ADD26C,0.0670*%
%ADD27C,0.0890*%
%ADD28C,0.0910*%
%ADD29C,0.0520*%
%ADD30C,0.0039*%
%ADD31C,0.0020*%
*
G04 Plot Data ***
*
G54D16*
G01X-0086769Y-0024151D02*
Y-0023678D01*
X-0083269Y-0025331D02*
X-0082796D01*
X-0075874Y-0019431D02*
X-0075401D01*
X-0075127Y-0016599D02*
X-0074654D01*
X-0086475Y-0022439D02*
Y-0021966D01*
X-0079886Y-0027691D02*
Y-0027218D01*
X-0083190Y-0017741D02*
X-0083663D01*
X-0078549Y-0017739D02*
Y-0017267D01*
X-0075166Y-0024229D02*
Y-0024702D01*
G54D18*
G01X-0078252Y-0016397D02*
X-0078519D01*
X-0078252Y-0016130D01*
Y-0016064D01*
X-0078286Y-0015997D01*
X-0078486D01*
X-0078519Y-0016064D01*
X-0078812Y-0016197D02*
X-0078712Y-0016397D01*
X-0078979Y-0016197D02*
X-0078779D01*
X-0078712Y-0016130D01*
Y-0016064D01*
X-0078779Y-0015997D01*
X-0078979D01*
Y-0016397D01*
X-0084532Y-0017445D02*
Y-0017712D01*
X-0084799Y-0017445D01*
X-0084866D01*
X-0084932Y-0017478D01*
Y-0017678D01*
X-0084866Y-0017712D01*
X-0084732Y-0018038D02*
Y-0017905D01*
X-0084599D01*
X-0084532Y-0017938D01*
Y-0018138D01*
X-0084599Y-0018172D01*
X-0084866D01*
X-0084932Y-0018138D01*
Y-0017938D01*
X-0084866Y-0017905D01*
X-0073718Y-0016628D02*
X-0073784Y-0016695D01*
Y-0016828D01*
X-0073718Y-0016895D01*
X-0073651D01*
X-0073518Y-0016761D01*
X-0073384Y-0016895D01*
Y-0016628D01*
X-0073584Y-0016301D02*
Y-0016435D01*
X-0073718D01*
X-0073784Y-0016401D01*
Y-0016201D01*
X-0073718Y-0016168D01*
X-0073451D01*
X-0073384Y-0016201D01*
Y-0016401D01*
X-0073451Y-0016435D01*
X-0079263Y-0026348D02*
X-0079396D01*
X-0079330D02*
Y-0025948D01*
X-0079396Y-0026015D01*
X-0079656Y-0026348D02*
X-0079790D01*
X-0079723D02*
Y-0025948D01*
X-0079790Y-0026015D01*
X-0080150Y-0026148D02*
X-0080050Y-0026348D01*
X-0080316Y-0026148D02*
X-0080116D01*
X-0080050Y-0026082D01*
Y-0026015D01*
X-0080116Y-0025948D01*
X-0080316D01*
Y-0026348D01*
X-0086379Y-0021096D02*
X-0086179Y-0020696D01*
X-0086446D01*
X-0086772Y-0020896D02*
X-0086639D01*
Y-0021030D01*
X-0086672Y-0021096D01*
X-0086872D01*
X-0086906Y-0021030D01*
Y-0020763D01*
X-0086872Y-0020696D01*
X-0086672D01*
X-0086639Y-0020763D01*
X-0086988Y-0025088D02*
Y-0028088D01*
X-0083988D01*
Y-0025088D01*
X-0086988D01*
X-0083988D01*
Y-0028088D01*
X-0086988D01*
Y-0025088D01*
X-0074633Y-0028018D02*
Y-0025018D01*
X-0077633D01*
Y-0028018D01*
X-0074633D01*
X-0077633D01*
Y-0025018D01*
X-0074633D01*
Y-0028018D01*
X-0082292Y-0018436D02*
X-0079292D01*
Y-0015436D01*
X-0082292D01*
Y-0018436D01*
Y-0015436D01*
X-0079292D01*
Y-0018436D01*
X-0082292D01*
G54D20*
G01X-0079148Y-0016918D02*
Y-0016568D01*
X-0078798Y-0016918D01*
X-0078710D01*
X-0078623Y-0016874D01*
Y-0016612D01*
X-0078710Y-0016568D01*
X-0078623Y-0016289D02*
X-0079060D01*
X-0079148Y-0016245D01*
Y-0015982D01*
X-0079060Y-0015939D01*
X-0078623D01*
X-0085208Y-0028232D02*
X-0085470Y-0028757D01*
X-0085120D01*
X-0084841D02*
Y-0028320D01*
X-0084797Y-0028232D01*
X-0084534D01*
X-0084491Y-0028320D01*
Y-0028757D01*
X-0076500Y-0024786D02*
X-0076457Y-0024874D01*
X-0076194D01*
X-0076150Y-0024786D01*
Y-0024611D01*
X-0076238Y-0024524D01*
X-0076500D01*
Y-0024349D01*
X-0076150D01*
X-0076780D02*
Y-0024786D01*
X-0076824Y-0024874D01*
X-0077086D01*
X-0077130Y-0024786D01*
Y-0024349D01*
G54D30*
G01X-0081946Y-0025615D02*
X-0082034D01*
X-0081990D02*
Y-0025353D01*
X-0082034Y-0025397D01*
X-0082331Y-0025528D02*
Y-0025572D01*
X-0082309Y-0025615D01*
X-0082221D01*
X-0082200Y-0025572D01*
Y-0025353D01*
X-0082178D02*
X-0082265D01*
X-0081379Y-0027128D02*
X-0081554D01*
X-0081467Y-0026953D01*
X-0081423D01*
Y-0027215D01*
X-0081655Y-0026953D02*
Y-0027215D01*
X-0081699Y-0027172D01*
X-0081786Y-0026997D01*
X-0081830Y-0026953D01*
Y-0027215D01*
X-0082083D02*
X-0082105Y-0027172D01*
Y-0026997D01*
X-0082083Y-0026953D01*
X-0081952D01*
X-0081930Y-0026997D01*
Y-0027172D01*
X-0081952Y-0027215D01*
X-0082083D01*
X-0082206Y-0027172D02*
X-0082228Y-0027215D01*
X-0082359D01*
X-0082381Y-0027172D01*
Y-0026997D01*
X-0082359Y-0026953D01*
X-0082228D01*
X-0082206Y-0026997D01*
X-0082353Y-0025775D02*
Y-0026775D01*
X-0078353D01*
Y-0025775D01*
X-0082353D01*
G01X-0085488Y-0027438D02*
G03X-0084638Y-0026588I0000000J0000850D01*
G01X-0086338D02*
G03X-0085488Y-0027438I0000850J0000000D01*
Y-0025738D02*
G03X-0086338Y-0026588I0000000J0000850D01*
G01X-0084638D02*
G03X-0085488Y-0025738I0000850J0000000D01*
G01X-0076133Y-0027368D02*
G03X-0075283Y-0026518I0000000J0000850D01*
G01X-0076983D02*
G03X-0076133Y-0027368I0000850J0000000D01*
Y-0025668D02*
G03X-0076983Y-0026518I0000000J0000850D01*
G01X-0075283D02*
G03X-0076133Y-0025668I0000850J0000000D01*
G01X-0080792Y-0017786D02*
G03X-0079942Y-0016936I0000000J0000850D01*
G01X-0081642D02*
G03X-0080792Y-0017786I0000850J0000000D01*
Y-0016086D02*
G03X-0081642Y-0016936I0000000J0000850D01*
G01X-0079942D02*
G03X-0080792Y-0016086I0000850J0000000D01*
G54D31*
G01X-0084887Y-0025987D02*
X-0086089Y-0027189D01*
X-0085963Y-0025883D02*
X-0086193Y-0026113D01*
X-0085797Y-0025796D02*
X-0086280Y-0026278D01*
X-0085683Y-0025760D02*
X-0086315Y-0026393D01*
X-0085588Y-0025744D02*
X-0086332Y-0026488D01*
X-0085503Y-0025738D02*
X-0086338Y-0026573D01*
X-0085427Y-0025740D02*
X-0086336Y-0026649D01*
X-0085356Y-0025748D02*
X-0086328Y-0026720D01*
X-0085290Y-0025761D02*
X-0086315Y-0026785D01*
X-0085229Y-0025778D02*
X-0086298Y-0026847D01*
X-0085171Y-0025799D02*
X-0086277Y-0026905D01*
X-0085116Y-0025823D02*
X-0086253Y-0026959D01*
X-0085065Y-0025850D02*
X-0086225Y-0027011D01*
X-0085016Y-0025880D02*
X-0086195Y-0027059D01*
X-0084971Y-0025913D02*
X-0086162Y-0027105D01*
X-0084927Y-0025949D02*
X-0086127Y-0027148D01*
X-0084783Y-0027063D02*
X-0085013Y-0027293D01*
X-0084696Y-0026897D02*
X-0085178Y-0027380D01*
X-0084660Y-0026783D02*
X-0085293Y-0027415D01*
X-0084644Y-0026688D02*
X-0085388Y-0027432D01*
X-0084638Y-0026603D02*
X-0085473Y-0027438D01*
X-0084640Y-0026527D02*
X-0085549Y-0027436D01*
X-0084648Y-0026456D02*
X-0085620Y-0027428D01*
X-0084661Y-0026390D02*
X-0085685Y-0027415D01*
X-0084678Y-0026329D02*
X-0085747Y-0027398D01*
X-0084699Y-0026271D02*
X-0085805Y-0027377D01*
X-0084723Y-0026216D02*
X-0085859Y-0027353D01*
X-0084750Y-0026165D02*
X-0085911Y-0027325D01*
X-0084780Y-0026116D02*
X-0085959Y-0027295D01*
X-0084813Y-0026071D02*
X-0086005Y-0027262D01*
X-0084849Y-0026027D02*
X-0086048Y-0027227D01*
X-0075532Y-0025917D02*
X-0076733Y-0027119D01*
X-0076609Y-0025815D02*
X-0076836Y-0026042D01*
X-0076443Y-0025727D02*
X-0076924Y-0026208D01*
X-0076328Y-0025691D02*
X-0076959Y-0026322D01*
X-0076233Y-0025674D02*
X-0076976Y-0026418D01*
X-0076148Y-0025669D02*
X-0076982Y-0026502D01*
X-0076072Y-0025671D02*
X-0076980Y-0026579D01*
X-0076001Y-0025679D02*
X-0076972Y-0026650D01*
X-0075935Y-0025692D02*
X-0076959Y-0026715D01*
X-0075874Y-0025709D02*
X-0076942Y-0026777D01*
X-0075816Y-0025730D02*
X-0076921Y-0026835D01*
X-0075761Y-0025754D02*
X-0076897Y-0026889D01*
X-0075710Y-0025781D02*
X-0076870Y-0026941D01*
X-0075661Y-0025811D02*
X-0076840Y-0026989D01*
X-0075615Y-0025844D02*
X-0076807Y-0027035D01*
X-0075572Y-0025879D02*
X-0076771Y-0027078D01*
X-0075429Y-0026995D02*
X-0075656Y-0027222D01*
X-0075341Y-0026828D02*
X-0075822Y-0027309D01*
X-0075306Y-0026714D02*
X-0075937Y-0027345D01*
X-0075289Y-0026618D02*
X-0076032Y-0027362D01*
X-0075283Y-0026534D02*
X-0076117Y-0027368D01*
X-0075285Y-0026457D02*
X-0076193Y-0027366D01*
X-0075293Y-0026387D02*
X-0076264Y-0027358D01*
X-0075306Y-0026321D02*
X-0076330Y-0027345D01*
X-0075323Y-0026259D02*
X-0076391Y-0027328D01*
X-0075344Y-0026202D02*
X-0076449Y-0027307D01*
X-0075368Y-0026147D02*
X-0076504Y-0027283D01*
X-0075395Y-0026096D02*
X-0076555Y-0027255D01*
X-0075425Y-0026047D02*
X-0076604Y-0027225D01*
X-0075458Y-0026001D02*
X-0076650Y-0027193D01*
X-0075494Y-0025958D02*
X-0076693Y-0027157D01*
X-0080191Y-0016335D02*
X-0081393Y-0017537D01*
X-0081267Y-0016231D02*
X-0081497Y-0016461D01*
X-0081102Y-0016144D02*
X-0081584Y-0016626D01*
X-0080988Y-0016109D02*
X-0081619Y-0016740D01*
X-0080892Y-0016092D02*
X-0081636Y-0016836D01*
X-0080808Y-0016086D02*
X-0081642Y-0016920D01*
X-0080731Y-0016088D02*
X-0081640Y-0016997D01*
X-0080660Y-0016096D02*
X-0081632Y-0017068D01*
X-0080595Y-0016109D02*
X-0081619Y-0017133D01*
X-0080533Y-0016126D02*
X-0081602Y-0017195D01*
X-0080475Y-0016147D02*
X-0081581Y-0017253D01*
X-0080421Y-0016171D02*
X-0081557Y-0017307D01*
X-0080369Y-0016198D02*
X-0081530Y-0017359D01*
X-0080321Y-0016228D02*
X-0081500Y-0017407D01*
X-0080275Y-0016261D02*
X-0081467Y-0017453D01*
X-0080232Y-0016297D02*
X-0081431Y-0017496D01*
X-0080087Y-0017411D02*
X-0080317Y-0017641D01*
X-0080001Y-0017246D02*
X-0080482Y-0017727D01*
X-0079965Y-0017131D02*
X-0080597Y-0017763D01*
X-0079948Y-0017036D02*
X-0080692Y-0017780D01*
X-0079942Y-0016951D02*
X-0080777Y-0017786D01*
X-0079944Y-0016875D02*
X-0080853Y-0017784D01*
X-0079952Y-0016804D02*
X-0080924Y-0017776D01*
X-0079965Y-0016738D02*
X-0080990Y-0017763D01*
X-0079983Y-0016677D02*
X-0081051Y-0017745D01*
X-0080003Y-0016619D02*
X-0081109Y-0017725D01*
X-0080028Y-0016565D02*
X-0081163Y-0017700D01*
X-0080055Y-0016513D02*
X-0081215Y-0017673D01*
X-0080085Y-0016464D02*
X-0081264Y-0017643D01*
X-0080118Y-0016419D02*
X-0081309Y-0017610D01*
X-0080153Y-0016375D02*
X-0081353Y-0017575D01*
G01X-0085488Y-0027438D02*
G03X-0084638Y-0026588I0000000J0000850D01*
G01X-0086338D02*
G03X-0085488Y-0027438I0000850J0000000D01*
Y-0025738D02*
G03X-0086338Y-0026588I0000000J0000850D01*
G01X-0084638D02*
G03X-0085488Y-0025738I0000850J0000000D01*
G01X-0076133Y-0027368D02*
G03X-0075283Y-0026518I0000000J0000850D01*
G01X-0076982D02*
G03X-0076133Y-0027367I0000849J0000000D01*
Y-0025668D02*
G03X-0076983Y-0026518I0000000J0000850D01*
G01X-0075283D02*
G03X-0076133Y-0025668I0000850J0000000D01*
G01X-0080792Y-0017786D02*
G03X-0079942Y-0016936I0000000J0000850D01*
G01X-0081642D02*
G03X-0080792Y-0017786I0000850J0000000D01*
Y-0016086D02*
G03X-0081642Y-0016936I0000000J0000850D01*
G01X-0079942D02*
G03X-0080792Y-0016086I0000850J0000000D01*
M02*
