*
G04 Mass Parameters ***
*
G04 Image ***
*
%IND:\DANH\ORCAD PROJECTS\COMERCIAL PROJECTS\COM_PRJ47\COM_PRJ47_3LEDS.BOT*%
%ICAS*%
%MOIN*%
%IPPOS*%
%ASAXBY*%
G74*%FSLAN2X34Y34*%
*
G04 Aperture Definitions ***
*
%ADD10C,0.1039*%
%ADD11C,0.0620*%
%ADD12C,0.0840*%
%ADD13R,0.0840X0.0840*%
%ADD14C,0.3150*%
%ADD15C,0.0799*%
%ADD16C,0.0079*%
%ADD17C,0.0827*%
%ADD18C,0.0080*%
%ADD19C,0.0120*%
%ADD20C,0.0118*%
*
G04 Plot Data ***
*
G54D18*
G01X-0077133Y-0025455D02*
X-0080033D01*
X-0080853Y-0026275D01*
X-0079729Y-0015936D02*
X-0077314D01*
X-0076375Y-0016875D01*
Y-0018000D01*
X-0077250Y-0018875D01*
Y-0020125D01*
X-0076375Y-0021000D01*
X-0075875D01*
X-0075000Y-0021583D01*
Y-0022625D01*
X-0075250Y-0022875D01*
X-0077263Y-0023546D01*
X-0077562Y-0024445D01*
X-0077133Y-0024875D01*
Y-0025455D01*
X-0083190Y-0016441D02*
X-0082510D01*
X-0082274Y-0016677D01*
X-0080833D01*
X-0080673Y-0016517D01*
Y-0015421D01*
X-0080513Y-0015261D01*
X-0077364D01*
X-0076000Y-0016625D01*
Y-0018125D01*
X-0076775Y-0018900D01*
Y-0020044D01*
X-0076615Y-0020204D01*
X-0075546D01*
X-0074625Y-0021125D01*
Y-0022976D01*
X-0074748Y-0023100D01*
X-0076062Y-0023625D01*
X-0076666Y-0024229D01*
X-0081853Y-0026275D02*
X-0080703Y-0025125D01*
X-0078500D01*
X-0077875Y-0024500D01*
Y-0024000D01*
X-0077634Y-0023759D01*
Y-0022065D01*
X-0077499Y-0021931D01*
X-0075874D01*
X-0079886Y-0027691D02*
X-0079099Y-0028477D01*
X-0075127D01*
X-0074065Y-0027415D01*
Y-0025449D01*
X-0073986Y-0025370D01*
Y-0019785D01*
X-0075127Y-0018644D01*
Y-0017899D01*
X-0078853Y-0026275D02*
X-0076870D01*
X-0076183Y-0025588D01*
Y-0024712D01*
X-0076666Y-0024229D01*
X-0084269Y-0024151D02*
X-0085154Y-0025035D01*
Y-0026154D01*
X-0084994Y-0026314D01*
X-0083583D01*
X-0083544Y-0026275D01*
X-0081853D01*
X-0079886Y-0027691D02*
X-0080464D01*
Y-0026886D01*
X-0079853Y-0026275D01*
X-0084488Y-0027651D02*
X-0083888Y-0027051D01*
X-0081629D01*
X-0080853Y-0026275D01*
X-0083190Y-0016441D02*
X-0083994Y-0017246D01*
Y-0021258D01*
X-0085175Y-0022439D01*
X-0075127Y-0016599D02*
X-0076779Y-0014947D01*
X-0080739D01*
X-0081729Y-0015936D01*
X-0077249Y-0017739D02*
X-0077625Y-0018116D01*
Y-0020180D01*
X-0077499Y-0020306D01*
Y-0021931D01*
X-0075874D01*
X-0083269Y-0027831D02*
X-0083129Y-0027691D01*
X-0079886D01*
G54D19*
G01X-0081729Y-0017936D02*
X-0081040Y-0018625D01*
X-0079434D01*
X-0078549Y-0017739D01*
X-0075133Y-0027455D02*
X-0074464Y-0026786D01*
Y-0026589D01*
X-0074419Y-0026544D01*
Y-0025055D01*
X-0074301Y-0024937D01*
Y-0021004D01*
X-0075874Y-0019431D01*
X-0086769Y-0024151D02*
X-0086488Y-0024432D01*
Y-0025651D01*
X-0083269Y-0025331D02*
X-0083589Y-0025651D01*
X-0084488D01*
X-0086488Y-0027651D02*
X-0085747Y-0026910D01*
Y-0023167D01*
X-0086475Y-0022439D01*
X-0075166Y-0024229D02*
X-0075133Y-0024263D01*
Y-0025455D01*
X-0079729Y-0017936D02*
X-0080594Y-0017071D01*
X-0082519D01*
X-0083190Y-0017741D01*
G54D20*
G01X-0077133Y-0027455D02*
X-0078350D01*
X-0078586Y-0027691D01*
G54D10*
X-0079886D03*
X-0078586D03*
X-0086769Y-0024151D03*
X-0084269D03*
X-0075874Y-0019431D03*
Y-0021931D03*
X-0078549Y-0017739D03*
X-0077249D03*
X-0086475Y-0022439D03*
X-0085175D03*
X-0075166Y-0024229D03*
X-0076666D03*
X-0075127Y-0016599D03*
Y-0017899D03*
X-0083190Y-0017741D03*
Y-0016441D03*
X-0083269Y-0025331D03*
Y-0027831D03*
G54D12*
X-0084488Y-0027651D03*
X-0086488Y-0025651D03*
Y-0027651D03*
X-0084488Y-0025651D03*
X-0077133Y-0025455D03*
X-0075133Y-0027455D03*
Y-0025455D03*
X-0077133Y-0027455D03*
X-0079729Y-0015936D03*
X-0081729Y-0017936D03*
X-0079729D03*
X-0081729Y-0015936D03*
G54D14*
X-0085853Y-0019341D03*
X-0098676Y-0017846D03*
G54D15*
X-0078352Y-0019509D03*
X-0078273Y-0020296D03*
Y-0021083D03*
X-0078313Y-0021869D03*
Y-0022656D03*
X-0078273Y-0023443D03*
X-0078588Y-0024190D03*
X-0079375D03*
X-0080122D03*
X-0080909D03*
X-0081695Y-0024151D03*
X-0082482Y-0024111D03*
X-0083072Y-0023600D03*
Y-0022813D03*
Y-0022027D03*
Y-0021240D03*
X-0083111Y-0020453D03*
X-0082875Y-0019667D03*
X-0079099Y-0019313D03*
X-0079886D03*
X-0080673D03*
X-0081420D03*
X-0082207D03*
G54D17*
X-0081853Y-0026275D03*
X-0080853D03*
X-0079853D03*
X-0078853D03*
M02*
