%
T3C0.068F200S100
X-086488Y-027651
X-086488Y-025651
X-084488Y-027651
X-084488Y-025651
X-081729Y-017936
X-081729Y-015936
X-079729Y-017936
X-079729Y-015936
X-077133Y-027455
X-077133Y-025455
X-075133Y-027455
X-075133Y-025455
T1C0.038F200S100
X-081853Y-026275
X-080853Y-026275
X-079853Y-026275
X-078853Y-026275
T2C0.064F200S100
X-086769Y-024151
X-086475Y-022439
X-085175Y-022439
X-084269Y-024151
X-083269Y-027831
X-083269Y-025331
X-083190Y-017741
X-083190Y-016441
X-079886Y-027691
X-078586Y-027691
X-078549Y-017739
X-077249Y-017739
X-076666Y-024229
X-075874Y-021931
X-075874Y-019431
X-075166Y-024229
X-075127Y-017899
X-075127Y-016599
T5C0.129F200S100
X-098676Y-017846
X-085853Y-019341
T4C0.079F200S100
X-083111Y-020453
X-083072Y-023600
X-083072Y-022813
X-083072Y-022027
X-083072Y-021240
X-082875Y-019667
X-082482Y-024111
X-082207Y-019313
X-081695Y-024151
X-081420Y-019313
X-080909Y-024190
X-080673Y-019313
X-080122Y-024190
X-079886Y-019313
X-079375Y-024190
X-079099Y-019313
X-078588Y-024190
X-078352Y-019509
X-078313Y-022656
X-078313Y-021869
X-078273Y-023443
X-078273Y-021083
X-078273Y-020296
M30
